<?xml version="1.0" encoding="UTF-8"?>
<!DOCTYPE svg PUBLIC "-//W3C//DTD SVG 1.1//EN" "http://www.w3.org/Graphics/SVG/1.1/DTD/svg11.dtd">
<svg xmlns="http://www.w3.org/2000/svg" version="1.1" width="64px" height="63px" style="shape-rendering:geometricPrecision; text-rendering:geometricPrecision; image-rendering:optimizeQuality; fill-rule:evenodd; clip-rule:evenodd" xmlns:xlink="http://www.w3.org/1999/xlink">
<g><path style="opacity:1" fill="#000000" d="M 31.5,-0.5 C 36.8333,-0.5 42.1667,-0.5 47.5,-0.5C 47.5,0.5 47.5,1.5 47.5,2.5C 43.5,2.5 39.5,2.5 35.5,2.5C 35.5,3.83333 35.5,5.16667 35.5,6.5C 34.1667,6.5 32.8333,6.5 31.5,6.5C 31.5,4.16667 31.5,1.83333 31.5,-0.5 Z"/></g>
<g><path style="opacity:1" fill="#d43225" d="M 47.5,2.5 C 47.5,3.83333 47.5,5.16667 47.5,6.5C 48.8333,6.5 50.1667,6.5 51.5,6.5C 51.5,7.83333 51.5,9.16667 51.5,10.5C 48.8333,10.5 46.1667,10.5 43.5,10.5C 43.5,9.16667 43.5,7.83333 43.5,6.5C 40.8333,6.5 38.1667,6.5 35.5,6.5C 35.5,5.16667 35.5,3.83333 35.5,2.5C 39.5,2.5 43.5,2.5 47.5,2.5 Z"/></g>
<g><path style="opacity:1" fill="#000000" d="M 47.5,2.5 C 48.8333,2.5 50.1667,2.5 51.5,2.5C 51.5,3.83333 51.5,5.16667 51.5,6.5C 51.5,5.16667 51.5,3.83333 51.5,2.5C 50.1667,2.5 48.8333,2.5 47.5,2.5 Z"/></g>
<g><path style="opacity:1" fill="#000000" d="M 35.5,6.5 C 38.1667,6.5 40.8333,6.5 43.5,6.5C 43.5,7.83333 43.5,9.16667 43.5,10.5C 40.8333,10.5 38.1667,10.5 35.5,10.5C 35.5,9.16667 35.5,7.83333 35.5,6.5 Z"/></g>
<g><path style="opacity:1" fill="#000000" d="M 51.5,6.5 C 52.8333,6.5 54.1667,6.5 55.5,6.5C 55.5,7.83333 55.5,9.16667 55.5,10.5C 54.1667,10.5 52.8333,10.5 51.5,10.5C 51.5,9.16667 51.5,7.83333 51.5,6.5 Z"/></g>
<g><path style="opacity:1" fill="#000000" d="M 35.5,10.5 C 35.5,14.5 35.5,18.5 35.5,22.5C 34.1667,22.5 32.8333,22.5 31.5,22.5C 31.5,18.5 31.5,14.5 31.5,10.5C 32.8333,10.5 34.1667,10.5 35.5,10.5 Z"/></g>
<g><path style="opacity:1" fill="#fefffe" d="M 35.5,10.5 C 38.1667,10.5 40.8333,10.5 43.5,10.5C 46.1667,10.5 48.8333,10.5 51.5,10.5C 52.8333,10.5 54.1667,10.5 55.5,10.5C 55.5,13.1667 55.5,15.8333 55.5,18.5C 54.1667,18.5 52.8333,18.5 51.5,18.5C 51.5,19.8333 51.5,21.1667 51.5,22.5C 52.8333,22.5 54.1667,22.5 55.5,22.5C 55.5,25.1667 55.5,27.8333 55.5,30.5C 56.8333,30.5 58.1667,30.5 59.5,30.5C 59.5,35.8333 59.5,41.1667 59.5,46.5C 58.1667,46.5 56.8333,46.5 55.5,46.5C 55.5,47.8333 55.5,49.1667 55.5,50.5C 52.8333,50.5 50.1667,50.5 47.5,50.5C 47.5,51.8333 47.5,53.1667 47.5,54.5C 40.8333,54.5 34.1667,54.5 27.5,54.5C 27.5,53.1667 27.5,51.8333 27.5,50.5C 26.1667,50.5 24.8333,50.5 23.5,50.5C 23.5,51.8333 23.5,53.1667 23.5,54.5C 22.1667,54.5 20.8333,54.5 19.5,54.5C 19.5,53.1667 19.5,51.8333 19.5,50.5C 16.8333,50.5 14.1667,50.5 11.5,50.5C 11.5,49.1667 11.5,47.8333 11.5,46.5C 10.1667,46.5 8.83333,46.5 7.5,46.5C 7.5,45.1667 7.5,43.8333 7.5,42.5C 6.16667,42.5 4.83333,42.5 3.5,42.5C 3.5,39.8333 3.5,37.1667 3.5,34.5C 4.83333,34.5 6.16667,34.5 7.5,34.5C 7.5,33.1667 7.5,31.8333 7.5,30.5C 6.16667,30.5 4.83333,30.5 3.5,30.5C 3.5,26.5 3.5,22.5 3.5,18.5C 6.16667,18.5 8.83333,18.5 11.5,18.5C 11.5,19.8333 11.5,21.1667 11.5,22.5C 14.1667,22.5 16.8333,22.5 19.5,22.5C 19.5,23.8333 19.5,25.1667 19.5,26.5C 23.5,26.5 27.5,26.5 31.5,26.5C 31.5,25.1667 31.5,23.8333 31.5,22.5C 32.8333,22.5 34.1667,22.5 35.5,22.5C 35.5,18.5 35.5,14.5 35.5,10.5 Z"/></g>
<g><path style="opacity:1" fill="#000000" d="M 55.5,10.5 C 56.8333,10.5 58.1667,10.5 59.5,10.5C 59.5,13.1667 59.5,15.8333 59.5,18.5C 58.1667,18.5 56.8333,18.5 55.5,18.5C 55.5,15.8333 55.5,13.1667 55.5,10.5 Z"/></g>
<g><path style="opacity:1" fill="#000000" d="M 11.5,18.5 C 8.83333,18.5 6.16667,18.5 3.5,18.5C 3.5,17.1667 3.5,15.8333 3.5,14.5C 6.16667,14.5 8.83333,14.5 11.5,14.5C 11.5,15.8333 11.5,17.1667 11.5,18.5 Z"/></g>
<g><path style="opacity:1" fill="#000000" d="M 43.5,14.5 C 44.8333,14.5 46.1667,14.5 47.5,14.5C 47.5,18.5 47.5,22.5 47.5,26.5C 46.1667,26.5 44.8333,26.5 43.5,26.5C 43.5,22.5 43.5,18.5 43.5,14.5 Z"/></g>
<g><path style="opacity:1" fill="#000000" d="M -0.5,18.5 C 0.833333,18.5 2.16667,18.5 3.5,18.5C 3.5,22.5 3.5,26.5 3.5,30.5C 2.16667,30.5 0.833333,30.5 -0.5,30.5C -0.5,26.5 -0.5,22.5 -0.5,18.5 Z"/></g>
<g><path style="opacity:1" fill="#000000" d="M 11.5,18.5 C 14.1667,18.5 16.8333,18.5 19.5,18.5C 19.5,19.8333 19.5,21.1667 19.5,22.5C 16.8333,22.5 14.1667,22.5 11.5,22.5C 11.5,21.1667 11.5,19.8333 11.5,18.5 Z"/></g>
<g><path style="opacity:1" fill="#f0be19" d="M 55.5,18.5 C 56.8333,18.5 58.1667,18.5 59.5,18.5C 59.5,19.8333 59.5,21.1667 59.5,22.5C 58.1667,22.5 56.8333,22.5 55.5,22.5C 54.1667,22.5 52.8333,22.5 51.5,22.5C 51.5,21.1667 51.5,19.8333 51.5,18.5C 52.8333,18.5 54.1667,18.5 55.5,18.5 Z"/></g>
<g><path style="opacity:1" fill="#000000" d="M 59.5,18.5 C 60.8333,18.5 62.1667,18.5 63.5,18.5C 63.5,19.8333 63.5,21.1667 63.5,22.5C 62.1667,22.5 60.8333,22.5 59.5,22.5C 59.5,21.1667 59.5,19.8333 59.5,18.5 Z"/></g>
<g><path style="opacity:1" fill="#000000" d="M 19.5,22.5 C 23.5,22.5 27.5,22.5 31.5,22.5C 31.5,23.8333 31.5,25.1667 31.5,26.5C 27.5,26.5 23.5,26.5 19.5,26.5C 19.5,25.1667 19.5,23.8333 19.5,22.5 Z"/></g>
<g><path style="opacity:1" fill="#000000" d="M 55.5,22.5 C 56.8333,22.5 58.1667,22.5 59.5,22.5C 59.5,25.1667 59.5,27.8333 59.5,30.5C 58.1667,30.5 56.8333,30.5 55.5,30.5C 55.5,27.8333 55.5,25.1667 55.5,22.5 Z"/></g>
<g><path style="opacity:1" fill="#000000" d="M 3.5,30.5 C 4.83333,30.5 6.16667,30.5 7.5,30.5C 7.5,31.8333 7.5,33.1667 7.5,34.5C 6.16667,34.5 4.83333,34.5 3.5,34.5C 3.5,33.1667 3.5,31.8333 3.5,30.5 Z"/></g>
<g><path style="opacity:1" fill="#000000" d="M 59.5,30.5 C 60.8333,30.5 62.1667,30.5 63.5,30.5C 63.5,35.8333 63.5,41.1667 63.5,46.5C 62.1667,46.5 60.8333,46.5 59.5,46.5C 59.5,41.1667 59.5,35.8333 59.5,30.5 Z"/></g>
<g><path style="opacity:1" fill="#000000" d="M -0.5,34.5 C 0.833333,34.5 2.16667,34.5 3.5,34.5C 3.5,37.1667 3.5,39.8333 3.5,42.5C 2.16667,42.5 0.833333,42.5 -0.5,42.5C -0.5,39.8333 -0.5,37.1667 -0.5,34.5 Z"/></g>
<g><path style="opacity:1" fill="#000000" d="M 19.5,42.5 C 18.1667,42.5 16.8333,42.5 15.5,42.5C 15.5,39.8333 15.5,37.1667 15.5,34.5C 18.1667,34.5 20.8333,34.5 23.5,34.5C 23.5,35.8333 23.5,37.1667 23.5,38.5C 22.1667,38.5 20.8333,38.5 19.5,38.5C 19.5,39.8333 19.5,41.1667 19.5,42.5 Z"/></g>
<g><path style="opacity:1" fill="#000000" d="M 3.5,42.5 C 4.83333,42.5 6.16667,42.5 7.5,42.5C 7.5,43.8333 7.5,45.1667 7.5,46.5C 6.16667,46.5 4.83333,46.5 3.5,46.5C 3.5,45.1667 3.5,43.8333 3.5,42.5 Z"/></g>
<g><path style="opacity:1" fill="#000000" d="M 19.5,42.5 C 24.8333,42.5 30.1667,42.5 35.5,42.5C 35.5,43.8333 35.5,45.1667 35.5,46.5C 30.1667,46.5 24.8333,46.5 19.5,46.5C 19.5,45.1667 19.5,43.8333 19.5,42.5 Z"/></g>
<g><path style="opacity:1" fill="#000000" d="M 7.5,46.5 C 8.83333,46.5 10.1667,46.5 11.5,46.5C 11.5,47.8333 11.5,49.1667 11.5,50.5C 10.1667,50.5 8.83333,50.5 7.5,50.5C 7.5,49.1667 7.5,47.8333 7.5,46.5 Z"/></g>
<g><path style="opacity:1" fill="#000000" d="M 59.5,46.5 C 59.5,47.8333 59.5,49.1667 59.5,50.5C 58.1667,50.5 56.8333,50.5 55.5,50.5C 55.5,49.1667 55.5,47.8333 55.5,46.5C 56.8333,46.5 58.1667,46.5 59.5,46.5 Z"/></g>
<g><path style="opacity:1" fill="#000000" d="M 11.5,50.5 C 14.1667,50.5 16.8333,50.5 19.5,50.5C 19.5,51.8333 19.5,53.1667 19.5,54.5C 16.8333,54.5 14.1667,54.5 11.5,54.5C 11.5,53.1667 11.5,51.8333 11.5,50.5 Z"/></g>
<g><path style="opacity:1" fill="#000000" d="M 27.5,54.5 C 26.1667,54.5 24.8333,54.5 23.5,54.5C 23.5,53.1667 23.5,51.8333 23.5,50.5C 24.8333,50.5 26.1667,50.5 27.5,50.5C 27.5,51.8333 27.5,53.1667 27.5,54.5 Z"/></g>
<g><path style="opacity:1" fill="#000000" d="M 55.5,50.5 C 55.5,51.8333 55.5,53.1667 55.5,54.5C 52.8333,54.5 50.1667,54.5 47.5,54.5C 47.5,53.1667 47.5,51.8333 47.5,50.5C 50.1667,50.5 52.8333,50.5 55.5,50.5 Z"/></g>
<g><path style="opacity:1" fill="#000000" d="M 19.5,54.5 C 20.8333,54.5 22.1667,54.5 23.5,54.5C 23.5,57.1667 23.5,59.8333 23.5,62.5C 22.1667,62.5 20.8333,62.5 19.5,62.5C 19.5,59.8333 19.5,57.1667 19.5,54.5 Z"/></g>
<g><path style="opacity:1" fill="#785533" d="M 23.5,54.5 C 24.8333,54.5 26.1667,54.5 27.5,54.5C 27.5,55.8333 27.5,57.1667 27.5,58.5C 27.5,59.8333 27.5,61.1667 27.5,62.5C 26.1667,62.5 24.8333,62.5 23.5,62.5C 23.5,59.8333 23.5,57.1667 23.5,54.5 Z"/></g>
<g><path style="opacity:1" fill="#000000" d="M 27.5,54.5 C 34.1667,54.5 40.8333,54.5 47.5,54.5C 47.5,57.1667 47.5,59.8333 47.5,62.5C 46.1667,62.5 44.8333,62.5 43.5,62.5C 43.5,61.1667 43.5,59.8333 43.5,58.5C 42.1667,58.5 40.8333,58.5 39.5,58.5C 39.5,59.8333 39.5,61.1667 39.5,62.5C 38.1667,62.5 36.8333,62.5 35.5,62.5C 35.5,61.1667 35.5,59.8333 35.5,58.5C 32.8333,58.5 30.1667,58.5 27.5,58.5C 27.5,57.1667 27.5,55.8333 27.5,54.5 Z"/></g>
<g><path style="opacity:1" fill="#f0be19" d="M 27.5,58.5 C 30.1667,58.5 32.8333,58.5 35.5,58.5C 35.5,59.8333 35.5,61.1667 35.5,62.5C 32.8333,62.5 30.1667,62.5 27.5,62.5C 27.5,61.1667 27.5,59.8333 27.5,58.5 Z"/></g>
<g><path style="opacity:1" fill="#f0be19" d="M 43.5,62.5 C 42.1667,62.5 40.8333,62.5 39.5,62.5C 39.5,61.1667 39.5,59.8333 39.5,58.5C 40.8333,58.5 42.1667,58.5 43.5,58.5C 43.5,59.8333 43.5,61.1667 43.5,62.5 Z"/></g>
</svg>
