<?xml version="1.0" encoding="UTF-8"?>
<!DOCTYPE svg PUBLIC "-//W3C//DTD SVG 1.1//EN" "http://www.w3.org/Graphics/SVG/1.1/DTD/svg11.dtd">
<svg xmlns="http://www.w3.org/2000/svg" version="1.1" width="394px" height="113px" style="shape-rendering:geometricPrecision; text-rendering:geometricPrecision; image-rendering:optimizeQuality; fill-rule:evenodd; clip-rule:evenodd" xmlns:xlink="http://www.w3.org/1999/xlink">
<g><path style="opacity:1" fill="#0b2239" d="M 135.5,33.5 C 148.5,33.5 161.5,33.5 174.5,33.5C 174.5,37.1667 174.5,40.8333 174.5,44.5C 169.833,44.5 165.167,44.5 160.5,44.5C 160.5,53.5 160.5,62.5 160.5,71.5C 165.015,71.3457 169.348,71.3457 173.5,71.5C 174.489,75.1073 174.823,78.774 174.5,82.5C 161.5,82.5 148.5,82.5 135.5,82.5C 135.5,78.8333 135.5,75.1667 135.5,71.5C 140.167,71.5 144.833,71.5 149.5,71.5C 149.5,62.5 149.5,53.5 149.5,44.5C 144.833,44.5 140.167,44.5 135.5,44.5C 135.5,40.8333 135.5,37.1667 135.5,33.5 Z"/></g>
<g><path style="opacity:1" fill="#0b2239" d="M 50.5,34.5 C 60.1667,34.5 69.8333,34.5 79.5,34.5C 79.5,36.1667 79.5,37.8333 79.5,39.5C 81.1667,39.5 82.8333,39.5 84.5,39.5C 84.5,42.5 84.5,45.5 84.5,48.5C 81.5,48.5 78.5,48.5 75.5,48.5C 75.5,46.8333 75.5,45.1667 75.5,43.5C 68.8333,43.5 62.1667,43.5 55.5,43.5C 55.5,53.1667 55.5,62.8333 55.5,72.5C 61.8333,72.5 68.1667,72.5 74.5,72.5C 74.5,70.8333 74.5,69.1667 74.5,67.5C 77.8333,67.5 81.1667,67.5 84.5,67.5C 84.5,70.8333 84.5,74.1667 84.5,77.5C 82.8333,77.5 81.1667,77.5 79.5,77.5C 79.5,79.1667 79.5,80.8333 79.5,82.5C 69.8333,82.5 60.1667,82.5 50.5,82.5C 50.5,80.8333 50.5,79.1667 50.5,77.5C 49.1667,77.5 47.8333,77.5 46.5,77.5C 46.5,64.8333 46.5,52.1667 46.5,39.5C 47.8333,39.5 49.1667,39.5 50.5,39.5C 50.5,37.8333 50.5,36.1667 50.5,34.5 Z"/></g>
<g><path style="opacity:1" fill="#0b2239" d="M 91.5,34.5 C 94.5,34.5 97.5,34.5 100.5,34.5C 100.5,40.8333 100.5,47.1667 100.5,53.5C 106.833,53.5 113.167,53.5 119.5,53.5C 119.5,47.1667 119.5,40.8333 119.5,34.5C 122.833,34.5 126.167,34.5 129.5,34.5C 129.5,50.5 129.5,66.5 129.5,82.5C 126.167,82.5 122.833,82.5 119.5,82.5C 119.5,75.8333 119.5,69.1667 119.5,62.5C 113.167,62.5 106.833,62.5 100.5,62.5C 100.5,69.1667 100.5,75.8333 100.5,82.5C 97.5,82.5 94.5,82.5 91.5,82.5C 91.5,66.5 91.5,50.5 91.5,34.5 Z"/></g>
<g><path style="opacity:1" fill="#0b2239" d="M 185.5,34.5 C 195.167,34.5 204.833,34.5 214.5,34.5C 214.5,36.1667 214.5,37.8333 214.5,39.5C 216.167,39.5 217.833,39.5 219.5,39.5C 219.5,42.5 219.5,45.5 219.5,48.5C 216.167,48.5 212.833,48.5 209.5,48.5C 209.5,46.8333 209.5,45.1667 209.5,43.5C 203.167,43.5 196.833,43.5 190.5,43.5C 190.5,53.1667 190.5,62.8333 190.5,72.5C 196.833,72.5 203.167,72.5 209.5,72.5C 209.5,70.8333 209.5,69.1667 209.5,67.5C 212.833,67.5 216.167,67.5 219.5,67.5C 219.5,70.8333 219.5,74.1667 219.5,77.5C 217.833,77.5 216.167,77.5 214.5,77.5C 214.5,79.1667 214.5,80.8333 214.5,82.5C 204.833,82.5 195.167,82.5 185.5,82.5C 185.5,80.8333 185.5,79.1667 185.5,77.5C 183.833,77.5 182.167,77.5 180.5,77.5C 180.5,64.8333 180.5,52.1667 180.5,39.5C 182.167,39.5 183.833,39.5 185.5,39.5C 185.5,37.8333 185.5,36.1667 185.5,34.5 Z"/></g>
<g><path style="opacity:1" fill="#0b2239" d="M 225.5,34.5 C 228.833,34.5 232.167,34.5 235.5,34.5C 235.5,39.5 235.5,44.5 235.5,49.5C 237.5,49.5 239.5,49.5 241.5,49.5C 241.5,47.8333 241.5,46.1667 241.5,44.5C 242.833,44.5 244.167,44.5 245.5,44.5C 245.5,42.8333 245.5,41.1667 245.5,39.5C 246.833,39.5 248.167,39.5 249.5,39.5C 249.5,37.8333 249.5,36.1667 249.5,34.5C 254.5,34.5 259.5,34.5 264.5,34.5C 264.5,36.1667 264.5,37.8333 264.5,39.5C 262.833,39.5 261.167,39.5 259.5,39.5C 259.5,40.8333 259.5,42.1667 259.5,43.5C 257.833,43.5 256.167,43.5 254.5,43.5C 254.5,44.8333 254.5,46.1667 254.5,47.5C 252.833,47.5 251.167,47.5 249.5,47.5C 249.5,49.1667 249.5,50.8333 249.5,52.5C 247.833,52.5 246.167,52.5 244.5,52.5C 244.5,56.1667 244.5,59.8333 244.5,63.5C 246.167,63.5 247.833,63.5 249.5,63.5C 249.5,64.8333 249.5,66.1667 249.5,67.5C 251.167,67.5 252.833,67.5 254.5,67.5C 254.5,69.1667 254.5,70.8333 254.5,72.5C 256.167,72.5 257.833,72.5 259.5,72.5C 259.5,74.1667 259.5,75.8333 259.5,77.5C 261.167,77.5 262.833,77.5 264.5,77.5C 264.5,79.1667 264.5,80.8333 264.5,82.5C 259.5,82.5 254.5,82.5 249.5,82.5C 249.5,80.8333 249.5,79.1667 249.5,77.5C 248.167,77.5 246.833,77.5 245.5,77.5C 245.5,75.8333 245.5,74.1667 245.5,72.5C 243.833,72.5 242.167,72.5 240.5,72.5C 240.5,70.8333 240.5,69.1667 240.5,67.5C 238.833,67.5 237.167,67.5 235.5,67.5C 235.5,72.5 235.5,77.5 235.5,82.5C 232.167,82.5 228.833,82.5 225.5,82.5C 225.5,66.5 225.5,50.5 225.5,34.5 Z"/></g>
<g><path style="opacity:1" fill="#0b2239" d="M 270.5,34.5 C 283.5,34.5 296.5,34.5 309.5,34.5C 309.5,37.5 309.5,40.5 309.5,43.5C 299.833,43.5 290.167,43.5 280.5,43.5C 280.5,46.8333 280.5,50.1667 280.5,53.5C 288.5,53.5 296.5,53.5 304.5,53.5C 304.072,56.5641 303.406,59.5641 302.5,62.5C 295.167,62.5 287.833,62.5 280.5,62.5C 280.5,65.8333 280.5,69.1667 280.5,72.5C 290.167,72.5 299.833,72.5 309.5,72.5C 309.5,75.8333 309.5,79.1667 309.5,82.5C 296.5,82.5 283.5,82.5 270.5,82.5C 270.5,66.5 270.5,50.5 270.5,34.5 Z"/></g>
<g><path style="opacity:1" fill="#0b2239" d="M 315.5,34.5 C 322.167,34.5 328.833,34.5 335.5,34.5C 335.5,35.8333 335.5,37.1667 335.5,38.5C 336.833,38.5 338.167,38.5 339.5,38.5C 339.5,51.5 339.5,64.5 339.5,77.5C 341.5,77.5 343.5,77.5 345.5,77.5C 345.5,63.1667 345.5,48.8333 345.5,34.5C 348.5,34.5 351.5,34.5 354.5,34.5C 354.5,50.5 354.5,66.5 354.5,82.5C 348.167,82.5 341.833,82.5 335.5,82.5C 335.5,80.8333 335.5,79.1667 335.5,77.5C 333.833,77.5 332.167,77.5 330.5,77.5C 330.5,64.8333 330.5,52.1667 330.5,39.5C 328.833,39.5 327.167,39.5 325.5,39.5C 325.5,53.8333 325.5,68.1667 325.5,82.5C 322.167,82.5 318.833,82.5 315.5,82.5C 315.5,66.5 315.5,50.5 315.5,34.5 Z"/></g>
</svg>
