<?xml version="1.0" encoding="UTF-8"?>
<!DOCTYPE svg PUBLIC "-//W3C//DTD SVG 1.1//EN" "http://www.w3.org/Graphics/SVG/1.1/DTD/svg11.dtd">
<svg xmlns="http://www.w3.org/2000/svg" version="1.1" width="256px" height="256px" style="shape-rendering:geometricPrecision; text-rendering:geometricPrecision; image-rendering:optimizeQuality; fill-rule:evenodd; clip-rule:evenodd" xmlns:xlink="http://www.w3.org/1999/xlink">
<g><path style="opacity:1" fill="#000000" d="M 151.5,71.5 C 148.833,71.5 146.167,71.5 143.5,71.5C 135.5,71.5 127.5,71.5 119.5,71.5C 116.833,71.5 114.167,71.5 111.5,71.5C 111.5,68.8333 111.5,66.1667 111.5,63.5C 124.833,63.5 138.167,63.5 151.5,63.5C 151.5,66.1667 151.5,68.8333 151.5,71.5 Z"/></g>
<g><path style="opacity:1" fill="#000000" d="M 111.5,71.5 C 111.5,74.1667 111.5,76.8333 111.5,79.5C 106.167,79.5 100.833,79.5 95.5,79.5C 95.5,76.8333 95.5,74.1667 95.5,71.5C 100.833,71.5 106.167,71.5 111.5,71.5 Z"/></g>
<g><path style="opacity:1" fill="#cdaa84" d="M 111.5,71.5 C 114.167,71.5 116.833,71.5 119.5,71.5C 119.5,74.1667 119.5,76.8333 119.5,79.5C 116.833,79.5 114.167,79.5 111.5,79.5C 111.5,76.8333 111.5,74.1667 111.5,71.5 Z"/></g>
<g><path style="opacity:1" fill="#ecd0b2" d="M 119.5,71.5 C 127.5,71.5 135.5,71.5 143.5,71.5C 143.5,74.1667 143.5,76.8333 143.5,79.5C 135.5,79.5 127.5,79.5 119.5,79.5C 119.5,76.8333 119.5,74.1667 119.5,71.5 Z"/></g>
<g><path style="opacity:1" fill="#cdaa84" d="M 143.5,71.5 C 146.167,71.5 148.833,71.5 151.5,71.5C 151.5,74.1667 151.5,76.8333 151.5,79.5C 148.833,79.5 146.167,79.5 143.5,79.5C 143.5,76.8333 143.5,74.1667 143.5,71.5 Z"/></g>
<g><path style="opacity:1" fill="#000100" d="M 151.5,71.5 C 156.833,71.5 162.167,71.5 167.5,71.5C 167.5,74.1667 167.5,76.8333 167.5,79.5C 162.167,79.5 156.833,79.5 151.5,79.5C 151.5,76.8333 151.5,74.1667 151.5,71.5 Z"/></g>
<g><path style="opacity:1" fill="#000001" d="M 95.5,79.5 C 95.5,82.1667 95.5,84.8333 95.5,87.5C 92.8333,87.5 90.1667,87.5 87.5,87.5C 87.5,84.8333 87.5,82.1667 87.5,79.5C 90.1667,79.5 92.8333,79.5 95.5,79.5 Z"/></g>
<g><path style="opacity:1" fill="#ceaa84" d="M 95.5,79.5 C 100.833,79.5 106.167,79.5 111.5,79.5C 111.5,84.8333 111.5,90.1667 111.5,95.5C 114.167,95.5 116.833,95.5 119.5,95.5C 119.5,98.1667 119.5,100.833 119.5,103.5C 127.5,103.5 135.5,103.5 143.5,103.5C 143.5,100.833 143.5,98.1667 143.5,95.5C 146.167,95.5 148.833,95.5 151.5,95.5C 151.5,90.1667 151.5,84.8333 151.5,79.5C 156.833,79.5 162.167,79.5 167.5,79.5C 167.5,82.1667 167.5,84.8333 167.5,87.5C 170.167,87.5 172.833,87.5 175.5,87.5C 175.5,92.8333 175.5,98.1667 175.5,103.5C 175.5,106.167 175.5,108.833 175.5,111.5C 172.833,111.5 170.167,111.5 167.5,111.5C 167.5,114.167 167.5,116.833 167.5,119.5C 164.833,119.5 162.167,119.5 159.5,119.5C 159.5,124.833 159.5,130.167 159.5,135.5C 162.167,135.5 164.833,135.5 167.5,135.5C 167.5,138.167 167.5,140.833 167.5,143.5C 167.5,151.5 167.5,159.5 167.5,167.5C 162.167,167.5 156.833,167.5 151.5,167.5C 151.5,170.167 151.5,172.833 151.5,175.5C 148.833,175.5 146.167,175.5 143.5,175.5C 143.5,178.167 143.5,180.833 143.5,183.5C 135.5,183.5 127.5,183.5 119.5,183.5C 119.5,180.833 119.5,178.167 119.5,175.5C 116.833,175.5 114.167,175.5 111.5,175.5C 111.5,172.833 111.5,170.167 111.5,167.5C 106.167,167.5 100.833,167.5 95.5,167.5C 95.5,159.5 95.5,151.5 95.5,143.5C 95.5,140.833 95.5,138.167 95.5,135.5C 98.1667,135.5 100.833,135.5 103.5,135.5C 103.5,130.167 103.5,124.833 103.5,119.5C 100.833,119.5 98.1667,119.5 95.5,119.5C 95.5,116.833 95.5,114.167 95.5,111.5C 92.8333,111.5 90.1667,111.5 87.5,111.5C 87.5,108.833 87.5,106.167 87.5,103.5C 87.5,98.1667 87.5,92.8333 87.5,87.5C 90.1667,87.5 92.8333,87.5 95.5,87.5C 95.5,84.8333 95.5,82.1667 95.5,79.5 Z"/></g>
<g><path style="opacity:1" fill="#ecd1b1" d="M 111.5,79.5 C 114.167,79.5 116.833,79.5 119.5,79.5C 119.5,84.8333 119.5,90.1667 119.5,95.5C 116.833,95.5 114.167,95.5 111.5,95.5C 111.5,90.1667 111.5,84.8333 111.5,79.5 Z"/></g>
<g><path style="opacity:1" fill="#f1dece" d="M 119.5,79.5 C 127.5,79.5 135.5,79.5 143.5,79.5C 143.5,84.8333 143.5,90.1667 143.5,95.5C 135.5,95.5 127.5,95.5 119.5,95.5C 119.5,90.1667 119.5,84.8333 119.5,79.5 Z"/></g>
<g><path style="opacity:1" fill="#ecd0b1" d="M 143.5,79.5 C 146.167,79.5 148.833,79.5 151.5,79.5C 151.5,84.8333 151.5,90.1667 151.5,95.5C 148.833,95.5 146.167,95.5 143.5,95.5C 143.5,90.1667 143.5,84.8333 143.5,79.5 Z"/></g>
<g><path style="opacity:1" fill="#000100" d="M 167.5,79.5 C 170.167,79.5 172.833,79.5 175.5,79.5C 175.5,82.1667 175.5,84.8333 175.5,87.5C 175.5,84.8333 175.5,82.1667 175.5,79.5C 172.833,79.5 170.167,79.5 167.5,79.5 Z"/></g>
<g><path style="opacity:1" fill="#000000" d="M 87.5,87.5 C 87.5,92.8333 87.5,98.1667 87.5,103.5C 84.8333,103.5 82.1667,103.5 79.5,103.5C 79.5,98.1667 79.5,92.8333 79.5,87.5C 82.1667,87.5 84.8333,87.5 87.5,87.5 Z"/></g>
<g><path style="opacity:1" fill="#000000" d="M 175.5,87.5 C 178.167,87.5 180.833,87.5 183.5,87.5C 183.5,92.8333 183.5,98.1667 183.5,103.5C 180.833,103.5 178.167,103.5 175.5,103.5C 175.5,98.1667 175.5,92.8333 175.5,87.5 Z"/></g>
<g><path style="opacity:1" fill="#ecd0b2" d="M 119.5,95.5 C 127.5,95.5 135.5,95.5 143.5,95.5C 143.5,98.1667 143.5,100.833 143.5,103.5C 135.5,103.5 127.5,103.5 119.5,103.5C 119.5,100.833 119.5,98.1667 119.5,95.5 Z"/></g>
<g><path style="opacity:1" fill="#000000" d="M 79.5,103.5 C 79.5,106.167 79.5,108.833 79.5,111.5C 79.5,122.167 79.5,132.833 79.5,143.5C 76.8333,143.5 74.1667,143.5 71.5,143.5C 71.5,130.167 71.5,116.833 71.5,103.5C 74.1667,103.5 76.8333,103.5 79.5,103.5 Z"/></g>
<g><path style="opacity:1" fill="#ece2d6" d="M 79.5,103.5 C 82.1667,103.5 84.8333,103.5 87.5,103.5C 87.5,106.167 87.5,108.833 87.5,111.5C 84.8333,111.5 82.1667,111.5 79.5,111.5C 79.5,108.833 79.5,106.167 79.5,103.5 Z"/></g>
<g><path style="opacity:1" fill="#ece2d6" d="M 175.5,103.5 C 178.167,103.5 180.833,103.5 183.5,103.5C 183.5,106.167 183.5,108.833 183.5,111.5C 180.833,111.5 178.167,111.5 175.5,111.5C 175.5,108.833 175.5,106.167 175.5,103.5 Z"/></g>
<g><path style="opacity:1" fill="#000000" d="M 183.5,103.5 C 186.167,103.5 188.833,103.5 191.5,103.5C 191.5,116.833 191.5,130.167 191.5,143.5C 188.833,143.5 186.167,143.5 183.5,143.5C 183.5,132.833 183.5,122.167 183.5,111.5C 183.5,108.833 183.5,106.167 183.5,103.5 Z"/></g>
<g><path style="opacity:1" fill="#bbb2aa" d="M 79.5,111.5 C 82.1667,111.5 84.8333,111.5 87.5,111.5C 90.1667,111.5 92.8333,111.5 95.5,111.5C 95.5,114.167 95.5,116.833 95.5,119.5C 95.5,124.833 95.5,130.167 95.5,135.5C 95.5,138.167 95.5,140.833 95.5,143.5C 92.8333,143.5 90.1667,143.5 87.5,143.5C 87.5,151.5 87.5,159.5 87.5,167.5C 84.8333,167.5 82.1667,167.5 79.5,167.5C 79.5,164.833 79.5,162.167 79.5,159.5C 79.5,154.167 79.5,148.833 79.5,143.5C 79.5,132.833 79.5,122.167 79.5,111.5 Z"/></g>
<g><path style="opacity:1" fill="#ebe2d6" d="M 87.5,111.5 C 90.1667,111.5 92.8333,111.5 95.5,111.5C 95.5,114.167 95.5,116.833 95.5,119.5C 92.8333,119.5 90.1667,119.5 87.5,119.5C 87.5,116.833 87.5,114.167 87.5,111.5 Z"/></g>
<g><path style="opacity:1" fill="#ece3d5" d="M 175.5,111.5 C 175.5,114.167 175.5,116.833 175.5,119.5C 172.833,119.5 170.167,119.5 167.5,119.5C 167.5,116.833 167.5,114.167 167.5,111.5C 170.167,111.5 172.833,111.5 175.5,111.5 Z"/></g>
<g><path style="opacity:1" fill="#bab2aa" d="M 175.5,111.5 C 178.167,111.5 180.833,111.5 183.5,111.5C 183.5,122.167 183.5,132.833 183.5,143.5C 183.5,148.833 183.5,154.167 183.5,159.5C 183.5,162.167 183.5,164.833 183.5,167.5C 180.833,167.5 178.167,167.5 175.5,167.5C 175.5,159.5 175.5,151.5 175.5,143.5C 172.833,143.5 170.167,143.5 167.5,143.5C 167.5,140.833 167.5,138.167 167.5,135.5C 167.5,130.167 167.5,124.833 167.5,119.5C 170.167,119.5 172.833,119.5 175.5,119.5C 175.5,116.833 175.5,114.167 175.5,111.5 Z"/></g>
<g><path style="opacity:1" fill="#ece2d6" d="M 95.5,119.5 C 98.1667,119.5 100.833,119.5 103.5,119.5C 103.5,124.833 103.5,130.167 103.5,135.5C 100.833,135.5 98.1667,135.5 95.5,135.5C 95.5,130.167 95.5,124.833 95.5,119.5 Z"/></g>
<g><path style="opacity:1" fill="#ece2d6" d="M 167.5,119.5 C 167.5,124.833 167.5,130.167 167.5,135.5C 164.833,135.5 162.167,135.5 159.5,135.5C 159.5,130.167 159.5,124.833 159.5,119.5C 162.167,119.5 164.833,119.5 167.5,119.5 Z"/></g>
<g><path style="opacity:1" fill="#a79f9c" d="M 103.5,135.5 C 108.833,135.5 114.167,135.5 119.5,135.5C 119.5,138.167 119.5,140.833 119.5,143.5C 114.167,143.5 108.833,143.5 103.5,143.5C 103.5,140.833 103.5,138.167 103.5,135.5 Z"/></g>
<g><path style="opacity:1" fill="#a89f9c" d="M 159.5,135.5 C 159.5,138.167 159.5,140.833 159.5,143.5C 154.167,143.5 148.833,143.5 143.5,143.5C 143.5,140.833 143.5,138.167 143.5,135.5C 148.833,135.5 154.167,135.5 159.5,135.5 Z"/></g>
<g><path style="opacity:1" fill="#000000" d="M 71.5,143.5 C 71.5,148.833 71.5,154.167 71.5,159.5C 68.8333,159.5 66.1667,159.5 63.5,159.5C 63.5,154.167 63.5,148.833 63.5,143.5C 66.1667,143.5 68.8333,143.5 71.5,143.5 Z"/></g>
<g><path style="opacity:1" fill="#cea984" d="M 71.5,143.5 C 74.1667,143.5 76.8333,143.5 79.5,143.5C 79.5,148.833 79.5,154.167 79.5,159.5C 76.8333,159.5 74.1667,159.5 71.5,159.5C 71.5,154.167 71.5,148.833 71.5,143.5 Z"/></g>
<g><path style="opacity:1" fill="#bb8955" d="M 95.5,143.5 C 95.5,151.5 95.5,159.5 95.5,167.5C 92.8333,167.5 90.1667,167.5 87.5,167.5C 87.5,159.5 87.5,151.5 87.5,143.5C 90.1667,143.5 92.8333,143.5 95.5,143.5 Z"/></g>
<g><path style="opacity:1" fill="#000000" d="M 103.5,143.5 C 108.833,143.5 114.167,143.5 119.5,143.5C 119.5,146.167 119.5,148.833 119.5,151.5C 114.167,151.5 108.833,151.5 103.5,151.5C 103.5,148.833 103.5,146.167 103.5,143.5 Z"/></g>
<g><path style="opacity:1" fill="#000100" d="M 143.5,143.5 C 148.833,143.5 154.167,143.5 159.5,143.5C 159.5,146.167 159.5,148.833 159.5,151.5C 154.167,151.5 148.833,151.5 143.5,151.5C 143.5,148.833 143.5,146.167 143.5,143.5 Z"/></g>
<g><path style="opacity:1" fill="#bc8956" d="M 167.5,143.5 C 170.167,143.5 172.833,143.5 175.5,143.5C 175.5,151.5 175.5,159.5 175.5,167.5C 172.833,167.5 170.167,167.5 167.5,167.5C 167.5,159.5 167.5,151.5 167.5,143.5 Z"/></g>
<g><path style="opacity:1" fill="#cfaa84" d="M 183.5,143.5 C 186.167,143.5 188.833,143.5 191.5,143.5C 191.5,148.833 191.5,154.167 191.5,159.5C 188.833,159.5 186.167,159.5 183.5,159.5C 183.5,154.167 183.5,148.833 183.5,143.5 Z"/></g>
<g><path style="opacity:1" fill="#000001" d="M 191.5,143.5 C 194.167,143.5 196.833,143.5 199.5,143.5C 199.5,148.833 199.5,154.167 199.5,159.5C 196.833,159.5 194.167,159.5 191.5,159.5C 191.5,154.167 191.5,148.833 191.5,143.5 Z"/></g>
<g><path style="opacity:1" fill="#000100" d="M 71.5,159.5 C 74.1667,159.5 76.8333,159.5 79.5,159.5C 79.5,162.167 79.5,164.833 79.5,167.5C 76.8333,167.5 74.1667,167.5 71.5,167.5C 71.5,164.833 71.5,162.167 71.5,159.5 Z"/></g>
<g><path style="opacity:1" fill="#d74e2c" d="M 119.5,159.5 C 127.5,159.5 135.5,159.5 143.5,159.5C 143.5,162.167 143.5,164.833 143.5,167.5C 135.5,167.5 127.5,167.5 119.5,167.5C 119.5,164.833 119.5,162.167 119.5,159.5 Z"/></g>
<g><path style="opacity:1" fill="#000100" d="M 183.5,159.5 C 186.167,159.5 188.833,159.5 191.5,159.5C 191.5,162.167 191.5,164.833 191.5,167.5C 188.833,167.5 186.167,167.5 183.5,167.5C 183.5,164.833 183.5,162.167 183.5,159.5 Z"/></g>
<g><path style="opacity:1" fill="#000100" d="M 79.5,167.5 C 82.1667,167.5 84.8333,167.5 87.5,167.5C 87.5,172.833 87.5,178.167 87.5,183.5C 84.8333,183.5 82.1667,183.5 79.5,183.5C 79.5,178.167 79.5,172.833 79.5,167.5 Z"/></g>
<g><path style="opacity:1" fill="#bab2a9" d="M 87.5,167.5 C 90.1667,167.5 92.8333,167.5 95.5,167.5C 95.5,170.167 95.5,172.833 95.5,175.5C 100.833,175.5 106.167,175.5 111.5,175.5C 111.5,178.167 111.5,180.833 111.5,183.5C 103.5,183.5 95.5,183.5 87.5,183.5C 87.5,178.167 87.5,172.833 87.5,167.5 Z"/></g>
<g><path style="opacity:1" fill="#bb8955" d="M 95.5,167.5 C 100.833,167.5 106.167,167.5 111.5,167.5C 111.5,170.167 111.5,172.833 111.5,175.5C 106.167,175.5 100.833,175.5 95.5,175.5C 95.5,172.833 95.5,170.167 95.5,167.5 Z"/></g>
<g><path style="opacity:1" fill="#bc8856" d="M 167.5,167.5 C 167.5,170.167 167.5,172.833 167.5,175.5C 162.167,175.5 156.833,175.5 151.5,175.5C 151.5,172.833 151.5,170.167 151.5,167.5C 156.833,167.5 162.167,167.5 167.5,167.5 Z"/></g>
<g><path style="opacity:1" fill="#bab2aa" d="M 167.5,167.5 C 170.167,167.5 172.833,167.5 175.5,167.5C 175.5,172.833 175.5,178.167 175.5,183.5C 167.5,183.5 159.5,183.5 151.5,183.5C 151.5,180.833 151.5,178.167 151.5,175.5C 156.833,175.5 162.167,175.5 167.5,175.5C 167.5,172.833 167.5,170.167 167.5,167.5 Z"/></g>
<g><path style="opacity:1" fill="#000100" d="M 175.5,167.5 C 178.167,167.5 180.833,167.5 183.5,167.5C 183.5,172.833 183.5,178.167 183.5,183.5C 180.833,183.5 178.167,183.5 175.5,183.5C 175.5,178.167 175.5,172.833 175.5,167.5 Z"/></g>
<g><path style="opacity:1" fill="#bb8955" d="M 111.5,175.5 C 114.167,175.5 116.833,175.5 119.5,175.5C 119.5,178.167 119.5,180.833 119.5,183.5C 116.833,183.5 114.167,183.5 111.5,183.5C 111.5,180.833 111.5,178.167 111.5,175.5 Z"/></g>
<g><path style="opacity:1" fill="#bc8955" d="M 151.5,175.5 C 151.5,178.167 151.5,180.833 151.5,183.5C 148.833,183.5 146.167,183.5 143.5,183.5C 143.5,180.833 143.5,178.167 143.5,175.5C 146.167,175.5 148.833,175.5 151.5,175.5 Z"/></g>
<g><path style="opacity:1" fill="#000000" d="M 87.5,183.5 C 95.5,183.5 103.5,183.5 111.5,183.5C 111.5,186.167 111.5,188.833 111.5,191.5C 124.833,191.5 138.167,191.5 151.5,191.5C 151.5,188.833 151.5,186.167 151.5,183.5C 159.5,183.5 167.5,183.5 175.5,183.5C 175.5,186.167 175.5,188.833 175.5,191.5C 170.167,191.5 164.833,191.5 159.5,191.5C 159.5,194.167 159.5,196.833 159.5,199.5C 140.833,199.5 122.167,199.5 103.5,199.5C 103.5,196.833 103.5,194.167 103.5,191.5C 98.1667,191.5 92.8333,191.5 87.5,191.5C 87.5,188.833 87.5,186.167 87.5,183.5 Z"/></g>
<g><path style="opacity:1" fill="#bbb2aa" d="M 111.5,183.5 C 114.167,183.5 116.833,183.5 119.5,183.5C 127.5,183.5 135.5,183.5 143.5,183.5C 146.167,183.5 148.833,183.5 151.5,183.5C 151.5,186.167 151.5,188.833 151.5,191.5C 138.167,191.5 124.833,191.5 111.5,191.5C 111.5,188.833 111.5,186.167 111.5,183.5 Z"/></g>
</svg>
