<?xml version="1.0" encoding="UTF-8"?>
<svg version="1.1" xmlns="http://www.w3.org/2000/svg" width="56" height="15">
<path d="M0 0 C18.48 0 36.96 0 56 0 C56 4.95 56 9.9 56 15 C37.52 15 19.04 15 0 15 C0 10.05 0 5.1 0 0 Z " fill="#BF8644" transform="translate(0,0)"/>
<path d="M0 0 C18.48 0 36.96 0 56 0 C56 4.95 56 9.9 56 15 C37.52 15 19.04 15 0 15 C0 10.05 0 5.1 0 0 Z M2 2 C2 5.63 2 9.26 2 13 C19.16 13 36.32 13 54 13 C54 9.37 54 5.74 54 2 C36.84 2 19.68 2 2 2 Z " fill="#693B0A" transform="translate(0,0)"/>
</svg>
