<?xml version="1.0" encoding="UTF-8"?>
<!DOCTYPE svg PUBLIC "-//W3C//DTD SVG 1.1//EN" "http://www.w3.org/Graphics/SVG/1.1/DTD/svg11.dtd">
<svg xmlns="http://www.w3.org/2000/svg" version="1.1" width="216px" height="367px" style="shape-rendering:geometricPrecision; text-rendering:geometricPrecision; image-rendering:optimizeQuality; fill-rule:evenodd; clip-rule:evenodd" xmlns:xlink="http://www.w3.org/1999/xlink">
<g><path style="opacity:1" fill="#4f7f3c" d="M 113.5,36.5 C 111.167,36.5 108.833,36.5 106.5,36.5C 106.5,31.1667 106.5,25.8333 106.5,20.5C 108.833,20.5 111.167,20.5 113.5,20.5C 113.5,25.8333 113.5,31.1667 113.5,36.5 Z"/></g>
<g><path style="opacity:1" fill="#4f7f3c" d="M 106.5,36.5 C 106.5,41.8333 106.5,47.1667 106.5,52.5C 103.833,52.5 101.167,52.5 98.5,52.5C 98.5,47.1667 98.5,41.8333 98.5,36.5C 101.167,36.5 103.833,36.5 106.5,36.5 Z"/></g>
<g><path style="opacity:1" fill="#8cc740" d="M 106.5,36.5 C 108.833,36.5 111.167,36.5 113.5,36.5C 113.5,41.8333 113.5,47.1667 113.5,52.5C 116.167,52.5 118.833,52.5 121.5,52.5C 121.5,63.1667 121.5,73.8333 121.5,84.5C 118.833,84.5 116.167,84.5 113.5,84.5C 113.5,89.8333 113.5,95.1667 113.5,100.5C 110.833,100.5 108.167,100.5 105.5,100.5C 105.5,95.1667 105.5,89.8333 105.5,84.5C 103.167,84.5 100.833,84.5 98.5,84.5C 98.5,73.8333 98.5,63.1667 98.5,52.5C 101.167,52.5 103.833,52.5 106.5,52.5C 106.5,47.1667 106.5,41.8333 106.5,36.5 Z"/></g>
<g><path style="opacity:1" fill="#4f7f3c" d="M 113.5,36.5 C 116.167,36.5 118.833,36.5 121.5,36.5C 121.5,41.8333 121.5,47.1667 121.5,52.5C 118.833,52.5 116.167,52.5 113.5,52.5C 113.5,47.1667 113.5,41.8333 113.5,36.5 Z"/></g>
<g><path style="opacity:1" fill="#4f7f3c" d="M 98.5,52.5 C 98.5,63.1667 98.5,73.8333 98.5,84.5C 100.833,84.5 103.167,84.5 105.5,84.5C 105.5,89.8333 105.5,95.1667 105.5,100.5C 102.833,100.5 100.167,100.5 97.5,100.5C 97.5,95.1667 97.5,89.8333 97.5,84.5C 95.1667,84.5 92.8333,84.5 90.5,84.5C 90.5,81.8333 90.5,79.1667 90.5,76.5C 87.8333,76.5 85.1667,76.5 82.5,76.5C 82.5,73.8333 82.5,71.1667 82.5,68.5C 85.1667,68.5 87.8333,68.5 90.5,68.5C 90.5,63.1667 90.5,57.8333 90.5,52.5C 93.1667,52.5 95.8333,52.5 98.5,52.5 Z"/></g>
<g><path style="opacity:1" fill="#4f7f3c" d="M 121.5,52.5 C 124.167,52.5 126.833,52.5 129.5,52.5C 129.5,57.8333 129.5,63.1667 129.5,68.5C 132.167,68.5 134.833,68.5 137.5,68.5C 137.5,71.1667 137.5,73.8333 137.5,76.5C 134.833,76.5 132.167,76.5 129.5,76.5C 129.5,79.1667 129.5,81.8333 129.5,84.5C 126.833,84.5 124.167,84.5 121.5,84.5C 121.5,73.8333 121.5,63.1667 121.5,52.5 Z"/></g>
<g><path style="opacity:1" fill="#4f7f3c" d="M 82.5,68.5 C 71.8333,68.5 61.1667,68.5 50.5,68.5C 50.5,71.1667 50.5,73.8333 50.5,76.5C 47.8333,76.5 45.1667,76.5 42.5,76.5C 42.5,73.8333 42.5,71.1667 42.5,68.5C 39.8333,68.5 37.1667,68.5 34.5,68.5C 34.5,65.8333 34.5,63.1667 34.5,60.5C 50.5,60.5 66.5,60.5 82.5,60.5C 82.5,63.1667 82.5,65.8333 82.5,68.5 Z"/></g>
<g><path style="opacity:1" fill="#4f7f3c" d="M 169.5,76.5 C 169.5,73.8333 169.5,71.1667 169.5,68.5C 158.833,68.5 148.167,68.5 137.5,68.5C 137.5,65.8333 137.5,63.1667 137.5,60.5C 153.5,60.5 169.5,60.5 185.5,60.5C 185.5,63.1667 185.5,65.8333 185.5,68.5C 182.833,68.5 180.167,68.5 177.5,68.5C 177.5,71.1667 177.5,73.8333 177.5,76.5C 174.833,76.5 172.167,76.5 169.5,76.5 Z"/></g>
<g><path style="opacity:1" fill="#8cc740" d="M 82.5,68.5 C 82.5,71.1667 82.5,73.8333 82.5,76.5C 85.1667,76.5 87.8333,76.5 90.5,76.5C 90.5,79.1667 90.5,81.8333 90.5,84.5C 92.8333,84.5 95.1667,84.5 97.5,84.5C 97.5,89.8333 97.5,95.1667 97.5,100.5C 100.167,100.5 102.833,100.5 105.5,100.5C 105.5,103.167 105.5,105.833 105.5,108.5C 108.167,108.5 110.833,108.5 113.5,108.5C 113.5,105.833 113.5,103.167 113.5,100.5C 116.167,100.5 118.833,100.5 121.5,100.5C 121.5,95.1667 121.5,89.8333 121.5,84.5C 124.167,84.5 126.833,84.5 129.5,84.5C 129.5,81.8333 129.5,79.1667 129.5,76.5C 132.167,76.5 134.833,76.5 137.5,76.5C 137.5,73.8333 137.5,71.1667 137.5,68.5C 148.167,68.5 158.833,68.5 169.5,68.5C 169.5,71.1667 169.5,73.8333 169.5,76.5C 166.833,76.5 164.167,76.5 161.5,76.5C 161.5,79.1667 161.5,81.8333 161.5,84.5C 158.833,84.5 156.167,84.5 153.5,84.5C 153.5,87.1667 153.5,89.8333 153.5,92.5C 150.833,92.5 148.167,92.5 145.5,92.5C 145.5,95.1667 145.5,97.8333 145.5,100.5C 142.833,100.5 140.167,100.5 137.5,100.5C 137.5,103.167 137.5,105.833 137.5,108.5C 132.167,108.5 126.833,108.5 121.5,108.5C 121.5,111.167 121.5,113.833 121.5,116.5C 118.833,116.5 116.167,116.5 113.5,116.5C 113.5,121.833 113.5,127.167 113.5,132.5C 110.833,132.5 108.167,132.5 105.5,132.5C 105.5,127.167 105.5,121.833 105.5,116.5C 102.833,116.5 100.167,116.5 97.5,116.5C 97.5,113.833 97.5,111.167 97.5,108.5C 92.5,108.5 87.5,108.5 82.5,108.5C 82.5,105.833 82.5,103.167 82.5,100.5C 79.8333,100.5 77.1667,100.5 74.5,100.5C 74.5,97.8333 74.5,95.1667 74.5,92.5C 71.8333,92.5 69.1667,92.5 66.5,92.5C 66.5,89.8333 66.5,87.1667 66.5,84.5C 63.8333,84.5 61.1667,84.5 58.5,84.5C 58.5,81.8333 58.5,79.1667 58.5,76.5C 55.8333,76.5 53.1667,76.5 50.5,76.5C 50.5,73.8333 50.5,71.1667 50.5,68.5C 61.1667,68.5 71.8333,68.5 82.5,68.5 Z"/></g>
<g><path style="opacity:1" fill="#4f7f3c" d="M 50.5,76.5 C 53.1667,76.5 55.8333,76.5 58.5,76.5C 58.5,79.1667 58.5,81.8333 58.5,84.5C 55.8333,84.5 53.1667,84.5 50.5,84.5C 50.5,81.8333 50.5,79.1667 50.5,76.5 Z"/></g>
<g><path style="opacity:1" fill="#4f7f3c" d="M 169.5,76.5 C 169.5,79.1667 169.5,81.8333 169.5,84.5C 166.833,84.5 164.167,84.5 161.5,84.5C 161.5,81.8333 161.5,79.1667 161.5,76.5C 164.167,76.5 166.833,76.5 169.5,76.5 Z"/></g>
<g><path style="opacity:1" fill="#4f7f3c" d="M 58.5,84.5 C 61.1667,84.5 63.8333,84.5 66.5,84.5C 66.5,87.1667 66.5,89.8333 66.5,92.5C 63.8333,92.5 61.1667,92.5 58.5,92.5C 58.5,89.8333 58.5,87.1667 58.5,84.5 Z"/></g>
<g><path style="opacity:1" fill="#4f7f3c" d="M 121.5,84.5 C 121.5,89.8333 121.5,95.1667 121.5,100.5C 118.833,100.5 116.167,100.5 113.5,100.5C 113.5,95.1667 113.5,89.8333 113.5,84.5C 116.167,84.5 118.833,84.5 121.5,84.5 Z"/></g>
<g><path style="opacity:1" fill="#4f7f3c" d="M 161.5,84.5 C 161.5,87.1667 161.5,89.8333 161.5,92.5C 158.833,92.5 156.167,92.5 153.5,92.5C 153.5,89.8333 153.5,87.1667 153.5,84.5C 156.167,84.5 158.833,84.5 161.5,84.5 Z"/></g>
<g><path style="opacity:1" fill="#4f7f3c" d="M 66.5,92.5 C 69.1667,92.5 71.8333,92.5 74.5,92.5C 74.5,95.1667 74.5,97.8333 74.5,100.5C 77.1667,100.5 79.8333,100.5 82.5,100.5C 82.5,103.167 82.5,105.833 82.5,108.5C 87.5,108.5 92.5,108.5 97.5,108.5C 97.5,111.167 97.5,113.833 97.5,116.5C 92.1667,116.5 86.8333,116.5 81.5,116.5C 81.5,113.833 81.5,111.167 81.5,108.5C 71.1667,108.5 60.8333,108.5 50.5,108.5C 50.5,111.167 50.5,113.833 50.5,116.5C 47.8333,116.5 45.1667,116.5 42.5,116.5C 42.5,113.833 42.5,111.167 42.5,108.5C 39.8333,108.5 37.1667,108.5 34.5,108.5C 34.5,105.833 34.5,103.167 34.5,100.5C 45.1667,100.5 55.8333,100.5 66.5,100.5C 66.5,97.8333 66.5,95.1667 66.5,92.5 Z"/></g>
<g><path style="opacity:1" fill="#4f7f3c" d="M 153.5,92.5 C 153.5,95.1667 153.5,97.8333 153.5,100.5C 164.167,100.5 174.833,100.5 185.5,100.5C 185.5,103.167 185.5,105.833 185.5,108.5C 182.833,108.5 180.167,108.5 177.5,108.5C 177.5,111.167 177.5,113.833 177.5,116.5C 174.833,116.5 172.167,116.5 169.5,116.5C 169.5,113.833 169.5,111.167 169.5,108.5C 158.833,108.5 148.167,108.5 137.5,108.5C 137.5,105.833 137.5,103.167 137.5,100.5C 140.167,100.5 142.833,100.5 145.5,100.5C 145.5,97.8333 145.5,95.1667 145.5,92.5C 148.167,92.5 150.833,92.5 153.5,92.5 Z"/></g>
<g><path style="opacity:1" fill="#4f7f3c" d="M 105.5,100.5 C 108.167,100.5 110.833,100.5 113.5,100.5C 113.5,103.167 113.5,105.833 113.5,108.5C 110.833,108.5 108.167,108.5 105.5,108.5C 105.5,105.833 105.5,103.167 105.5,100.5 Z"/></g>
<g><path style="opacity:1" fill="#8dc641" d="M 97.5,116.5 C 97.5,121.833 97.5,127.167 97.5,132.5C 100.167,132.5 102.833,132.5 105.5,132.5C 105.5,137.833 105.5,143.167 105.5,148.5C 102.833,148.5 100.167,148.5 97.5,148.5C 97.5,145.833 97.5,143.167 97.5,140.5C 89.8333,140.5 82.1667,140.5 74.5,140.5C 74.5,137.833 74.5,135.167 74.5,132.5C 71.8333,132.5 69.1667,132.5 66.5,132.5C 66.5,129.833 66.5,127.167 66.5,124.5C 63.8333,124.5 61.1667,124.5 58.5,124.5C 58.5,121.833 58.5,119.167 58.5,116.5C 55.8333,116.5 53.1667,116.5 50.5,116.5C 50.5,113.833 50.5,111.167 50.5,108.5C 60.8333,108.5 71.1667,108.5 81.5,108.5C 81.5,111.167 81.5,113.833 81.5,116.5C 86.8333,116.5 92.1667,116.5 97.5,116.5 Z"/></g>
<g><path style="opacity:1" fill="#4f7f3c" d="M 137.5,108.5 C 137.5,111.167 137.5,113.833 137.5,116.5C 132.167,116.5 126.833,116.5 121.5,116.5C 121.5,113.833 121.5,111.167 121.5,108.5C 126.833,108.5 132.167,108.5 137.5,108.5 Z"/></g>
<g><path style="opacity:1" fill="#8dc641" d="M 137.5,108.5 C 148.167,108.5 158.833,108.5 169.5,108.5C 169.5,111.167 169.5,113.833 169.5,116.5C 166.833,116.5 164.167,116.5 161.5,116.5C 161.5,119.167 161.5,121.833 161.5,124.5C 158.833,124.5 156.167,124.5 153.5,124.5C 153.5,127.167 153.5,129.833 153.5,132.5C 150.833,132.5 148.167,132.5 145.5,132.5C 145.5,135.167 145.5,137.833 145.5,140.5C 137.5,140.5 129.5,140.5 121.5,140.5C 121.5,143.167 121.5,145.833 121.5,148.5C 118.833,148.5 116.167,148.5 113.5,148.5C 113.5,143.167 113.5,137.833 113.5,132.5C 116.167,132.5 118.833,132.5 121.5,132.5C 121.5,127.167 121.5,121.833 121.5,116.5C 126.833,116.5 132.167,116.5 137.5,116.5C 137.5,113.833 137.5,111.167 137.5,108.5 Z"/></g>
<g><path style="opacity:1" fill="#4f7f3c" d="M 50.5,116.5 C 53.1667,116.5 55.8333,116.5 58.5,116.5C 58.5,119.167 58.5,121.833 58.5,124.5C 55.8333,124.5 53.1667,124.5 50.5,124.5C 50.5,121.833 50.5,119.167 50.5,116.5 Z"/></g>
<g><path style="opacity:1" fill="#4f7f3c" d="M 97.5,116.5 C 100.167,116.5 102.833,116.5 105.5,116.5C 105.5,121.833 105.5,127.167 105.5,132.5C 102.833,132.5 100.167,132.5 97.5,132.5C 97.5,127.167 97.5,121.833 97.5,116.5 Z"/></g>
<g><path style="opacity:1" fill="#4f7f3c" d="M 121.5,116.5 C 121.5,121.833 121.5,127.167 121.5,132.5C 118.833,132.5 116.167,132.5 113.5,132.5C 113.5,127.167 113.5,121.833 113.5,116.5C 116.167,116.5 118.833,116.5 121.5,116.5 Z"/></g>
<g><path style="opacity:1" fill="#4f7f3c" d="M 169.5,116.5 C 169.5,119.167 169.5,121.833 169.5,124.5C 166.833,124.5 164.167,124.5 161.5,124.5C 161.5,121.833 161.5,119.167 161.5,116.5C 164.167,116.5 166.833,116.5 169.5,116.5 Z"/></g>
<g><path style="opacity:1" fill="#4f7f3c" d="M 58.5,124.5 C 61.1667,124.5 63.8333,124.5 66.5,124.5C 66.5,127.167 66.5,129.833 66.5,132.5C 63.8333,132.5 61.1667,132.5 58.5,132.5C 58.5,129.833 58.5,127.167 58.5,124.5 Z"/></g>
<g><path style="opacity:1" fill="#4f7f3c" d="M 161.5,124.5 C 161.5,127.167 161.5,129.833 161.5,132.5C 158.833,132.5 156.167,132.5 153.5,132.5C 153.5,129.833 153.5,127.167 153.5,124.5C 156.167,124.5 158.833,124.5 161.5,124.5 Z"/></g>
<g><path style="opacity:1" fill="#4f7f3c" d="M 66.5,132.5 C 69.1667,132.5 71.8333,132.5 74.5,132.5C 74.5,135.167 74.5,137.833 74.5,140.5C 71.8333,140.5 69.1667,140.5 66.5,140.5C 66.5,137.833 66.5,135.167 66.5,132.5 Z"/></g>
<g><path style="opacity:1" fill="#4f7f3c" d="M 105.5,132.5 C 108.167,132.5 110.833,132.5 113.5,132.5C 113.5,137.833 113.5,143.167 113.5,148.5C 110.833,148.5 108.167,148.5 105.5,148.5C 105.5,143.167 105.5,137.833 105.5,132.5 Z"/></g>
<g><path style="opacity:1" fill="#4f7f3c" d="M 153.5,132.5 C 153.5,135.167 153.5,137.833 153.5,140.5C 150.833,140.5 148.167,140.5 145.5,140.5C 145.5,137.833 145.5,135.167 145.5,132.5C 148.167,132.5 150.833,132.5 153.5,132.5 Z"/></g>
<g><path style="opacity:1" fill="#4f7f3c" d="M 74.5,140.5 C 82.1667,140.5 89.8333,140.5 97.5,140.5C 97.5,143.167 97.5,145.833 97.5,148.5C 89.8333,148.5 82.1667,148.5 74.5,148.5C 74.5,145.833 74.5,143.167 74.5,140.5 Z"/></g>
<g><path style="opacity:1" fill="#4f7f3c" d="M 145.5,140.5 C 145.5,143.167 145.5,145.833 145.5,148.5C 137.5,148.5 129.5,148.5 121.5,148.5C 121.5,145.833 121.5,143.167 121.5,140.5C 129.5,140.5 137.5,140.5 145.5,140.5 Z"/></g>
<g><path style="opacity:1" fill="#f6b542" d="M 74.5,148.5 C 74.5,151.167 74.5,153.833 74.5,156.5C 71.8333,156.5 69.1667,156.5 66.5,156.5C 66.5,153.833 66.5,151.167 66.5,148.5C 69.1667,148.5 71.8333,148.5 74.5,148.5 Z"/></g>
<g><path style="opacity:1" fill="#fae04b" d="M 74.5,148.5 C 82.1667,148.5 89.8333,148.5 97.5,148.5C 97.5,151.167 97.5,153.833 97.5,156.5C 95.1667,156.5 92.8333,156.5 90.5,156.5C 90.5,159.167 90.5,161.833 90.5,164.5C 87.8333,164.5 85.1667,164.5 82.5,164.5C 82.5,161.833 82.5,159.167 82.5,156.5C 79.8333,156.5 77.1667,156.5 74.5,156.5C 74.5,153.833 74.5,151.167 74.5,148.5 Z"/></g>
<g><path style="opacity:1" fill="#f6b542" d="M 97.5,148.5 C 100.167,148.5 102.833,148.5 105.5,148.5C 105.5,151.167 105.5,153.833 105.5,156.5C 103.167,156.5 100.833,156.5 98.5,156.5C 98.5,159.167 98.5,161.833 98.5,164.5C 95.8333,164.5 93.1667,164.5 90.5,164.5C 90.5,161.833 90.5,159.167 90.5,156.5C 92.8333,156.5 95.1667,156.5 97.5,156.5C 97.5,153.833 97.5,151.167 97.5,148.5 Z"/></g>
<g><path style="opacity:1" fill="#fae04b" d="M 105.5,148.5 C 108.167,148.5 110.833,148.5 113.5,148.5C 113.5,151.167 113.5,153.833 113.5,156.5C 116.167,156.5 118.833,156.5 121.5,156.5C 121.5,159.167 121.5,161.833 121.5,164.5C 124.167,164.5 126.833,164.5 129.5,164.5C 129.5,167.167 129.5,169.833 129.5,172.5C 126.833,172.5 124.167,172.5 121.5,172.5C 121.5,175.167 121.5,177.833 121.5,180.5C 118.833,180.5 116.167,180.5 113.5,180.5C 113.5,183.167 113.5,185.833 113.5,188.5C 111.167,188.5 108.833,188.5 106.5,188.5C 106.5,185.833 106.5,183.167 106.5,180.5C 103.833,180.5 101.167,180.5 98.5,180.5C 98.5,177.833 98.5,175.167 98.5,172.5C 95.8333,172.5 93.1667,172.5 90.5,172.5C 90.5,169.833 90.5,167.167 90.5,164.5C 93.1667,164.5 95.8333,164.5 98.5,164.5C 98.5,161.833 98.5,159.167 98.5,156.5C 100.833,156.5 103.167,156.5 105.5,156.5C 105.5,153.833 105.5,151.167 105.5,148.5 Z"/></g>
<g><path style="opacity:1" fill="#f6b542" d="M 113.5,148.5 C 116.167,148.5 118.833,148.5 121.5,148.5C 121.5,151.167 121.5,153.833 121.5,156.5C 118.833,156.5 116.167,156.5 113.5,156.5C 113.5,153.833 113.5,151.167 113.5,148.5 Z"/></g>
<g><path style="opacity:1" fill="#fae04b" d="M 121.5,148.5 C 129.5,148.5 137.5,148.5 145.5,148.5C 145.5,151.167 145.5,153.833 145.5,156.5C 142.833,156.5 140.167,156.5 137.5,156.5C 137.5,159.167 137.5,161.833 137.5,164.5C 134.833,164.5 132.167,164.5 129.5,164.5C 126.833,164.5 124.167,164.5 121.5,164.5C 121.5,161.833 121.5,159.167 121.5,156.5C 121.5,153.833 121.5,151.167 121.5,148.5 Z"/></g>
<g><path style="opacity:1" fill="#f6b542" d="M 145.5,148.5 C 148.167,148.5 150.833,148.5 153.5,148.5C 153.5,151.167 153.5,153.833 153.5,156.5C 150.833,156.5 148.167,156.5 145.5,156.5C 145.5,153.833 145.5,151.167 145.5,148.5 Z"/></g>
<g><path style="opacity:1" fill="#f6b542" d="M 66.5,156.5 C 66.5,159.167 66.5,161.833 66.5,164.5C 63.8333,164.5 61.1667,164.5 58.5,164.5C 58.5,161.833 58.5,159.167 58.5,156.5C 61.1667,156.5 63.8333,156.5 66.5,156.5 Z"/></g>
<g><path style="opacity:1" fill="#fae04b" d="M 66.5,156.5 C 69.1667,156.5 71.8333,156.5 74.5,156.5C 77.1667,156.5 79.8333,156.5 82.5,156.5C 82.5,159.167 82.5,161.833 82.5,164.5C 82.5,167.167 82.5,169.833 82.5,172.5C 79.8333,172.5 77.1667,172.5 74.5,172.5C 74.5,175.167 74.5,177.833 74.5,180.5C 71.8333,180.5 69.1667,180.5 66.5,180.5C 66.5,183.167 66.5,185.833 66.5,188.5C 63.8333,188.5 61.1667,188.5 58.5,188.5C 58.5,185.833 58.5,183.167 58.5,180.5C 55.8333,180.5 53.1667,180.5 50.5,180.5C 50.5,177.833 50.5,175.167 50.5,172.5C 53.1667,172.5 55.8333,172.5 58.5,172.5C 58.5,169.833 58.5,167.167 58.5,164.5C 61.1667,164.5 63.8333,164.5 66.5,164.5C 66.5,161.833 66.5,159.167 66.5,156.5 Z"/></g>
<g><path style="opacity:1" fill="#f6b542" d="M 74.5,156.5 C 77.1667,156.5 79.8333,156.5 82.5,156.5C 82.5,159.167 82.5,161.833 82.5,164.5C 79.8333,164.5 77.1667,164.5 74.5,164.5C 74.5,161.833 74.5,159.167 74.5,156.5 Z"/></g>
<g><path style="opacity:1" fill="#f6b542" d="M 121.5,156.5 C 124.167,156.5 126.833,156.5 129.5,156.5C 129.5,159.167 129.5,161.833 129.5,164.5C 129.5,161.833 129.5,159.167 129.5,156.5C 126.833,156.5 124.167,156.5 121.5,156.5 Z"/></g>
<g><path style="opacity:1" fill="#f6b542" d="M 145.5,156.5 C 145.5,159.167 145.5,161.833 145.5,164.5C 142.833,164.5 140.167,164.5 137.5,164.5C 137.5,161.833 137.5,159.167 137.5,156.5C 140.167,156.5 142.833,156.5 145.5,156.5 Z"/></g>
<g><path style="opacity:1" fill="#fae04b" d="M 145.5,156.5 C 148.167,156.5 150.833,156.5 153.5,156.5C 153.5,159.167 153.5,161.833 153.5,164.5C 156.167,164.5 158.833,164.5 161.5,164.5C 161.5,167.167 161.5,169.833 161.5,172.5C 164.167,172.5 166.833,172.5 169.5,172.5C 169.5,175.167 169.5,177.833 169.5,180.5C 166.833,180.5 164.167,180.5 161.5,180.5C 161.5,183.167 161.5,185.833 161.5,188.5C 158.833,188.5 156.167,188.5 153.5,188.5C 153.5,185.833 153.5,183.167 153.5,180.5C 150.833,180.5 148.167,180.5 145.5,180.5C 145.5,177.833 145.5,175.167 145.5,172.5C 142.833,172.5 140.167,172.5 137.5,172.5C 137.5,169.833 137.5,167.167 137.5,164.5C 140.167,164.5 142.833,164.5 145.5,164.5C 145.5,161.833 145.5,159.167 145.5,156.5 Z"/></g>
<g><path style="opacity:1" fill="#f6b542" d="M 153.5,156.5 C 156.167,156.5 158.833,156.5 161.5,156.5C 161.5,159.167 161.5,161.833 161.5,164.5C 161.5,161.833 161.5,159.167 161.5,156.5C 158.833,156.5 156.167,156.5 153.5,156.5 Z"/></g>
<g><path style="opacity:1" fill="#f6b542" d="M 58.5,164.5 C 58.5,167.167 58.5,169.833 58.5,172.5C 55.8333,172.5 53.1667,172.5 50.5,172.5C 50.5,169.833 50.5,167.167 50.5,164.5C 53.1667,164.5 55.8333,164.5 58.5,164.5 Z"/></g>
<g><path style="opacity:1" fill="#f6b542" d="M 82.5,164.5 C 85.1667,164.5 87.8333,164.5 90.5,164.5C 90.5,167.167 90.5,169.833 90.5,172.5C 87.8333,172.5 85.1667,172.5 82.5,172.5C 82.5,169.833 82.5,167.167 82.5,164.5 Z"/></g>
<g><path style="opacity:1" fill="#f6b542" d="M 129.5,164.5 C 132.167,164.5 134.833,164.5 137.5,164.5C 137.5,167.167 137.5,169.833 137.5,172.5C 134.833,172.5 132.167,172.5 129.5,172.5C 129.5,169.833 129.5,167.167 129.5,164.5 Z"/></g>
<g><path style="opacity:1" fill="#f6b542" d="M 161.5,164.5 C 164.167,164.5 166.833,164.5 169.5,164.5C 169.5,167.167 169.5,169.833 169.5,172.5C 169.5,169.833 169.5,167.167 169.5,164.5C 166.833,164.5 164.167,164.5 161.5,164.5 Z"/></g>
<g><path style="opacity:1" fill="#f6b542" d="M 105.5,165.5 C 108.167,165.5 110.833,165.5 113.5,165.5C 113.5,168.167 113.5,170.833 113.5,173.5C 110.833,173.5 108.167,173.5 105.5,173.5C 105.5,170.833 105.5,168.167 105.5,165.5 Z"/></g>
<g><path style="opacity:1" fill="#f6b542" d="M 50.5,172.5 C 50.5,175.167 50.5,177.833 50.5,180.5C 53.1667,180.5 55.8333,180.5 58.5,180.5C 58.5,183.167 58.5,185.833 58.5,188.5C 53.1667,188.5 47.8333,188.5 42.5,188.5C 42.5,183.167 42.5,177.833 42.5,172.5C 45.1667,172.5 47.8333,172.5 50.5,172.5 Z"/></g>
<g><path style="opacity:1" fill="#f6b542" d="M 82.5,172.5 C 82.5,175.167 82.5,177.833 82.5,180.5C 79.8333,180.5 77.1667,180.5 74.5,180.5C 74.5,177.833 74.5,175.167 74.5,172.5C 77.1667,172.5 79.8333,172.5 82.5,172.5 Z"/></g>
<g><path style="opacity:1" fill="#fae04b" d="M 82.5,172.5 C 85.1667,172.5 87.8333,172.5 90.5,172.5C 93.1667,172.5 95.8333,172.5 98.5,172.5C 98.5,175.167 98.5,177.833 98.5,180.5C 98.5,183.167 98.5,185.833 98.5,188.5C 100.833,188.5 103.167,188.5 105.5,188.5C 105.5,191.167 105.5,193.833 105.5,196.5C 102.833,196.5 100.167,196.5 97.5,196.5C 97.5,199.167 97.5,201.833 97.5,204.5C 94.8333,204.5 92.1667,204.5 89.5,204.5C 89.5,207.167 89.5,209.833 89.5,212.5C 86.8333,212.5 84.1667,212.5 81.5,212.5C 81.5,209.833 81.5,207.167 81.5,204.5C 78.8333,204.5 76.1667,204.5 73.5,204.5C 73.5,201.833 73.5,199.167 73.5,196.5C 71.1667,196.5 68.8333,196.5 66.5,196.5C 66.5,193.833 66.5,191.167 66.5,188.5C 69.1667,188.5 71.8333,188.5 74.5,188.5C 74.5,185.833 74.5,183.167 74.5,180.5C 77.1667,180.5 79.8333,180.5 82.5,180.5C 82.5,177.833 82.5,175.167 82.5,172.5 Z"/></g>
<g><path style="opacity:1" fill="#f6b542" d="M 90.5,172.5 C 93.1667,172.5 95.8333,172.5 98.5,172.5C 98.5,175.167 98.5,177.833 98.5,180.5C 95.8333,180.5 93.1667,180.5 90.5,180.5C 90.5,177.833 90.5,175.167 90.5,172.5 Z"/></g>
<g><path style="opacity:1" fill="#f6b542" d="M 129.5,172.5 C 129.5,175.167 129.5,177.833 129.5,180.5C 126.833,180.5 124.167,180.5 121.5,180.5C 121.5,177.833 121.5,175.167 121.5,172.5C 124.167,172.5 126.833,172.5 129.5,172.5 Z"/></g>
<g><path style="opacity:1" fill="#fae04b" d="M 129.5,172.5 C 132.167,172.5 134.833,172.5 137.5,172.5C 140.167,172.5 142.833,172.5 145.5,172.5C 145.5,175.167 145.5,177.833 145.5,180.5C 148.167,180.5 150.833,180.5 153.5,180.5C 153.5,183.167 153.5,185.833 153.5,188.5C 153.5,191.167 153.5,193.833 153.5,196.5C 150.833,196.5 148.167,196.5 145.5,196.5C 145.5,199.167 145.5,201.833 145.5,204.5C 142.833,204.5 140.167,204.5 137.5,204.5C 137.5,207.167 137.5,209.833 137.5,212.5C 134.833,212.5 132.167,212.5 129.5,212.5C 129.5,209.833 129.5,207.167 129.5,204.5C 126.833,204.5 124.167,204.5 121.5,204.5C 121.5,201.833 121.5,199.167 121.5,196.5C 118.833,196.5 116.167,196.5 113.5,196.5C 113.5,193.833 113.5,191.167 113.5,188.5C 116.167,188.5 118.833,188.5 121.5,188.5C 121.5,185.833 121.5,183.167 121.5,180.5C 124.167,180.5 126.833,180.5 129.5,180.5C 129.5,177.833 129.5,175.167 129.5,172.5 Z"/></g>
<g><path style="opacity:1" fill="#f6b542" d="M 137.5,172.5 C 140.167,172.5 142.833,172.5 145.5,172.5C 145.5,175.167 145.5,177.833 145.5,180.5C 142.833,180.5 140.167,180.5 137.5,180.5C 137.5,177.833 137.5,175.167 137.5,172.5 Z"/></g>
<g><path style="opacity:1" fill="#f6b542" d="M 169.5,172.5 C 172.167,172.5 174.833,172.5 177.5,172.5C 177.5,177.833 177.5,183.167 177.5,188.5C 172.167,188.5 166.833,188.5 161.5,188.5C 161.5,185.833 161.5,183.167 161.5,180.5C 164.167,180.5 166.833,180.5 169.5,180.5C 169.5,177.833 169.5,175.167 169.5,172.5 Z"/></g>
<g><path style="opacity:1" fill="#f6b542" d="M 74.5,180.5 C 74.5,183.167 74.5,185.833 74.5,188.5C 71.8333,188.5 69.1667,188.5 66.5,188.5C 66.5,185.833 66.5,183.167 66.5,180.5C 69.1667,180.5 71.8333,180.5 74.5,180.5 Z"/></g>
<g><path style="opacity:1" fill="#f6b542" d="M 98.5,180.5 C 101.167,180.5 103.833,180.5 106.5,180.5C 106.5,183.167 106.5,185.833 106.5,188.5C 108.833,188.5 111.167,188.5 113.5,188.5C 113.5,191.167 113.5,193.833 113.5,196.5C 110.833,196.5 108.167,196.5 105.5,196.5C 105.5,193.833 105.5,191.167 105.5,188.5C 103.167,188.5 100.833,188.5 98.5,188.5C 98.5,185.833 98.5,183.167 98.5,180.5 Z"/></g>
<g><path style="opacity:1" fill="#f6b542" d="M 121.5,180.5 C 121.5,183.167 121.5,185.833 121.5,188.5C 118.833,188.5 116.167,188.5 113.5,188.5C 113.5,185.833 113.5,183.167 113.5,180.5C 116.167,180.5 118.833,180.5 121.5,180.5 Z"/></g>
<g><path style="opacity:1" fill="#f6b542" d="M 145.5,180.5 C 148.167,180.5 150.833,180.5 153.5,180.5C 153.5,183.167 153.5,185.833 153.5,188.5C 150.833,188.5 148.167,188.5 145.5,188.5C 145.5,185.833 145.5,183.167 145.5,180.5 Z"/></g>
<g><path style="opacity:1" fill="#f6b542" d="M 42.5,188.5 C 42.5,193.833 42.5,199.167 42.5,204.5C 39.8333,204.5 37.1667,204.5 34.5,204.5C 34.5,199.167 34.5,193.833 34.5,188.5C 37.1667,188.5 39.8333,188.5 42.5,188.5 Z"/></g>
<g><path style="opacity:1" fill="#fae04b" d="M 42.5,188.5 C 47.8333,188.5 53.1667,188.5 58.5,188.5C 58.5,191.167 58.5,193.833 58.5,196.5C 55.8333,196.5 53.1667,196.5 50.5,196.5C 50.5,199.167 50.5,201.833 50.5,204.5C 47.8333,204.5 45.1667,204.5 42.5,204.5C 42.5,199.167 42.5,193.833 42.5,188.5 Z"/></g>
<g><path style="opacity:1" fill="#f6b542" d="M 58.5,188.5 C 61.1667,188.5 63.8333,188.5 66.5,188.5C 66.5,191.167 66.5,193.833 66.5,196.5C 68.8333,196.5 71.1667,196.5 73.5,196.5C 73.5,199.167 73.5,201.833 73.5,204.5C 70.8333,204.5 68.1667,204.5 65.5,204.5C 65.5,201.833 65.5,199.167 65.5,196.5C 63.1667,196.5 60.8333,196.5 58.5,196.5C 58.5,193.833 58.5,191.167 58.5,188.5 Z"/></g>
<g><path style="opacity:1" fill="#f6b542" d="M 80.5,188.5 C 83.1667,188.5 85.8333,188.5 88.5,188.5C 88.5,191.167 88.5,193.833 88.5,196.5C 85.8333,196.5 83.1667,196.5 80.5,196.5C 80.5,193.833 80.5,191.167 80.5,188.5 Z"/></g>
<g><path style="opacity:1" fill="#f6b542" d="M 130.5,188.5 C 133.167,188.5 135.833,188.5 138.5,188.5C 138.5,191.167 138.5,193.833 138.5,196.5C 135.833,196.5 133.167,196.5 130.5,196.5C 130.5,193.833 130.5,191.167 130.5,188.5 Z"/></g>
<g><path style="opacity:1" fill="#f6b542" d="M 153.5,188.5 C 156.167,188.5 158.833,188.5 161.5,188.5C 161.5,191.167 161.5,193.833 161.5,196.5C 158.833,196.5 156.167,196.5 153.5,196.5C 153.5,193.833 153.5,191.167 153.5,188.5 Z"/></g>
<g><path style="opacity:1" fill="#fae04b" d="M 161.5,188.5 C 166.833,188.5 172.167,188.5 177.5,188.5C 177.5,193.5 177.5,198.5 177.5,203.5C 174.833,203.5 172.167,203.5 169.5,203.5C 169.5,201.167 169.5,198.833 169.5,196.5C 166.833,196.5 164.167,196.5 161.5,196.5C 161.5,193.833 161.5,191.167 161.5,188.5 Z"/></g>
<g><path style="opacity:1" fill="#f6b542" d="M 177.5,188.5 C 180.167,188.5 182.833,188.5 185.5,188.5C 185.5,193.833 185.5,199.167 185.5,204.5C 182.833,204.5 180.167,204.5 177.5,204.5C 177.5,207.167 177.5,209.833 177.5,212.5C 174.833,212.5 172.167,212.5 169.5,212.5C 169.5,209.833 169.5,207.167 169.5,204.5C 166.833,204.5 164.167,204.5 161.5,204.5C 161.5,201.833 161.5,199.167 161.5,196.5C 164.167,196.5 166.833,196.5 169.5,196.5C 169.5,198.833 169.5,201.167 169.5,203.5C 172.167,203.5 174.833,203.5 177.5,203.5C 177.5,198.5 177.5,193.5 177.5,188.5 Z"/></g>
<g><path style="opacity:1" fill="#f6b542" d="M 58.5,196.5 C 58.5,199.167 58.5,201.833 58.5,204.5C 55.8333,204.5 53.1667,204.5 50.5,204.5C 50.5,201.833 50.5,199.167 50.5,196.5C 53.1667,196.5 55.8333,196.5 58.5,196.5 Z"/></g>
<g><path style="opacity:1" fill="#fae04b" d="M 58.5,196.5 C 60.8333,196.5 63.1667,196.5 65.5,196.5C 65.5,199.167 65.5,201.833 65.5,204.5C 68.1667,204.5 70.8333,204.5 73.5,204.5C 76.1667,204.5 78.8333,204.5 81.5,204.5C 81.5,207.167 81.5,209.833 81.5,212.5C 81.5,215.167 81.5,217.833 81.5,220.5C 78.8333,220.5 76.1667,220.5 73.5,220.5C 73.5,223.167 73.5,225.833 73.5,228.5C 70.8333,228.5 68.1667,228.5 65.5,228.5C 65.5,231.167 65.5,233.833 65.5,236.5C 63.1667,236.5 60.8333,236.5 58.5,236.5C 58.5,233.833 58.5,231.167 58.5,228.5C 55.8333,228.5 53.1667,228.5 50.5,228.5C 50.5,225.833 50.5,223.167 50.5,220.5C 47.8333,220.5 45.1667,220.5 42.5,220.5C 42.5,217.833 42.5,215.167 42.5,212.5C 45.1667,212.5 47.8333,212.5 50.5,212.5C 50.5,209.833 50.5,207.167 50.5,204.5C 53.1667,204.5 55.8333,204.5 58.5,204.5C 58.5,201.833 58.5,199.167 58.5,196.5 Z"/></g>
<g><path style="opacity:1" fill="#f6b542" d="M 105.5,196.5 C 105.5,199.167 105.5,201.833 105.5,204.5C 102.833,204.5 100.167,204.5 97.5,204.5C 97.5,201.833 97.5,199.167 97.5,196.5C 100.167,196.5 102.833,196.5 105.5,196.5 Z"/></g>
<g><path style="opacity:1" fill="#fae04b" d="M 105.5,196.5 C 108.167,196.5 110.833,196.5 113.5,196.5C 116.167,196.5 118.833,196.5 121.5,196.5C 121.5,199.167 121.5,201.833 121.5,204.5C 124.167,204.5 126.833,204.5 129.5,204.5C 129.5,207.167 129.5,209.833 129.5,212.5C 129.5,215.167 129.5,217.833 129.5,220.5C 126.833,220.5 124.167,220.5 121.5,220.5C 121.5,223.167 121.5,225.833 121.5,228.5C 118.833,228.5 116.167,228.5 113.5,228.5C 113.5,231.167 113.5,233.833 113.5,236.5C 110.833,236.5 108.167,236.5 105.5,236.5C 105.5,233.833 105.5,231.167 105.5,228.5C 102.833,228.5 100.167,228.5 97.5,228.5C 97.5,225.833 97.5,223.167 97.5,220.5C 94.8333,220.5 92.1667,220.5 89.5,220.5C 89.5,217.833 89.5,215.167 89.5,212.5C 92.1667,212.5 94.8333,212.5 97.5,212.5C 97.5,209.833 97.5,207.167 97.5,204.5C 100.167,204.5 102.833,204.5 105.5,204.5C 105.5,201.833 105.5,199.167 105.5,196.5 Z"/></g>
<g><path style="opacity:1" fill="#f6b542" d="M 113.5,196.5 C 116.167,196.5 118.833,196.5 121.5,196.5C 121.5,199.167 121.5,201.833 121.5,204.5C 118.833,204.5 116.167,204.5 113.5,204.5C 113.5,201.833 113.5,199.167 113.5,196.5 Z"/></g>
<g><path style="opacity:1" fill="#f6b542" d="M 153.5,196.5 C 153.5,199.167 153.5,201.833 153.5,204.5C 150.833,204.5 148.167,204.5 145.5,204.5C 145.5,201.833 145.5,199.167 145.5,196.5C 148.167,196.5 150.833,196.5 153.5,196.5 Z"/></g>
<g><path style="opacity:1" fill="#fae04b" d="M 153.5,196.5 C 156.167,196.5 158.833,196.5 161.5,196.5C 161.5,199.167 161.5,201.833 161.5,204.5C 164.167,204.5 166.833,204.5 169.5,204.5C 169.5,207.167 169.5,209.833 169.5,212.5C 172.167,212.5 174.833,212.5 177.5,212.5C 177.5,215.167 177.5,217.833 177.5,220.5C 174.833,220.5 172.167,220.5 169.5,220.5C 169.5,223.167 169.5,225.833 169.5,228.5C 166.833,228.5 164.167,228.5 161.5,228.5C 161.5,231.167 161.5,233.833 161.5,236.5C 158.833,236.5 156.167,236.5 153.5,236.5C 153.5,239.167 153.5,241.833 153.5,244.5C 150.833,244.5 148.167,244.5 145.5,244.5C 145.5,247.167 145.5,249.833 145.5,252.5C 142.833,252.5 140.167,252.5 137.5,252.5C 137.5,255.167 137.5,257.833 137.5,260.5C 134.833,260.5 132.167,260.5 129.5,260.5C 129.5,257.833 129.5,255.167 129.5,252.5C 126.833,252.5 124.167,252.5 121.5,252.5C 121.5,249.833 121.5,247.167 121.5,244.5C 118.833,244.5 116.167,244.5 113.5,244.5C 113.5,241.833 113.5,239.167 113.5,236.5C 116.167,236.5 118.833,236.5 121.5,236.5C 121.5,233.833 121.5,231.167 121.5,228.5C 124.167,228.5 126.833,228.5 129.5,228.5C 129.5,225.833 129.5,223.167 129.5,220.5C 132.167,220.5 134.833,220.5 137.5,220.5C 137.5,222.833 137.5,225.167 137.5,227.5C 140.167,227.5 142.833,227.5 145.5,227.5C 145.5,224.833 145.5,222.167 145.5,219.5C 142.833,219.5 140.167,219.5 137.5,219.5C 137.5,217.167 137.5,214.833 137.5,212.5C 140.167,212.5 142.833,212.5 145.5,212.5C 145.5,209.833 145.5,207.167 145.5,204.5C 148.167,204.5 150.833,204.5 153.5,204.5C 153.5,201.833 153.5,199.167 153.5,196.5 Z"/></g>
<g><path style="opacity:1" fill="#fae04b" d="M 34.5,204.5 C 37.1667,204.5 39.8333,204.5 42.5,204.5C 42.5,207.167 42.5,209.833 42.5,212.5C 39.8333,212.5 37.1667,212.5 34.5,212.5C 34.5,209.833 34.5,207.167 34.5,204.5 Z"/></g>
<g><path style="opacity:1" fill="#f6b542" d="M 42.5,204.5 C 45.1667,204.5 47.8333,204.5 50.5,204.5C 50.5,207.167 50.5,209.833 50.5,212.5C 47.8333,212.5 45.1667,212.5 42.5,212.5C 42.5,209.833 42.5,207.167 42.5,204.5 Z"/></g>
<g><path style="opacity:1" fill="#f6b542" d="M 73.5,204.5 C 76.1667,204.5 78.8333,204.5 81.5,204.5C 81.5,207.167 81.5,209.833 81.5,212.5C 78.8333,212.5 76.1667,212.5 73.5,212.5C 73.5,209.833 73.5,207.167 73.5,204.5 Z"/></g>
<g><path style="opacity:1" fill="#f6b542" d="M 97.5,204.5 C 97.5,207.167 97.5,209.833 97.5,212.5C 94.8333,212.5 92.1667,212.5 89.5,212.5C 89.5,209.833 89.5,207.167 89.5,204.5C 92.1667,204.5 94.8333,204.5 97.5,204.5 Z"/></g>
<g><path style="opacity:1" fill="#f6b542" d="M 121.5,204.5 C 124.167,204.5 126.833,204.5 129.5,204.5C 129.5,207.167 129.5,209.833 129.5,212.5C 126.833,212.5 124.167,212.5 121.5,212.5C 121.5,209.833 121.5,207.167 121.5,204.5 Z"/></g>
<g><path style="opacity:1" fill="#f6b542" d="M 145.5,204.5 C 145.5,207.167 145.5,209.833 145.5,212.5C 142.833,212.5 140.167,212.5 137.5,212.5C 137.5,209.833 137.5,207.167 137.5,204.5C 140.167,204.5 142.833,204.5 145.5,204.5 Z"/></g>
<g><path style="opacity:1" fill="#fae04b" d="M 185.5,204.5 C 185.5,207.167 185.5,209.833 185.5,212.5C 182.833,212.5 180.167,212.5 177.5,212.5C 177.5,209.833 177.5,207.167 177.5,204.5C 180.167,204.5 182.833,204.5 185.5,204.5 Z"/></g>
<g><path style="opacity:1" fill="#f6b542" d="M 58.5,211.5 C 61.1667,211.5 63.8333,211.5 66.5,211.5C 66.5,214.167 66.5,216.833 66.5,219.5C 63.8333,219.5 61.1667,219.5 58.5,219.5C 58.5,216.833 58.5,214.167 58.5,211.5 Z"/></g>
<g><path style="opacity:1" fill="#f6b542" d="M 105.5,211.5 C 108.167,211.5 110.833,211.5 113.5,211.5C 113.5,214.167 113.5,216.833 113.5,219.5C 110.833,219.5 108.167,219.5 105.5,219.5C 105.5,216.833 105.5,214.167 105.5,211.5 Z"/></g>
<g><path style="opacity:1" fill="#f6b542" d="M 34.5,212.5 C 37.1667,212.5 39.8333,212.5 42.5,212.5C 42.5,215.167 42.5,217.833 42.5,220.5C 39.8333,220.5 37.1667,220.5 34.5,220.5C 34.5,217.833 34.5,215.167 34.5,212.5 Z"/></g>
<g><path style="opacity:1" fill="#f6b542" d="M 81.5,212.5 C 84.1667,212.5 86.8333,212.5 89.5,212.5C 89.5,215.167 89.5,217.833 89.5,220.5C 86.8333,220.5 84.1667,220.5 81.5,220.5C 81.5,217.833 81.5,215.167 81.5,212.5 Z"/></g>
<g><path style="opacity:1" fill="#f6b542" d="M 129.5,212.5 C 132.167,212.5 134.833,212.5 137.5,212.5C 137.5,214.833 137.5,217.167 137.5,219.5C 140.167,219.5 142.833,219.5 145.5,219.5C 145.5,222.167 145.5,224.833 145.5,227.5C 142.833,227.5 140.167,227.5 137.5,227.5C 137.5,225.167 137.5,222.833 137.5,220.5C 134.833,220.5 132.167,220.5 129.5,220.5C 129.5,217.833 129.5,215.167 129.5,212.5 Z"/></g>
<g><path style="opacity:1" fill="#f6b542" d="M 154.5,212.5 C 157.167,212.5 159.833,212.5 162.5,212.5C 162.5,215.167 162.5,217.833 162.5,220.5C 159.833,220.5 157.167,220.5 154.5,220.5C 154.5,217.833 154.5,215.167 154.5,212.5 Z"/></g>
<g><path style="opacity:1" fill="#f6b542" d="M 177.5,212.5 C 180.167,212.5 182.833,212.5 185.5,212.5C 185.5,215.167 185.5,217.833 185.5,220.5C 182.833,220.5 180.167,220.5 177.5,220.5C 177.5,217.833 177.5,215.167 177.5,212.5 Z"/></g>
<g><path style="opacity:1" fill="#fae04b" d="M 34.5,220.5 C 37.1667,220.5 39.8333,220.5 42.5,220.5C 42.5,223.167 42.5,225.833 42.5,228.5C 39.8333,228.5 37.1667,228.5 34.5,228.5C 34.5,225.833 34.5,223.167 34.5,220.5 Z"/></g>
<g><path style="opacity:1" fill="#f6b542" d="M 42.5,220.5 C 45.1667,220.5 47.8333,220.5 50.5,220.5C 50.5,223.167 50.5,225.833 50.5,228.5C 47.8333,228.5 45.1667,228.5 42.5,228.5C 42.5,225.833 42.5,223.167 42.5,220.5 Z"/></g>
<g><path style="opacity:1" fill="#f6b542" d="M 81.5,220.5 C 81.5,223.167 81.5,225.833 81.5,228.5C 78.8333,228.5 76.1667,228.5 73.5,228.5C 73.5,225.833 73.5,223.167 73.5,220.5C 76.1667,220.5 78.8333,220.5 81.5,220.5 Z"/></g>
<g><path style="opacity:1" fill="#fae04b" d="M 81.5,220.5 C 84.1667,220.5 86.8333,220.5 89.5,220.5C 92.1667,220.5 94.8333,220.5 97.5,220.5C 97.5,223.167 97.5,225.833 97.5,228.5C 100.167,228.5 102.833,228.5 105.5,228.5C 105.5,231.167 105.5,233.833 105.5,236.5C 105.5,239.167 105.5,241.833 105.5,244.5C 102.833,244.5 100.167,244.5 97.5,244.5C 97.5,247.167 97.5,249.833 97.5,252.5C 94.8333,252.5 92.1667,252.5 89.5,252.5C 89.5,255.167 89.5,257.833 89.5,260.5C 86.8333,260.5 84.1667,260.5 81.5,260.5C 81.5,257.833 81.5,255.167 81.5,252.5C 78.8333,252.5 76.1667,252.5 73.5,252.5C 73.5,249.833 73.5,247.167 73.5,244.5C 70.8333,244.5 68.1667,244.5 65.5,244.5C 65.5,241.833 65.5,239.167 65.5,236.5C 68.1667,236.5 70.8333,236.5 73.5,236.5C 73.5,233.833 73.5,231.167 73.5,228.5C 76.1667,228.5 78.8333,228.5 81.5,228.5C 81.5,225.833 81.5,223.167 81.5,220.5 Z"/></g>
<g><path style="opacity:1" fill="#f6b542" d="M 89.5,220.5 C 92.1667,220.5 94.8333,220.5 97.5,220.5C 97.5,223.167 97.5,225.833 97.5,228.5C 94.8333,228.5 92.1667,228.5 89.5,228.5C 89.5,225.833 89.5,223.167 89.5,220.5 Z"/></g>
<g><path style="opacity:1" fill="#f6b542" d="M 129.5,220.5 C 129.5,223.167 129.5,225.833 129.5,228.5C 126.833,228.5 124.167,228.5 121.5,228.5C 121.5,225.833 121.5,223.167 121.5,220.5C 124.167,220.5 126.833,220.5 129.5,220.5 Z"/></g>
<g><path style="opacity:1" fill="#f6b542" d="M 177.5,220.5 C 177.5,223.167 177.5,225.833 177.5,228.5C 174.833,228.5 172.167,228.5 169.5,228.5C 169.5,225.833 169.5,223.167 169.5,220.5C 172.167,220.5 174.833,220.5 177.5,220.5 Z"/></g>
<g><path style="opacity:1" fill="#fae04b" d="M 177.5,220.5 C 180.167,220.5 182.833,220.5 185.5,220.5C 185.5,223.167 185.5,225.833 185.5,228.5C 182.833,228.5 180.167,228.5 177.5,228.5C 177.5,225.833 177.5,223.167 177.5,220.5 Z"/></g>
<g><path style="opacity:1" fill="#f6b542" d="M 145.5,227.5 C 148.167,227.5 150.833,227.5 153.5,227.5C 153.5,230.167 153.5,232.833 153.5,235.5C 150.833,235.5 148.167,235.5 145.5,235.5C 145.5,232.833 145.5,230.167 145.5,227.5 Z"/></g>
<g><path style="opacity:1" fill="#f6b542" d="M 34.5,228.5 C 37.1667,228.5 39.8333,228.5 42.5,228.5C 42.5,236.167 42.5,243.833 42.5,251.5C 39.8333,251.5 37.1667,251.5 34.5,251.5C 34.5,243.833 34.5,236.167 34.5,228.5 Z"/></g>
<g><path style="opacity:1" fill="#fae04b" d="M 42.5,228.5 C 45.1667,228.5 47.8333,228.5 50.5,228.5C 50.5,231.167 50.5,233.833 50.5,236.5C 52.8333,236.5 55.1667,236.5 57.5,236.5C 57.5,239.167 57.5,241.833 57.5,244.5C 54.8333,244.5 52.1667,244.5 49.5,244.5C 49.5,246.833 49.5,249.167 49.5,251.5C 47.1667,251.5 44.8333,251.5 42.5,251.5C 42.5,243.833 42.5,236.167 42.5,228.5 Z"/></g>
<g><path style="opacity:1" fill="#f6b542" d="M 50.5,228.5 C 53.1667,228.5 55.8333,228.5 58.5,228.5C 58.5,231.167 58.5,233.833 58.5,236.5C 60.8333,236.5 63.1667,236.5 65.5,236.5C 65.5,239.167 65.5,241.833 65.5,244.5C 62.8333,244.5 60.1667,244.5 57.5,244.5C 57.5,241.833 57.5,239.167 57.5,236.5C 55.1667,236.5 52.8333,236.5 50.5,236.5C 50.5,233.833 50.5,231.167 50.5,228.5 Z"/></g>
<g><path style="opacity:1" fill="#f6b542" d="M 73.5,228.5 C 73.5,231.167 73.5,233.833 73.5,236.5C 70.8333,236.5 68.1667,236.5 65.5,236.5C 65.5,233.833 65.5,231.167 65.5,228.5C 68.1667,228.5 70.8333,228.5 73.5,228.5 Z"/></g>
<g><path style="opacity:1" fill="#f6b542" d="M 97.5,228.5 C 100.167,228.5 102.833,228.5 105.5,228.5C 105.5,231.167 105.5,233.833 105.5,236.5C 102.833,236.5 100.167,236.5 97.5,236.5C 97.5,233.833 97.5,231.167 97.5,228.5 Z"/></g>
<g><path style="opacity:1" fill="#f6b542" d="M 121.5,228.5 C 121.5,231.167 121.5,233.833 121.5,236.5C 118.833,236.5 116.167,236.5 113.5,236.5C 113.5,233.833 113.5,231.167 113.5,228.5C 116.167,228.5 118.833,228.5 121.5,228.5 Z"/></g>
<g><path style="opacity:1" fill="#f6b542" d="M 169.5,228.5 C 169.5,231.167 169.5,233.833 169.5,236.5C 166.833,236.5 164.167,236.5 161.5,236.5C 161.5,233.833 161.5,231.167 161.5,228.5C 164.167,228.5 166.833,228.5 169.5,228.5 Z"/></g>
<g><path style="opacity:1" fill="#fae04b" d="M 169.5,228.5 C 172.167,228.5 174.833,228.5 177.5,228.5C 177.5,236.5 177.5,244.5 177.5,252.5C 174.833,252.5 172.167,252.5 169.5,252.5C 169.5,249.833 169.5,247.167 169.5,244.5C 166.833,244.5 164.167,244.5 161.5,244.5C 161.5,241.833 161.5,239.167 161.5,236.5C 164.167,236.5 166.833,236.5 169.5,236.5C 169.5,233.833 169.5,231.167 169.5,228.5 Z"/></g>
<g><path style="opacity:1" fill="#f6b542" d="M 177.5,228.5 C 180.167,228.5 182.833,228.5 185.5,228.5C 185.5,236.5 185.5,244.5 185.5,252.5C 182.833,252.5 180.167,252.5 177.5,252.5C 177.5,244.5 177.5,236.5 177.5,228.5 Z"/></g>
<g><path style="opacity:1" fill="#f6b542" d="M 80.5,236.5 C 83.1667,236.5 85.8333,236.5 88.5,236.5C 88.5,239.167 88.5,241.833 88.5,244.5C 85.8333,244.5 83.1667,244.5 80.5,244.5C 80.5,241.833 80.5,239.167 80.5,236.5 Z"/></g>
<g><path style="opacity:1" fill="#f6b542" d="M 105.5,236.5 C 108.167,236.5 110.833,236.5 113.5,236.5C 113.5,239.167 113.5,241.833 113.5,244.5C 110.833,244.5 108.167,244.5 105.5,244.5C 105.5,241.833 105.5,239.167 105.5,236.5 Z"/></g>
<g><path style="opacity:1" fill="#f6b542" d="M 130.5,236.5 C 133.167,236.5 135.833,236.5 138.5,236.5C 138.5,239.167 138.5,241.833 138.5,244.5C 135.833,244.5 133.167,244.5 130.5,244.5C 130.5,241.833 130.5,239.167 130.5,236.5 Z"/></g>
<g><path style="opacity:1" fill="#f6b542" d="M 161.5,236.5 C 161.5,239.167 161.5,241.833 161.5,244.5C 158.833,244.5 156.167,244.5 153.5,244.5C 153.5,241.833 153.5,239.167 153.5,236.5C 156.167,236.5 158.833,236.5 161.5,236.5 Z"/></g>
<g><path style="opacity:1" fill="#f6b542" d="M 57.5,244.5 C 57.5,247.167 57.5,249.833 57.5,252.5C 55.1667,252.5 52.8333,252.5 50.5,252.5C 50.5,260.167 50.5,267.833 50.5,275.5C 47.8333,275.5 45.1667,275.5 42.5,275.5C 42.5,267.5 42.5,259.5 42.5,251.5C 44.8333,251.5 47.1667,251.5 49.5,251.5C 49.5,249.167 49.5,246.833 49.5,244.5C 52.1667,244.5 54.8333,244.5 57.5,244.5 Z"/></g>
<g><path style="opacity:1" fill="#fae04b" d="M 57.5,244.5 C 60.1667,244.5 62.8333,244.5 65.5,244.5C 68.1667,244.5 70.8333,244.5 73.5,244.5C 73.5,247.167 73.5,249.833 73.5,252.5C 76.1667,252.5 78.8333,252.5 81.5,252.5C 81.5,255.167 81.5,257.833 81.5,260.5C 81.5,263.167 81.5,265.833 81.5,268.5C 78.8333,268.5 76.1667,268.5 73.5,268.5C 73.5,271.167 73.5,273.833 73.5,276.5C 70.8333,276.5 68.1667,276.5 65.5,276.5C 65.5,278.833 65.5,281.167 65.5,283.5C 63.1667,283.5 60.8333,283.5 58.5,283.5C 58.5,280.833 58.5,278.167 58.5,275.5C 55.8333,275.5 53.1667,275.5 50.5,275.5C 50.5,267.833 50.5,260.167 50.5,252.5C 52.8333,252.5 55.1667,252.5 57.5,252.5C 57.5,249.833 57.5,247.167 57.5,244.5 Z"/></g>
<g><path style="opacity:1" fill="#f6b542" d="M 65.5,244.5 C 68.1667,244.5 70.8333,244.5 73.5,244.5C 73.5,247.167 73.5,249.833 73.5,252.5C 70.8333,252.5 68.1667,252.5 65.5,252.5C 65.5,249.833 65.5,247.167 65.5,244.5 Z"/></g>
<g><path style="opacity:1" fill="#f6b542" d="M 105.5,244.5 C 105.5,247.167 105.5,249.833 105.5,252.5C 102.833,252.5 100.167,252.5 97.5,252.5C 97.5,249.833 97.5,247.167 97.5,244.5C 100.167,244.5 102.833,244.5 105.5,244.5 Z"/></g>
<g><path style="opacity:1" fill="#fae04b" d="M 105.5,244.5 C 108.167,244.5 110.833,244.5 113.5,244.5C 116.167,244.5 118.833,244.5 121.5,244.5C 121.5,247.167 121.5,249.833 121.5,252.5C 124.167,252.5 126.833,252.5 129.5,252.5C 129.5,255.167 129.5,257.833 129.5,260.5C 129.5,263.167 129.5,265.833 129.5,268.5C 126.833,268.5 124.167,268.5 121.5,268.5C 121.5,271.167 121.5,273.833 121.5,276.5C 118.833,276.5 116.167,276.5 113.5,276.5C 113.5,279.167 113.5,281.833 113.5,284.5C 110.833,284.5 108.167,284.5 105.5,284.5C 105.5,281.833 105.5,279.167 105.5,276.5C 102.833,276.5 100.167,276.5 97.5,276.5C 97.5,273.833 97.5,271.167 97.5,268.5C 94.8333,268.5 92.1667,268.5 89.5,268.5C 89.5,265.833 89.5,263.167 89.5,260.5C 92.1667,260.5 94.8333,260.5 97.5,260.5C 97.5,257.833 97.5,255.167 97.5,252.5C 100.167,252.5 102.833,252.5 105.5,252.5C 105.5,249.833 105.5,247.167 105.5,244.5 Z"/></g>
<g><path style="opacity:1" fill="#f6b542" d="M 113.5,244.5 C 116.167,244.5 118.833,244.5 121.5,244.5C 121.5,247.167 121.5,249.833 121.5,252.5C 118.833,252.5 116.167,252.5 113.5,252.5C 113.5,249.833 113.5,247.167 113.5,244.5 Z"/></g>
<g><path style="opacity:1" fill="#f6b542" d="M 153.5,244.5 C 153.5,247.167 153.5,249.833 153.5,252.5C 150.833,252.5 148.167,252.5 145.5,252.5C 145.5,249.833 145.5,247.167 145.5,244.5C 148.167,244.5 150.833,244.5 153.5,244.5 Z"/></g>
<g><path style="opacity:1" fill="#fae04b" d="M 153.5,244.5 C 156.167,244.5 158.833,244.5 161.5,244.5C 164.167,244.5 166.833,244.5 169.5,244.5C 169.5,247.167 169.5,249.833 169.5,252.5C 169.5,260.167 169.5,267.833 169.5,275.5C 166.833,275.5 164.167,275.5 161.5,275.5C 161.5,278.167 161.5,280.833 161.5,283.5C 158.833,283.5 156.167,283.5 153.5,283.5C 153.5,280.833 153.5,278.167 153.5,275.5C 150.833,275.5 148.167,275.5 145.5,275.5C 145.5,273.167 145.5,270.833 145.5,268.5C 142.833,268.5 140.167,268.5 137.5,268.5C 137.5,265.833 137.5,263.167 137.5,260.5C 140.167,260.5 142.833,260.5 145.5,260.5C 145.5,257.833 145.5,255.167 145.5,252.5C 148.167,252.5 150.833,252.5 153.5,252.5C 153.5,249.833 153.5,247.167 153.5,244.5 Z"/></g>
<g><path style="opacity:1" fill="#f6b542" d="M 161.5,244.5 C 164.167,244.5 166.833,244.5 169.5,244.5C 169.5,247.167 169.5,249.833 169.5,252.5C 166.833,252.5 164.167,252.5 161.5,252.5C 161.5,249.833 161.5,247.167 161.5,244.5 Z"/></g>
<g><path style="opacity:1" fill="#f6b542" d="M 73.5,252.5 C 76.1667,252.5 78.8333,252.5 81.5,252.5C 81.5,255.167 81.5,257.833 81.5,260.5C 78.8333,260.5 76.1667,260.5 73.5,260.5C 73.5,257.833 73.5,255.167 73.5,252.5 Z"/></g>
<g><path style="opacity:1" fill="#f6b542" d="M 97.5,252.5 C 97.5,255.167 97.5,257.833 97.5,260.5C 94.8333,260.5 92.1667,260.5 89.5,260.5C 89.5,257.833 89.5,255.167 89.5,252.5C 92.1667,252.5 94.8333,252.5 97.5,252.5 Z"/></g>
<g><path style="opacity:1" fill="#f6b542" d="M 121.5,252.5 C 124.167,252.5 126.833,252.5 129.5,252.5C 129.5,255.167 129.5,257.833 129.5,260.5C 126.833,260.5 124.167,260.5 121.5,260.5C 121.5,257.833 121.5,255.167 121.5,252.5 Z"/></g>
<g><path style="opacity:1" fill="#f6b542" d="M 145.5,252.5 C 145.5,255.167 145.5,257.833 145.5,260.5C 142.833,260.5 140.167,260.5 137.5,260.5C 137.5,257.833 137.5,255.167 137.5,252.5C 140.167,252.5 142.833,252.5 145.5,252.5 Z"/></g>
<g><path style="opacity:1" fill="#f6b542" d="M 169.5,252.5 C 172.167,252.5 174.833,252.5 177.5,252.5C 177.5,260.5 177.5,268.5 177.5,276.5C 174.833,276.5 172.167,276.5 169.5,276.5C 169.5,278.833 169.5,281.167 169.5,283.5C 166.833,283.5 164.167,283.5 161.5,283.5C 161.5,280.833 161.5,278.167 161.5,275.5C 164.167,275.5 166.833,275.5 169.5,275.5C 169.5,267.833 169.5,260.167 169.5,252.5 Z"/></g>
<g><path style="opacity:1" fill="#f6b542" d="M 105.5,259.5 C 108.167,259.5 110.833,259.5 113.5,259.5C 113.5,262.167 113.5,264.833 113.5,267.5C 110.833,267.5 108.167,267.5 105.5,267.5C 105.5,264.833 105.5,262.167 105.5,259.5 Z"/></g>
<g><path style="opacity:1" fill="#f6b542" d="M 153.5,259.5 C 156.167,259.5 158.833,259.5 161.5,259.5C 161.5,262.167 161.5,264.833 161.5,267.5C 158.833,267.5 156.167,267.5 153.5,267.5C 153.5,264.833 153.5,262.167 153.5,259.5 Z"/></g>
<g><path style="opacity:1" fill="#f6b542" d="M 81.5,260.5 C 84.1667,260.5 86.8333,260.5 89.5,260.5C 89.5,263.167 89.5,265.833 89.5,268.5C 86.8333,268.5 84.1667,268.5 81.5,268.5C 81.5,265.833 81.5,263.167 81.5,260.5 Z"/></g>
<g><path style="opacity:1" fill="#f6b542" d="M 129.5,260.5 C 132.167,260.5 134.833,260.5 137.5,260.5C 137.5,263.167 137.5,265.833 137.5,268.5C 134.833,268.5 132.167,268.5 129.5,268.5C 129.5,265.833 129.5,263.167 129.5,260.5 Z"/></g>
<g><path style="opacity:1" fill="#f6b542" d="M 58.5,261.5 C 61.1667,261.5 63.8333,261.5 66.5,261.5C 66.5,264.167 66.5,266.833 66.5,269.5C 63.8333,269.5 61.1667,269.5 58.5,269.5C 58.5,266.833 58.5,264.167 58.5,261.5 Z"/></g>
<g><path style="opacity:1" fill="#f6b542" d="M 81.5,268.5 C 81.5,271.167 81.5,273.833 81.5,276.5C 78.8333,276.5 76.1667,276.5 73.5,276.5C 73.5,273.833 73.5,271.167 73.5,268.5C 76.1667,268.5 78.8333,268.5 81.5,268.5 Z"/></g>
<g><path style="opacity:1" fill="#fae04b" d="M 81.5,268.5 C 84.1667,268.5 86.8333,268.5 89.5,268.5C 92.1667,268.5 94.8333,268.5 97.5,268.5C 97.5,271.167 97.5,273.833 97.5,276.5C 100.167,276.5 102.833,276.5 105.5,276.5C 105.5,279.167 105.5,281.833 105.5,284.5C 105.5,287.167 105.5,289.833 105.5,292.5C 102.833,292.5 100.167,292.5 97.5,292.5C 97.5,294.833 97.5,297.167 97.5,299.5C 89.8333,299.5 82.1667,299.5 74.5,299.5C 74.5,296.833 74.5,294.167 74.5,291.5C 71.8333,291.5 69.1667,291.5 66.5,291.5C 66.5,289.167 66.5,286.833 66.5,284.5C 68.8333,284.5 71.1667,284.5 73.5,284.5C 73.5,281.833 73.5,279.167 73.5,276.5C 76.1667,276.5 78.8333,276.5 81.5,276.5C 81.5,273.833 81.5,271.167 81.5,268.5 Z"/></g>
<g><path style="opacity:1" fill="#f6b542" d="M 89.5,268.5 C 92.1667,268.5 94.8333,268.5 97.5,268.5C 97.5,271.167 97.5,273.833 97.5,276.5C 94.8333,276.5 92.1667,276.5 89.5,276.5C 89.5,273.833 89.5,271.167 89.5,268.5 Z"/></g>
<g><path style="opacity:1" fill="#f6b542" d="M 129.5,268.5 C 129.5,271.167 129.5,273.833 129.5,276.5C 126.833,276.5 124.167,276.5 121.5,276.5C 121.5,273.833 121.5,271.167 121.5,268.5C 124.167,268.5 126.833,268.5 129.5,268.5 Z"/></g>
<g><path style="opacity:1" fill="#fae04b" d="M 129.5,268.5 C 132.167,268.5 134.833,268.5 137.5,268.5C 137.5,271.167 137.5,273.833 137.5,276.5C 140.167,276.5 142.833,276.5 145.5,276.5C 145.5,278.833 145.5,281.167 145.5,283.5C 148.167,283.5 150.833,283.5 153.5,283.5C 153.5,286.167 153.5,288.833 153.5,291.5C 150.833,291.5 148.167,291.5 145.5,291.5C 145.5,294.167 145.5,296.833 145.5,299.5C 137.5,299.5 129.5,299.5 121.5,299.5C 121.5,297.167 121.5,294.833 121.5,292.5C 118.833,292.5 116.167,292.5 113.5,292.5C 113.5,289.833 113.5,287.167 113.5,284.5C 116.167,284.5 118.833,284.5 121.5,284.5C 121.5,281.833 121.5,279.167 121.5,276.5C 124.167,276.5 126.833,276.5 129.5,276.5C 129.5,273.833 129.5,271.167 129.5,268.5 Z"/></g>
<g><path style="opacity:1" fill="#f6b542" d="M 137.5,268.5 C 140.167,268.5 142.833,268.5 145.5,268.5C 145.5,270.833 145.5,273.167 145.5,275.5C 148.167,275.5 150.833,275.5 153.5,275.5C 153.5,278.167 153.5,280.833 153.5,283.5C 150.833,283.5 148.167,283.5 145.5,283.5C 145.5,281.167 145.5,278.833 145.5,276.5C 142.833,276.5 140.167,276.5 137.5,276.5C 137.5,273.833 137.5,271.167 137.5,268.5 Z"/></g>
<g><path style="opacity:1" fill="#f6b542" d="M 50.5,275.5 C 53.1667,275.5 55.8333,275.5 58.5,275.5C 58.5,278.167 58.5,280.833 58.5,283.5C 55.8333,283.5 53.1667,283.5 50.5,283.5C 50.5,280.833 50.5,278.167 50.5,275.5 Z"/></g>
<g><path style="opacity:1" fill="#f6b542" d="M 73.5,276.5 C 73.5,279.167 73.5,281.833 73.5,284.5C 71.1667,284.5 68.8333,284.5 66.5,284.5C 66.5,286.833 66.5,289.167 66.5,291.5C 63.8333,291.5 61.1667,291.5 58.5,291.5C 58.5,288.833 58.5,286.167 58.5,283.5C 60.8333,283.5 63.1667,283.5 65.5,283.5C 65.5,281.167 65.5,278.833 65.5,276.5C 68.1667,276.5 70.8333,276.5 73.5,276.5 Z"/></g>
<g><path style="opacity:1" fill="#f6b542" d="M 97.5,276.5 C 100.167,276.5 102.833,276.5 105.5,276.5C 105.5,279.167 105.5,281.833 105.5,284.5C 102.833,284.5 100.167,284.5 97.5,284.5C 97.5,281.833 97.5,279.167 97.5,276.5 Z"/></g>
<g><path style="opacity:1" fill="#f6b542" d="M 121.5,276.5 C 121.5,279.167 121.5,281.833 121.5,284.5C 118.833,284.5 116.167,284.5 113.5,284.5C 113.5,281.833 113.5,279.167 113.5,276.5C 116.167,276.5 118.833,276.5 121.5,276.5 Z"/></g>
<g><path style="opacity:1" fill="#f6b542" d="M 81.5,283.5 C 84.1667,283.5 86.8333,283.5 89.5,283.5C 89.5,286.167 89.5,288.833 89.5,291.5C 86.8333,291.5 84.1667,291.5 81.5,291.5C 81.5,288.833 81.5,286.167 81.5,283.5 Z"/></g>
<g><path style="opacity:1" fill="#f6b542" d="M 153.5,283.5 C 156.167,283.5 158.833,283.5 161.5,283.5C 161.5,286.167 161.5,288.833 161.5,291.5C 158.833,291.5 156.167,291.5 153.5,291.5C 153.5,288.833 153.5,286.167 153.5,283.5 Z"/></g>
<g><path style="opacity:1" fill="#f6b542" d="M 105.5,284.5 C 108.167,284.5 110.833,284.5 113.5,284.5C 113.5,287.167 113.5,289.833 113.5,292.5C 110.833,292.5 108.167,292.5 105.5,292.5C 105.5,289.833 105.5,287.167 105.5,284.5 Z"/></g>
<g><path style="opacity:1" fill="#f6b542" d="M 129.5,284.5 C 132.167,284.5 134.833,284.5 137.5,284.5C 137.5,287.167 137.5,289.833 137.5,292.5C 134.833,292.5 132.167,292.5 129.5,292.5C 129.5,289.833 129.5,287.167 129.5,284.5 Z"/></g>
<g><path style="opacity:1" fill="#f6b542" d="M 66.5,291.5 C 69.1667,291.5 71.8333,291.5 74.5,291.5C 74.5,294.167 74.5,296.833 74.5,299.5C 82.1667,299.5 89.8333,299.5 97.5,299.5C 97.5,302.167 97.5,304.833 97.5,307.5C 89.5,307.5 81.5,307.5 73.5,307.5C 73.5,304.833 73.5,302.167 73.5,299.5C 71.1667,299.5 68.8333,299.5 66.5,299.5C 66.5,296.833 66.5,294.167 66.5,291.5 Z"/></g>
<g><path style="opacity:1" fill="#f6b542" d="M 153.5,291.5 C 153.5,294.167 153.5,296.833 153.5,299.5C 150.833,299.5 148.167,299.5 145.5,299.5C 145.5,296.833 145.5,294.167 145.5,291.5C 148.167,291.5 150.833,291.5 153.5,291.5 Z"/></g>
<g><path style="opacity:1" fill="#f6b542" d="M 105.5,292.5 C 105.5,294.833 105.5,297.167 105.5,299.5C 102.833,299.5 100.167,299.5 97.5,299.5C 97.5,297.167 97.5,294.833 97.5,292.5C 100.167,292.5 102.833,292.5 105.5,292.5 Z"/></g>
<g><path style="opacity:1" fill="#fae04b" d="M 105.5,292.5 C 108.167,292.5 110.833,292.5 113.5,292.5C 113.5,294.833 113.5,297.167 113.5,299.5C 110.833,299.5 108.167,299.5 105.5,299.5C 105.5,297.167 105.5,294.833 105.5,292.5 Z"/></g>
<g><path style="opacity:1" fill="#f6b542" d="M 113.5,292.5 C 116.167,292.5 118.833,292.5 121.5,292.5C 121.5,294.833 121.5,297.167 121.5,299.5C 129.5,299.5 137.5,299.5 145.5,299.5C 145.5,302.167 145.5,304.833 145.5,307.5C 137.5,307.5 129.5,307.5 121.5,307.5C 121.5,305.167 121.5,302.833 121.5,300.5C 118.833,300.5 116.167,300.5 113.5,300.5C 113.5,302.833 113.5,305.167 113.5,307.5C 110.833,307.5 108.167,307.5 105.5,307.5C 105.5,304.833 105.5,302.167 105.5,299.5C 108.167,299.5 110.833,299.5 113.5,299.5C 113.5,297.167 113.5,294.833 113.5,292.5 Z"/></g>
<g><path style="opacity:1" fill="#fae04b" d="M 97.5,299.5 C 100.167,299.5 102.833,299.5 105.5,299.5C 105.5,302.167 105.5,304.833 105.5,307.5C 102.833,307.5 100.167,307.5 97.5,307.5C 97.5,304.833 97.5,302.167 97.5,299.5 Z"/></g>
<g><path style="opacity:1" fill="#fae04b" d="M 121.5,307.5 C 118.833,307.5 116.167,307.5 113.5,307.5C 113.5,305.167 113.5,302.833 113.5,300.5C 116.167,300.5 118.833,300.5 121.5,300.5C 121.5,302.833 121.5,305.167 121.5,307.5 Z"/></g>
</svg>
