<?xml version="1.0" encoding="UTF-8"?>
<!DOCTYPE svg PUBLIC "-//W3C//DTD SVG 1.1//EN" "http://www.w3.org/Graphics/SVG/1.1/DTD/svg11.dtd">
<svg xmlns="http://www.w3.org/2000/svg" version="1.1" width="6608px" height="2928px" style="shape-rendering:geometricPrecision; text-rendering:geometricPrecision; image-rendering:optimizeQuality; fill-rule:evenodd; clip-rule:evenodd" xmlns:xlink="http://www.w3.org/1999/xlink">
<g><path style="opacity:1" fill="#f2c7a0" d="M 399.5,703.5 C 399.5,708.833 399.5,714.167 399.5,719.5C 394.167,719.5 388.833,719.5 383.5,719.5C 383.5,714.167 383.5,708.833 383.5,703.5C 388.833,703.5 394.167,703.5 399.5,703.5 Z"/></g>
<g><path style="opacity:1" fill="#5d3a44" d="M 399.5,703.5 C 404.833,703.5 410.167,703.5 415.5,703.5C 415.5,708.833 415.5,714.167 415.5,719.5C 410.167,719.5 404.833,719.5 399.5,719.5C 399.5,714.167 399.5,708.833 399.5,703.5 Z"/></g>
<g><path style="opacity:1" fill="#223955" d="M 415.5,703.5 C 420.833,703.5 426.167,703.5 431.5,703.5C 431.5,708.833 431.5,714.167 431.5,719.5C 426.167,719.5 420.833,719.5 415.5,719.5C 415.5,714.167 415.5,708.833 415.5,703.5 Z"/></g>
<g><path style="opacity:1" fill="#364157" d="M 431.5,703.5 C 815.5,703.5 1199.5,703.5 1583.5,703.5C 1583.5,708.833 1583.5,714.167 1583.5,719.5C 1199.5,719.5 815.5,719.5 431.5,719.5C 431.5,714.167 431.5,708.833 431.5,703.5 Z"/></g>
<g><path style="opacity:1" fill="#353948" d="M 1583.5,703.5 C 1588.83,703.5 1594.17,703.5 1599.5,703.5C 1599.5,708.833 1599.5,714.167 1599.5,719.5C 1594.17,719.5 1588.83,719.5 1583.5,719.5C 1583.5,714.167 1583.5,708.833 1583.5,703.5 Z"/></g>
<g><path style="opacity:1" fill="#592e43" d="M 2143.5,703.5 C 2148.83,703.5 2154.17,703.5 2159.5,703.5C 2159.5,708.833 2159.5,714.167 2159.5,719.5C 2154.17,719.5 2148.83,719.5 2143.5,719.5C 2143.5,714.167 2143.5,708.833 2143.5,703.5 Z"/></g>
<g><path style="opacity:1" fill="#233a57" d="M 2159.5,703.5 C 2164.83,703.5 2170.17,703.5 2175.5,703.5C 2175.5,708.833 2175.5,714.167 2175.5,719.5C 2170.17,719.5 2164.83,719.5 2159.5,719.5C 2159.5,714.167 2159.5,708.833 2159.5,703.5 Z"/></g>
<g><path style="opacity:1" fill="#364157" d="M 2175.5,703.5 C 2356.83,703.5 2538.17,703.5 2719.5,703.5C 2719.5,708.833 2719.5,714.167 2719.5,719.5C 2538.17,719.5 2356.83,719.5 2175.5,719.5C 2175.5,714.167 2175.5,708.833 2175.5,703.5 Z"/></g>
<g><path style="opacity:1" fill="#343747" d="M 2719.5,703.5 C 2724.83,703.5 2730.17,703.5 2735.5,703.5C 2735.5,708.833 2735.5,714.167 2735.5,719.5C 2730.17,719.5 2724.83,719.5 2719.5,719.5C 2719.5,714.167 2719.5,708.833 2719.5,703.5 Z"/></g>
<g><path style="opacity:1" fill="#18304f" d="M 3439.5,703.5 C 3444.83,703.5 3450.17,703.5 3455.5,703.5C 3455.5,708.833 3455.5,714.167 3455.5,719.5C 3450.17,719.5 3444.83,719.5 3439.5,719.5C 3439.5,714.167 3439.5,708.833 3439.5,703.5 Z"/></g>
<g><path style="opacity:1" fill="#354156" d="M 3455.5,703.5 C 3743.5,703.5 4031.5,703.5 4319.5,703.5C 4319.5,708.833 4319.5,714.167 4319.5,719.5C 4031.5,719.5 3743.5,719.5 3455.5,719.5C 3455.5,714.167 3455.5,708.833 3455.5,703.5 Z"/></g>
<g><path style="opacity:1" fill="#212b4c" d="M 4319.5,703.5 C 4324.83,703.5 4330.17,703.5 4335.5,703.5C 4335.5,708.833 4335.5,714.167 4335.5,719.5C 4330.17,719.5 4324.83,719.5 4319.5,719.5C 4319.5,714.167 4319.5,708.833 4319.5,703.5 Z"/></g>
<g><path style="opacity:1" fill="#fffee4" d="M 4863.5,703.5 C 4863.5,714.167 4863.5,724.833 4863.5,735.5C 4863.5,767.5 4863.5,799.5 4863.5,831.5C 4863.5,836.833 4863.5,842.167 4863.5,847.5C 4858.17,847.5 4852.83,847.5 4847.5,847.5C 4847.5,799.5 4847.5,751.5 4847.5,703.5C 4852.83,703.5 4858.17,703.5 4863.5,703.5 Z"/></g>
<g><path style="opacity:1" fill="#1a3351" d="M 4879.5,703.5 C 4884.83,703.5 4890.17,703.5 4895.5,703.5C 4895.5,708.833 4895.5,714.167 4895.5,719.5C 4890.17,719.5 4884.83,719.5 4879.5,719.5C 4879.5,714.167 4879.5,708.833 4879.5,703.5 Z"/></g>
<g><path style="opacity:1" fill="#364056" d="M 4895.5,703.5 C 5183.5,703.5 5471.5,703.5 5759.5,703.5C 5759.5,708.833 5759.5,714.167 5759.5,719.5C 5471.5,719.5 5183.5,719.5 4895.5,719.5C 4895.5,714.167 4895.5,708.833 4895.5,703.5 Z"/></g>
<g><path style="opacity:1" fill="#1f2a56" d="M 5759.5,703.5 C 5764.83,703.5 5770.17,703.5 5775.5,703.5C 5775.5,708.833 5775.5,714.167 5775.5,719.5C 5770.17,719.5 5764.83,719.5 5759.5,719.5C 5759.5,714.167 5759.5,708.833 5759.5,703.5 Z"/></g>
<g><path style="opacity:1" fill="#fffef7" d="M 383.5,719.5 C 383.5,858.167 383.5,996.833 383.5,1135.5C 383.5,1140.83 383.5,1146.17 383.5,1151.5C 378.167,1151.5 372.833,1151.5 367.5,1151.5C 367.5,1007.5 367.5,863.5 367.5,719.5C 372.833,719.5 378.167,719.5 383.5,719.5 Z"/></g>
<g><path style="opacity:1" fill="#0c253e" d="M 415.5,719.5 C 420.833,719.5 426.167,719.5 431.5,719.5C 815.5,719.5 1199.5,719.5 1583.5,719.5C 1588.83,719.5 1594.17,719.5 1599.5,719.5C 1599.5,724.833 1599.5,730.167 1599.5,735.5C 1599.5,868.833 1599.5,1002.17 1599.5,1135.5C 1599.5,1140.83 1599.5,1146.17 1599.5,1151.5C 1594.17,1151.5 1588.83,1151.5 1583.5,1151.5C 1556.83,1151.5 1530.17,1151.5 1503.5,1151.5C 1498.17,1151.5 1492.83,1151.5 1487.5,1151.5C 1487.5,1146.17 1487.5,1140.83 1487.5,1135.5C 1487.5,1098.17 1487.5,1060.83 1487.5,1023.5C 1487.5,1018.17 1487.5,1012.83 1487.5,1007.5C 1482.17,1007.5 1476.83,1007.5 1471.5,1007.5C 1466.17,1007.5 1460.83,1007.5 1455.5,1007.5C 1455.5,1002.17 1455.5,996.833 1455.5,991.5C 1450.17,991.5 1444.83,991.5 1439.5,991.5C 1354.17,991.5 1268.83,991.5 1183.5,991.5C 1178.17,991.5 1172.83,991.5 1167.5,991.5C 1167.5,996.833 1167.5,1002.17 1167.5,1007.5C 1162.17,1007.5 1156.83,1007.5 1151.5,1007.5C 1151.5,1012.83 1151.5,1018.17 1151.5,1023.5C 1146.17,1023.5 1140.83,1023.5 1135.5,1023.5C 1135.5,1423.5 1135.5,1823.5 1135.5,2223.5C 1050.17,2223.5 964.833,2223.5 879.5,2223.5C 879.5,1828.83 879.5,1434.17 879.5,1039.5C 874.167,1039.5 868.833,1039.5 863.5,1039.5C 863.5,1034.17 863.5,1028.83 863.5,1023.5C 863.5,1018.17 863.5,1012.83 863.5,1007.5C 858.167,1007.5 852.833,1007.5 847.5,1007.5C 847.5,1002.17 847.5,996.833 847.5,991.5C 842.167,991.5 836.833,991.5 831.5,991.5C 740.833,991.5 650.167,991.5 559.5,991.5C 559.5,996.833 559.5,1002.17 559.5,1007.5C 554.167,1007.5 548.833,1007.5 543.5,1007.5C 538.167,1007.5 532.833,1007.5 527.5,1007.5C 527.5,1012.83 527.5,1018.17 527.5,1023.5C 527.5,1060.83 527.5,1098.17 527.5,1135.5C 527.5,1140.83 527.5,1146.17 527.5,1151.5C 522.167,1151.5 516.833,1151.5 511.5,1151.5C 484.833,1151.5 458.167,1151.5 431.5,1151.5C 426.167,1151.5 420.833,1151.5 415.5,1151.5C 415.5,1146.17 415.5,1140.83 415.5,1135.5C 415.5,996.833 415.5,858.167 415.5,719.5 Z"/></g>
<g><path style="opacity:1" fill="#11387e" d="M 1599.5,703.5 C 1604.83,703.5 1610.17,703.5 1615.5,703.5C 1615.5,714.167 1615.5,724.833 1615.5,735.5C 1610.17,735.5 1604.83,735.5 1599.5,735.5C 1599.5,730.167 1599.5,724.833 1599.5,719.5C 1599.5,714.167 1599.5,708.833 1599.5,703.5 Z"/></g>
<g><path style="opacity:1" fill="#60333d" d="M 2143.5,719.5 C 2148.83,719.5 2154.17,719.5 2159.5,719.5C 2159.5,724.833 2159.5,730.167 2159.5,735.5C 2154.17,735.5 2148.83,735.5 2143.5,735.5C 2143.5,730.167 2143.5,724.833 2143.5,719.5 Z"/></g>
<g><path style="opacity:1" fill="#0c253e" d="M 2159.5,719.5 C 2164.83,719.5 2170.17,719.5 2175.5,719.5C 2356.83,719.5 2538.17,719.5 2719.5,719.5C 2724.83,719.5 2730.17,719.5 2735.5,719.5C 2735.5,724.833 2735.5,730.167 2735.5,735.5C 2735.5,767.5 2735.5,799.5 2735.5,831.5C 2735.5,836.833 2735.5,842.167 2735.5,847.5C 2735.5,852.833 2735.5,858.167 2735.5,863.5C 2740.83,863.5 2746.17,863.5 2751.5,863.5C 2756.83,863.5 2762.17,863.5 2767.5,863.5C 2772.83,863.5 2778.17,863.5 2783.5,863.5C 2815.5,863.5 2847.5,863.5 2879.5,863.5C 2879.5,868.833 2879.5,874.167 2879.5,879.5C 2884.83,879.5 2890.17,879.5 2895.5,879.5C 2895.5,884.833 2895.5,890.167 2895.5,895.5C 2890.17,895.5 2884.83,895.5 2879.5,895.5C 2879.5,927.5 2879.5,959.5 2879.5,991.5C 2884.83,991.5 2890.17,991.5 2895.5,991.5C 2895.5,996.833 2895.5,1002.17 2895.5,1007.5C 2900.83,1007.5 2906.17,1007.5 2911.5,1007.5C 2916.83,1007.5 2922.17,1007.5 2927.5,1007.5C 2927.5,1012.83 2927.5,1018.17 2927.5,1023.5C 2959.5,1023.5 2991.5,1023.5 3023.5,1023.5C 3028.83,1023.5 3034.17,1023.5 3039.5,1023.5C 3039.5,1418.17 3039.5,1812.83 3039.5,2207.5C 3039.5,2212.83 3039.5,2218.17 3039.5,2223.5C 3034.17,2223.5 3028.83,2223.5 3023.5,2223.5C 2943.5,2223.5 2863.5,2223.5 2783.5,2223.5C 2778.17,2223.5 2772.83,2223.5 2767.5,2223.5C 2767.5,2084.83 2767.5,1946.17 2767.5,1807.5C 2767.5,1802.17 2767.5,1796.83 2767.5,1791.5C 2767.5,1786.17 2767.5,1780.83 2767.5,1775.5C 2762.17,1775.5 2756.83,1775.5 2751.5,1775.5C 2746.17,1775.5 2740.83,1775.5 2735.5,1775.5C 2543.5,1775.5 2351.5,1775.5 2159.5,1775.5C 2154.17,1775.5 2148.83,1775.5 2143.5,1775.5C 2138.17,1775.5 2132.83,1775.5 2127.5,1775.5C 2127.5,1780.83 2127.5,1786.17 2127.5,1791.5C 2127.5,1935.5 2127.5,2079.5 2127.5,2223.5C 2122.17,2223.5 2116.83,2223.5 2111.5,2223.5C 2031.5,2223.5 1951.5,2223.5 1871.5,2223.5C 1866.17,2223.5 1860.83,2223.5 1855.5,2223.5C 1855.5,1823.5 1855.5,1423.5 1855.5,1023.5C 1860.83,1023.5 1866.17,1023.5 1871.5,1023.5C 1903.5,1023.5 1935.5,1023.5 1967.5,1023.5C 1967.5,1018.17 1967.5,1012.83 1967.5,1007.5C 1972.83,1007.5 1978.17,1007.5 1983.5,1007.5C 1988.83,1007.5 1994.17,1007.5 1999.5,1007.5C 1999.5,1002.17 1999.5,996.833 1999.5,991.5C 2004.83,991.5 2010.17,991.5 2015.5,991.5C 2015.5,959.5 2015.5,927.5 2015.5,895.5C 2010.17,895.5 2004.83,895.5 1999.5,895.5C 1999.5,890.167 1999.5,884.833 1999.5,879.5C 2004.83,879.5 2010.17,879.5 2015.5,879.5C 2015.5,874.167 2015.5,868.833 2015.5,863.5C 2047.5,863.5 2079.5,863.5 2111.5,863.5C 2116.83,863.5 2122.17,863.5 2127.5,863.5C 2132.83,863.5 2138.17,863.5 2143.5,863.5C 2148.83,863.5 2154.17,863.5 2159.5,863.5C 2159.5,858.167 2159.5,852.833 2159.5,847.5C 2159.5,842.167 2159.5,836.833 2159.5,831.5C 2159.5,799.5 2159.5,767.5 2159.5,735.5C 2159.5,730.167 2159.5,724.833 2159.5,719.5 Z M 2303.5,1023.5 C 2399.5,1023.5 2495.5,1023.5 2591.5,1023.5C 2591.5,1060.83 2591.5,1098.17 2591.5,1135.5C 2591.5,1140.83 2591.5,1146.17 2591.5,1151.5C 2591.5,1156.83 2591.5,1162.17 2591.5,1167.5C 2596.83,1167.5 2602.17,1167.5 2607.5,1167.5C 2612.83,1167.5 2618.17,1167.5 2623.5,1167.5C 2660.83,1167.5 2698.17,1167.5 2735.5,1167.5C 2735.5,1172.83 2735.5,1178.17 2735.5,1183.5C 2735.5,1274.17 2735.5,1364.83 2735.5,1455.5C 2735.5,1460.83 2735.5,1466.17 2735.5,1471.5C 2543.5,1471.5 2351.5,1471.5 2159.5,1471.5C 2159.5,1375.5 2159.5,1279.5 2159.5,1183.5C 2159.5,1178.17 2159.5,1172.83 2159.5,1167.5C 2196.83,1167.5 2234.17,1167.5 2271.5,1167.5C 2276.83,1167.5 2282.17,1167.5 2287.5,1167.5C 2292.83,1167.5 2298.17,1167.5 2303.5,1167.5C 2303.5,1162.17 2303.5,1156.83 2303.5,1151.5C 2303.5,1108.83 2303.5,1066.17 2303.5,1023.5 Z"/></g>
<g><path style="opacity:1" fill="#123f88" d="M 2735.5,703.5 C 2740.83,703.5 2746.17,703.5 2751.5,703.5C 2751.5,714.167 2751.5,724.833 2751.5,735.5C 2746.17,735.5 2740.83,735.5 2735.5,735.5C 2735.5,730.167 2735.5,724.833 2735.5,719.5C 2735.5,714.167 2735.5,708.833 2735.5,703.5 Z"/></g>
<g><path style="opacity:1" fill="#ba7452" d="M 3423.5,703.5 C 3428.83,703.5 3434.17,703.5 3439.5,703.5C 3439.5,708.833 3439.5,714.167 3439.5,719.5C 3439.5,724.833 3439.5,730.167 3439.5,735.5C 3434.17,735.5 3428.83,735.5 3423.5,735.5C 3423.5,724.833 3423.5,714.167 3423.5,703.5 Z"/></g>
<g><path style="opacity:1" fill="#0c253e" d="M 3439.5,719.5 C 3444.83,719.5 3450.17,719.5 3455.5,719.5C 3743.5,719.5 4031.5,719.5 4319.5,719.5C 4319.5,756.833 4319.5,794.167 4319.5,831.5C 4319.5,836.833 4319.5,842.167 4319.5,847.5C 4324.83,847.5 4330.17,847.5 4335.5,847.5C 4335.5,852.833 4335.5,858.167 4335.5,863.5C 4340.83,863.5 4346.17,863.5 4351.5,863.5C 4356.83,863.5 4362.17,863.5 4367.5,863.5C 4404.83,863.5 4442.17,863.5 4479.5,863.5C 4479.5,868.833 4479.5,874.167 4479.5,879.5C 4479.5,964.833 4479.5,1050.17 4479.5,1135.5C 4479.5,1140.83 4479.5,1146.17 4479.5,1151.5C 4474.17,1151.5 4468.83,1151.5 4463.5,1151.5C 4378.17,1151.5 4292.83,1151.5 4207.5,1151.5C 4207.5,1146.17 4207.5,1140.83 4207.5,1135.5C 4207.5,1103.5 4207.5,1071.5 4207.5,1039.5C 4207.5,1034.17 4207.5,1028.83 4207.5,1023.5C 4207.5,1018.17 4207.5,1012.83 4207.5,1007.5C 4202.17,1007.5 4196.83,1007.5 4191.5,1007.5C 4186.17,1007.5 4180.83,1007.5 4175.5,1007.5C 4175.5,1002.17 4175.5,996.833 4175.5,991.5C 4170.17,991.5 4164.83,991.5 4159.5,991.5C 3972.83,991.5 3786.17,991.5 3599.5,991.5C 3599.5,996.833 3599.5,1002.17 3599.5,1007.5C 3594.17,1007.5 3588.83,1007.5 3583.5,1007.5C 3578.17,1007.5 3572.83,1007.5 3567.5,1007.5C 3567.5,1012.83 3567.5,1018.17 3567.5,1023.5C 3567.5,1028.83 3567.5,1034.17 3567.5,1039.5C 3562.17,1039.5 3556.83,1039.5 3551.5,1039.5C 3551.5,1327.5 3551.5,1615.5 3551.5,1903.5C 3556.83,1903.5 3562.17,1903.5 3567.5,1903.5C 3567.5,1908.83 3567.5,1914.17 3567.5,1919.5C 3567.5,1924.83 3567.5,1930.17 3567.5,1935.5C 3572.83,1935.5 3578.17,1935.5 3583.5,1935.5C 3588.83,1935.5 3594.17,1935.5 3599.5,1935.5C 3599.5,1940.83 3599.5,1946.17 3599.5,1951.5C 3786.17,1951.5 3972.83,1951.5 4159.5,1951.5C 4164.83,1951.5 4170.17,1951.5 4175.5,1951.5C 4175.5,1946.17 4175.5,1940.83 4175.5,1935.5C 4180.83,1935.5 4186.17,1935.5 4191.5,1935.5C 4196.83,1935.5 4202.17,1935.5 4207.5,1935.5C 4207.5,1930.17 4207.5,1924.83 4207.5,1919.5C 4207.5,1914.17 4207.5,1908.83 4207.5,1903.5C 4207.5,1871.5 4207.5,1839.5 4207.5,1807.5C 4207.5,1802.17 4207.5,1796.83 4207.5,1791.5C 4292.83,1791.5 4378.17,1791.5 4463.5,1791.5C 4468.83,1791.5 4474.17,1791.5 4479.5,1791.5C 4479.5,1796.83 4479.5,1802.17 4479.5,1807.5C 4479.5,1892.83 4479.5,1978.17 4479.5,2063.5C 4479.5,2068.83 4479.5,2074.17 4479.5,2079.5C 4442.17,2079.5 4404.83,2079.5 4367.5,2079.5C 4362.17,2079.5 4356.83,2079.5 4351.5,2079.5C 4346.17,2079.5 4340.83,2079.5 4335.5,2079.5C 4335.5,2084.83 4335.5,2090.17 4335.5,2095.5C 4330.17,2095.5 4324.83,2095.5 4319.5,2095.5C 4319.5,2100.83 4319.5,2106.17 4319.5,2111.5C 4319.5,2148.83 4319.5,2186.17 4319.5,2223.5C 4031.5,2223.5 3743.5,2223.5 3455.5,2223.5C 3450.17,2223.5 3444.83,2223.5 3439.5,2223.5C 3439.5,2218.17 3439.5,2212.83 3439.5,2207.5C 3439.5,2175.5 3439.5,2143.5 3439.5,2111.5C 3439.5,2106.17 3439.5,2100.83 3439.5,2095.5C 3439.5,2090.17 3439.5,2084.83 3439.5,2079.5C 3434.17,2079.5 3428.83,2079.5 3423.5,2079.5C 3418.17,2079.5 3412.83,2079.5 3407.5,2079.5C 3402.17,2079.5 3396.83,2079.5 3391.5,2079.5C 3359.5,2079.5 3327.5,2079.5 3295.5,2079.5C 3290.17,2079.5 3284.83,2079.5 3279.5,2079.5C 3279.5,2074.17 3279.5,2068.83 3279.5,2063.5C 3279.5,1668.83 3279.5,1274.17 3279.5,879.5C 3279.5,874.167 3279.5,868.833 3279.5,863.5C 3284.83,863.5 3290.17,863.5 3295.5,863.5C 3327.5,863.5 3359.5,863.5 3391.5,863.5C 3396.83,863.5 3402.17,863.5 3407.5,863.5C 3412.83,863.5 3418.17,863.5 3423.5,863.5C 3428.83,863.5 3434.17,863.5 3439.5,863.5C 3439.5,858.167 3439.5,852.833 3439.5,847.5C 3439.5,842.167 3439.5,836.833 3439.5,831.5C 3439.5,799.5 3439.5,767.5 3439.5,735.5C 3439.5,730.167 3439.5,724.833 3439.5,719.5 Z"/></g>
<g><path style="opacity:1" fill="#6bafeb" d="M 4335.5,703.5 C 4340.83,703.5 4346.17,703.5 4351.5,703.5C 4351.5,714.167 4351.5,724.833 4351.5,735.5C 4346.17,735.5 4340.83,735.5 4335.5,735.5C 4335.5,730.167 4335.5,724.833 4335.5,719.5C 4335.5,714.167 4335.5,708.833 4335.5,703.5 Z"/></g>
<g><path style="opacity:1" fill="#a76248" d="M 4863.5,703.5 C 4868.83,703.5 4874.17,703.5 4879.5,703.5C 4879.5,708.833 4879.5,714.167 4879.5,719.5C 4879.5,724.833 4879.5,730.167 4879.5,735.5C 4874.17,735.5 4868.83,735.5 4863.5,735.5C 4863.5,724.833 4863.5,714.167 4863.5,703.5 Z"/></g>
<g><path style="opacity:1" fill="#0c253e" d="M 4879.5,719.5 C 4884.83,719.5 4890.17,719.5 4895.5,719.5C 5183.5,719.5 5471.5,719.5 5759.5,719.5C 5759.5,756.833 5759.5,794.167 5759.5,831.5C 5759.5,836.833 5759.5,842.167 5759.5,847.5C 5764.83,847.5 5770.17,847.5 5775.5,847.5C 5775.5,852.833 5775.5,858.167 5775.5,863.5C 5780.83,863.5 5786.17,863.5 5791.5,863.5C 5796.83,863.5 5802.17,863.5 5807.5,863.5C 5844.83,863.5 5882.17,863.5 5919.5,863.5C 5919.5,868.833 5919.5,874.167 5919.5,879.5C 5919.5,1274.17 5919.5,1668.83 5919.5,2063.5C 5919.5,2068.83 5919.5,2074.17 5919.5,2079.5C 5882.17,2079.5 5844.83,2079.5 5807.5,2079.5C 5802.17,2079.5 5796.83,2079.5 5791.5,2079.5C 5786.17,2079.5 5780.83,2079.5 5775.5,2079.5C 5775.5,2084.83 5775.5,2090.17 5775.5,2095.5C 5770.17,2095.5 5764.83,2095.5 5759.5,2095.5C 5759.5,2100.83 5759.5,2106.17 5759.5,2111.5C 5759.5,2148.83 5759.5,2186.17 5759.5,2223.5C 5471.5,2223.5 5183.5,2223.5 4895.5,2223.5C 4890.17,2223.5 4884.83,2223.5 4879.5,2223.5C 4879.5,2218.17 4879.5,2212.83 4879.5,2207.5C 4879.5,2175.5 4879.5,2143.5 4879.5,2111.5C 4879.5,2106.17 4879.5,2100.83 4879.5,2095.5C 4879.5,2090.17 4879.5,2084.83 4879.5,2079.5C 4874.17,2079.5 4868.83,2079.5 4863.5,2079.5C 4858.17,2079.5 4852.83,2079.5 4847.5,2079.5C 4842.17,2079.5 4836.83,2079.5 4831.5,2079.5C 4799.5,2079.5 4767.5,2079.5 4735.5,2079.5C 4730.17,2079.5 4724.83,2079.5 4719.5,2079.5C 4719.5,2074.17 4719.5,2068.83 4719.5,2063.5C 4719.5,1668.83 4719.5,1274.17 4719.5,879.5C 4719.5,874.167 4719.5,868.833 4719.5,863.5C 4724.83,863.5 4730.17,863.5 4735.5,863.5C 4767.5,863.5 4799.5,863.5 4831.5,863.5C 4836.83,863.5 4842.17,863.5 4847.5,863.5C 4852.83,863.5 4858.17,863.5 4863.5,863.5C 4868.83,863.5 4874.17,863.5 4879.5,863.5C 4879.5,858.167 4879.5,852.833 4879.5,847.5C 4879.5,842.167 4879.5,836.833 4879.5,831.5C 4879.5,799.5 4879.5,767.5 4879.5,735.5C 4879.5,730.167 4879.5,724.833 4879.5,719.5 Z M 5023.5,1023.5 C 5028.83,1023.5 5034.17,1023.5 5039.5,1023.5C 5231.5,1023.5 5423.5,1023.5 5615.5,1023.5C 5615.5,1322.17 5615.5,1620.83 5615.5,1919.5C 5423.5,1919.5 5231.5,1919.5 5039.5,1919.5C 5034.17,1919.5 5028.83,1919.5 5023.5,1919.5C 5023.5,1620.83 5023.5,1322.17 5023.5,1023.5 Z"/></g>
<g><path style="opacity:1" fill="#e1b779" d="M 383.5,719.5 C 388.833,719.5 394.167,719.5 399.5,719.5C 399.5,858.167 399.5,996.833 399.5,1135.5C 394.167,1135.5 388.833,1135.5 383.5,1135.5C 383.5,996.833 383.5,858.167 383.5,719.5 Z"/></g>
<g><path style="opacity:1" fill="#1a253e" d="M 399.5,719.5 C 404.833,719.5 410.167,719.5 415.5,719.5C 415.5,858.167 415.5,996.833 415.5,1135.5C 410.167,1135.5 404.833,1135.5 399.5,1135.5C 399.5,996.833 399.5,858.167 399.5,719.5 Z"/></g>
<g><path style="opacity:1" fill="#0d4186" d="M 1599.5,735.5 C 1604.83,735.5 1610.17,735.5 1615.5,735.5C 1615.5,868.833 1615.5,1002.17 1615.5,1135.5C 1610.17,1135.5 1604.83,1135.5 1599.5,1135.5C 1599.5,1002.17 1599.5,868.833 1599.5,735.5 Z"/></g>
<g><path style="opacity:1" fill="#bae9ff" d="M 1615.5,703.5 C 1620.83,703.5 1626.17,703.5 1631.5,703.5C 1631.5,847.5 1631.5,991.5 1631.5,1135.5C 1626.17,1135.5 1620.83,1135.5 1615.5,1135.5C 1615.5,1002.17 1615.5,868.833 1615.5,735.5C 1615.5,724.833 1615.5,714.167 1615.5,703.5 Z"/></g>
<g><path style="opacity:1" fill="#fee1b3" d="M 2143.5,703.5 C 2143.5,708.833 2143.5,714.167 2143.5,719.5C 2143.5,724.833 2143.5,730.167 2143.5,735.5C 2143.5,767.5 2143.5,799.5 2143.5,831.5C 2143.5,836.833 2143.5,842.167 2143.5,847.5C 2138.17,847.5 2132.83,847.5 2127.5,847.5C 2127.5,799.5 2127.5,751.5 2127.5,703.5C 2132.83,703.5 2138.17,703.5 2143.5,703.5 Z"/></g>
<g><path style="opacity:1" fill="#6a3a3d" d="M 2143.5,735.5 C 2148.83,735.5 2154.17,735.5 2159.5,735.5C 2159.5,767.5 2159.5,799.5 2159.5,831.5C 2154.17,831.5 2148.83,831.5 2143.5,831.5C 2143.5,799.5 2143.5,767.5 2143.5,735.5 Z"/></g>
<g><path style="opacity:1" fill="#104990" d="M 2735.5,735.5 C 2740.83,735.5 2746.17,735.5 2751.5,735.5C 2751.5,767.5 2751.5,799.5 2751.5,831.5C 2746.17,831.5 2740.83,831.5 2735.5,831.5C 2735.5,799.5 2735.5,767.5 2735.5,735.5 Z"/></g>
<g><path style="opacity:1" fill="#c3efff" d="M 2751.5,703.5 C 2756.83,703.5 2762.17,703.5 2767.5,703.5C 2767.5,751.5 2767.5,799.5 2767.5,847.5C 2762.17,847.5 2756.83,847.5 2751.5,847.5C 2751.5,842.167 2751.5,836.833 2751.5,831.5C 2751.5,799.5 2751.5,767.5 2751.5,735.5C 2751.5,724.833 2751.5,714.167 2751.5,703.5 Z"/></g>
<g><path style="opacity:1" fill="#fffeee" d="M 3423.5,703.5 C 3423.5,714.167 3423.5,724.833 3423.5,735.5C 3423.5,767.5 3423.5,799.5 3423.5,831.5C 3423.5,836.833 3423.5,842.167 3423.5,847.5C 3418.17,847.5 3412.83,847.5 3407.5,847.5C 3407.5,799.5 3407.5,751.5 3407.5,703.5C 3412.83,703.5 3418.17,703.5 3423.5,703.5 Z"/></g>
<g><path style="opacity:1" fill="#c07e5a" d="M 3423.5,735.5 C 3428.83,735.5 3434.17,735.5 3439.5,735.5C 3439.5,767.5 3439.5,799.5 3439.5,831.5C 3434.17,831.5 3428.83,831.5 3423.5,831.5C 3423.5,799.5 3423.5,767.5 3423.5,735.5 Z"/></g>
<g><path style="opacity:1" fill="#0c2557" d="M 4319.5,719.5 C 4324.83,719.5 4330.17,719.5 4335.5,719.5C 4335.5,724.833 4335.5,730.167 4335.5,735.5C 4335.5,767.5 4335.5,799.5 4335.5,831.5C 4330.17,831.5 4324.83,831.5 4319.5,831.5C 4319.5,794.167 4319.5,756.833 4319.5,719.5 Z"/></g>
<g><path style="opacity:1" fill="#77b6ec" d="M 4335.5,735.5 C 4340.83,735.5 4346.17,735.5 4351.5,735.5C 4351.5,767.5 4351.5,799.5 4351.5,831.5C 4346.17,831.5 4340.83,831.5 4335.5,831.5C 4335.5,799.5 4335.5,767.5 4335.5,735.5 Z"/></g>
<g><path style="opacity:1" fill="#ae6e50" d="M 4863.5,735.5 C 4868.83,735.5 4874.17,735.5 4879.5,735.5C 4879.5,767.5 4879.5,799.5 4879.5,831.5C 4874.17,831.5 4868.83,831.5 4863.5,831.5C 4863.5,799.5 4863.5,767.5 4863.5,735.5 Z"/></g>
<g><path style="opacity:1" fill="#0c2762" d="M 5759.5,719.5 C 5764.83,719.5 5770.17,719.5 5775.5,719.5C 5775.5,756.833 5775.5,794.167 5775.5,831.5C 5770.17,831.5 5764.83,831.5 5759.5,831.5C 5759.5,794.167 5759.5,756.833 5759.5,719.5 Z"/></g>
<g><path style="opacity:1" fill="#88c5f6" d="M 5775.5,703.5 C 5780.83,703.5 5786.17,703.5 5791.5,703.5C 5791.5,746.167 5791.5,788.833 5791.5,831.5C 5786.17,831.5 5780.83,831.5 5775.5,831.5C 5775.5,794.167 5775.5,756.833 5775.5,719.5C 5775.5,714.167 5775.5,708.833 5775.5,703.5 Z"/></g>
<g><path style="opacity:1" fill="#562e3d" d="M 2143.5,831.5 C 2148.83,831.5 2154.17,831.5 2159.5,831.5C 2159.5,836.833 2159.5,842.167 2159.5,847.5C 2154.17,847.5 2148.83,847.5 2143.5,847.5C 2143.5,842.167 2143.5,836.833 2143.5,831.5 Z"/></g>
<g><path style="opacity:1" fill="#0c3982" d="M 2735.5,831.5 C 2740.83,831.5 2746.17,831.5 2751.5,831.5C 2751.5,836.833 2751.5,842.167 2751.5,847.5C 2746.17,847.5 2740.83,847.5 2735.5,847.5C 2735.5,842.167 2735.5,836.833 2735.5,831.5 Z"/></g>
<g><path style="opacity:1" fill="#b26a4b" d="M 3423.5,831.5 C 3428.83,831.5 3434.17,831.5 3439.5,831.5C 3439.5,836.833 3439.5,842.167 3439.5,847.5C 3434.17,847.5 3428.83,847.5 3423.5,847.5C 3423.5,842.167 3423.5,836.833 3423.5,831.5 Z"/></g>
<g><path style="opacity:1" fill="#0c2549" d="M 4319.5,831.5 C 4324.83,831.5 4330.17,831.5 4335.5,831.5C 4335.5,836.833 4335.5,842.167 4335.5,847.5C 4330.17,847.5 4324.83,847.5 4319.5,847.5C 4319.5,842.167 4319.5,836.833 4319.5,831.5 Z"/></g>
<g><path style="opacity:1" fill="#5fa9e8" d="M 4335.5,831.5 C 4340.83,831.5 4346.17,831.5 4351.5,831.5C 4351.5,836.833 4351.5,842.167 4351.5,847.5C 4346.17,847.5 4340.83,847.5 4335.5,847.5C 4335.5,842.167 4335.5,836.833 4335.5,831.5 Z"/></g>
<g><path style="opacity:1" fill="#9e5842" d="M 4863.5,831.5 C 4868.83,831.5 4874.17,831.5 4879.5,831.5C 4879.5,836.833 4879.5,842.167 4879.5,847.5C 4874.17,847.5 4868.83,847.5 4863.5,847.5C 4863.5,842.167 4863.5,836.833 4863.5,831.5 Z"/></g>
<g><path style="opacity:1" fill="#0c2452" d="M 5759.5,831.5 C 5764.83,831.5 5770.17,831.5 5775.5,831.5C 5775.5,836.833 5775.5,842.167 5775.5,847.5C 5770.17,847.5 5764.83,847.5 5759.5,847.5C 5759.5,842.167 5759.5,836.833 5759.5,831.5 Z"/></g>
<g><path style="opacity:1" fill="#76bbf0" d="M 5775.5,831.5 C 5780.83,831.5 5786.17,831.5 5791.5,831.5C 5791.5,836.833 5791.5,842.167 5791.5,847.5C 5786.17,847.5 5780.83,847.5 5775.5,847.5C 5775.5,842.167 5775.5,836.833 5775.5,831.5 Z"/></g>
<g><path style="opacity:1" fill="#fefbf1" d="M 1999.5,847.5 C 1999.5,852.833 1999.5,858.167 1999.5,863.5C 1994.17,863.5 1988.83,863.5 1983.5,863.5C 1983.5,858.167 1983.5,852.833 1983.5,847.5C 1988.83,847.5 1994.17,847.5 1999.5,847.5 Z"/></g>
<g><path style="opacity:1" fill="#dbd4d9" d="M 1999.5,847.5 C 2036.83,847.5 2074.17,847.5 2111.5,847.5C 2111.5,852.833 2111.5,858.167 2111.5,863.5C 2079.5,863.5 2047.5,863.5 2015.5,863.5C 2010.17,863.5 2004.83,863.5 1999.5,863.5C 1999.5,858.167 1999.5,852.833 1999.5,847.5 Z"/></g>
<g><path style="opacity:1" fill="#e6d5cb" d="M 2111.5,847.5 C 2116.83,847.5 2122.17,847.5 2127.5,847.5C 2127.5,852.833 2127.5,858.167 2127.5,863.5C 2122.17,863.5 2116.83,863.5 2111.5,863.5C 2111.5,858.167 2111.5,852.833 2111.5,847.5 Z"/></g>
<g><path style="opacity:1" fill="#b99876" d="M 2127.5,847.5 C 2132.83,847.5 2138.17,847.5 2143.5,847.5C 2143.5,852.833 2143.5,858.167 2143.5,863.5C 2138.17,863.5 2132.83,863.5 2127.5,863.5C 2127.5,858.167 2127.5,852.833 2127.5,847.5 Z"/></g>
<g><path style="opacity:1" fill="#2f273e" d="M 2143.5,847.5 C 2148.83,847.5 2154.17,847.5 2159.5,847.5C 2159.5,852.833 2159.5,858.167 2159.5,863.5C 2154.17,863.5 2148.83,863.5 2143.5,863.5C 2143.5,858.167 2143.5,852.833 2143.5,847.5 Z"/></g>
<g><path style="opacity:1" fill="#0c2a5e" d="M 2735.5,847.5 C 2740.83,847.5 2746.17,847.5 2751.5,847.5C 2751.5,852.833 2751.5,858.167 2751.5,863.5C 2746.17,863.5 2740.83,863.5 2735.5,863.5C 2735.5,858.167 2735.5,852.833 2735.5,847.5 Z"/></g>
<g><path style="opacity:1" fill="#75a9c1" d="M 2751.5,847.5 C 2756.83,847.5 2762.17,847.5 2767.5,847.5C 2767.5,852.833 2767.5,858.167 2767.5,863.5C 2762.17,863.5 2756.83,863.5 2751.5,863.5C 2751.5,858.167 2751.5,852.833 2751.5,847.5 Z"/></g>
<g><path style="opacity:1" fill="#d0dae2" d="M 2767.5,847.5 C 2772.83,847.5 2778.17,847.5 2783.5,847.5C 2783.5,852.833 2783.5,858.167 2783.5,863.5C 2778.17,863.5 2772.83,863.5 2767.5,863.5C 2767.5,858.167 2767.5,852.833 2767.5,847.5 Z"/></g>
<g><path style="opacity:1" fill="#dbd5da" d="M 2783.5,847.5 C 2820.83,847.5 2858.17,847.5 2895.5,847.5C 2895.5,852.833 2895.5,858.167 2895.5,863.5C 2890.17,863.5 2884.83,863.5 2879.5,863.5C 2847.5,863.5 2815.5,863.5 2783.5,863.5C 2783.5,858.167 2783.5,852.833 2783.5,847.5 Z"/></g>
<g><path style="opacity:1" fill="#f8fcfe" d="M 2895.5,847.5 C 2900.83,847.5 2906.17,847.5 2911.5,847.5C 2911.5,852.833 2911.5,858.167 2911.5,863.5C 2906.17,863.5 2900.83,863.5 2895.5,863.5C 2895.5,858.167 2895.5,852.833 2895.5,847.5 Z"/></g>
<g><path style="opacity:1" fill="#fef3e2" d="M 3279.5,847.5 C 3279.5,852.833 3279.5,858.167 3279.5,863.5C 3274.17,863.5 3268.83,863.5 3263.5,863.5C 3263.5,858.167 3263.5,852.833 3263.5,847.5C 3268.83,847.5 3274.17,847.5 3279.5,847.5 Z"/></g>
<g><path style="opacity:1" fill="#c8a4af" d="M 3279.5,847.5 C 3284.83,847.5 3290.17,847.5 3295.5,847.5C 3295.5,852.833 3295.5,858.167 3295.5,863.5C 3290.17,863.5 3284.83,863.5 3279.5,863.5C 3279.5,858.167 3279.5,852.833 3279.5,847.5 Z"/></g>
<g><path style="opacity:1" fill="#b4b0b9" d="M 3295.5,847.5 C 3327.5,847.5 3359.5,847.5 3391.5,847.5C 3391.5,852.833 3391.5,858.167 3391.5,863.5C 3359.5,863.5 3327.5,863.5 3295.5,863.5C 3295.5,858.167 3295.5,852.833 3295.5,847.5 Z"/></g>
<g><path style="opacity:1" fill="#b9b8b5" d="M 3391.5,847.5 C 3396.83,847.5 3402.17,847.5 3407.5,847.5C 3407.5,852.833 3407.5,858.167 3407.5,863.5C 3402.17,863.5 3396.83,863.5 3391.5,863.5C 3391.5,858.167 3391.5,852.833 3391.5,847.5 Z"/></g>
<g><path style="opacity:1" fill="#9a847e" d="M 3407.5,847.5 C 3412.83,847.5 3418.17,847.5 3423.5,847.5C 3423.5,852.833 3423.5,858.167 3423.5,863.5C 3418.17,863.5 3412.83,863.5 3407.5,863.5C 3407.5,858.167 3407.5,852.833 3407.5,847.5 Z"/></g>
<g><path style="opacity:1" fill="#43343e" d="M 3423.5,847.5 C 3428.83,847.5 3434.17,847.5 3439.5,847.5C 3439.5,852.833 3439.5,858.167 3439.5,863.5C 3434.17,863.5 3428.83,863.5 3423.5,863.5C 3423.5,858.167 3423.5,852.833 3423.5,847.5 Z"/></g>
<g><path style="opacity:1" fill="#214a7b" d="M 4335.5,847.5 C 4340.83,847.5 4346.17,847.5 4351.5,847.5C 4351.5,852.833 4351.5,858.167 4351.5,863.5C 4346.17,863.5 4340.83,863.5 4335.5,863.5C 4335.5,858.167 4335.5,852.833 4335.5,847.5 Z"/></g>
<g><path style="opacity:1" fill="#8096b3" d="M 4351.5,847.5 C 4356.83,847.5 4362.17,847.5 4367.5,847.5C 4367.5,852.833 4367.5,858.167 4367.5,863.5C 4362.17,863.5 4356.83,863.5 4351.5,863.5C 4351.5,858.167 4351.5,852.833 4351.5,847.5 Z"/></g>
<g><path style="opacity:1" fill="#b5afb8" d="M 4367.5,847.5 C 4404.83,847.5 4442.17,847.5 4479.5,847.5C 4479.5,852.833 4479.5,858.167 4479.5,863.5C 4442.17,863.5 4404.83,863.5 4367.5,863.5C 4367.5,858.167 4367.5,852.833 4367.5,847.5 Z"/></g>
<g><path style="opacity:1" fill="#a9cbec" d="M 4479.5,847.5 C 4484.83,847.5 4490.17,847.5 4495.5,847.5C 4495.5,852.833 4495.5,858.167 4495.5,863.5C 4490.17,863.5 4484.83,863.5 4479.5,863.5C 4479.5,858.167 4479.5,852.833 4479.5,847.5 Z"/></g>
<g><path style="opacity:1" fill="#fdefdb" d="M 4719.5,847.5 C 4719.5,852.833 4719.5,858.167 4719.5,863.5C 4714.17,863.5 4708.83,863.5 4703.5,863.5C 4703.5,858.167 4703.5,852.833 4703.5,847.5C 4708.83,847.5 4714.17,847.5 4719.5,847.5 Z"/></g>
<g><path style="opacity:1" fill="#bfa3b0" d="M 4719.5,847.5 C 4724.83,847.5 4730.17,847.5 4735.5,847.5C 4735.5,852.833 4735.5,858.167 4735.5,863.5C 4730.17,863.5 4724.83,863.5 4719.5,863.5C 4719.5,858.167 4719.5,852.833 4719.5,847.5 Z"/></g>
<g><path style="opacity:1" fill="#b3b0b9" d="M 4735.5,847.5 C 4767.5,847.5 4799.5,847.5 4831.5,847.5C 4831.5,852.833 4831.5,858.167 4831.5,863.5C 4799.5,863.5 4767.5,863.5 4735.5,863.5C 4735.5,858.167 4735.5,852.833 4735.5,847.5 Z"/></g>
<g><path style="opacity:1" fill="#bab9b0" d="M 4831.5,847.5 C 4836.83,847.5 4842.17,847.5 4847.5,847.5C 4847.5,852.833 4847.5,858.167 4847.5,863.5C 4842.17,863.5 4836.83,863.5 4831.5,863.5C 4831.5,858.167 4831.5,852.833 4831.5,847.5 Z"/></g>
<g><path style="opacity:1" fill="#937e75" d="M 4847.5,847.5 C 4852.83,847.5 4858.17,847.5 4863.5,847.5C 4863.5,852.833 4863.5,858.167 4863.5,863.5C 4858.17,863.5 4852.83,863.5 4847.5,863.5C 4847.5,858.167 4847.5,852.833 4847.5,847.5 Z"/></g>
<g><path style="opacity:1" fill="#392e3d" d="M 4863.5,847.5 C 4868.83,847.5 4874.17,847.5 4879.5,847.5C 4879.5,852.833 4879.5,858.167 4879.5,863.5C 4874.17,863.5 4868.83,863.5 4863.5,863.5C 4863.5,858.167 4863.5,852.833 4863.5,847.5 Z"/></g>
<g><path style="opacity:1" fill="#2a5284" d="M 5775.5,847.5 C 5780.83,847.5 5786.17,847.5 5791.5,847.5C 5791.5,852.833 5791.5,858.167 5791.5,863.5C 5786.17,863.5 5780.83,863.5 5775.5,863.5C 5775.5,858.167 5775.5,852.833 5775.5,847.5 Z"/></g>
<g><path style="opacity:1" fill="#879cb8" d="M 5791.5,847.5 C 5796.83,847.5 5802.17,847.5 5807.5,847.5C 5807.5,852.833 5807.5,858.167 5807.5,863.5C 5802.17,863.5 5796.83,863.5 5791.5,863.5C 5791.5,858.167 5791.5,852.833 5791.5,847.5 Z"/></g>
<g><path style="opacity:1" fill="#b5afb8" d="M 5807.5,847.5 C 5844.83,847.5 5882.17,847.5 5919.5,847.5C 5919.5,852.833 5919.5,858.167 5919.5,863.5C 5882.17,863.5 5844.83,863.5 5807.5,863.5C 5807.5,858.167 5807.5,852.833 5807.5,847.5 Z"/></g>
<g><path style="opacity:1" fill="#b4d5f2" d="M 5919.5,847.5 C 5924.83,847.5 5930.17,847.5 5935.5,847.5C 5935.5,852.833 5935.5,858.167 5935.5,863.5C 5930.17,863.5 5924.83,863.5 5919.5,863.5C 5919.5,858.167 5919.5,852.833 5919.5,847.5 Z"/></g>
<g><path style="opacity:1" fill="#dda882" d="M 1983.5,863.5 C 1988.83,863.5 1994.17,863.5 1999.5,863.5C 1999.5,868.833 1999.5,874.167 1999.5,879.5C 1994.17,879.5 1988.83,879.5 1983.5,879.5C 1983.5,874.167 1983.5,868.833 1983.5,863.5 Z"/></g>
<g><path style="opacity:1" fill="#3f3b47" d="M 1999.5,863.5 C 2004.83,863.5 2010.17,863.5 2015.5,863.5C 2015.5,868.833 2015.5,874.167 2015.5,879.5C 2010.17,879.5 2004.83,879.5 1999.5,879.5C 1999.5,874.167 1999.5,868.833 1999.5,863.5 Z"/></g>
<g><path style="opacity:1" fill="#254066" d="M 2879.5,863.5 C 2884.83,863.5 2890.17,863.5 2895.5,863.5C 2895.5,868.833 2895.5,874.167 2895.5,879.5C 2890.17,879.5 2884.83,879.5 2879.5,879.5C 2879.5,874.167 2879.5,868.833 2879.5,863.5 Z"/></g>
<g><path style="opacity:1" fill="#84b9e7" d="M 2895.5,863.5 C 2900.83,863.5 2906.17,863.5 2911.5,863.5C 2911.5,868.833 2911.5,874.167 2911.5,879.5C 2906.17,879.5 2900.83,879.5 2895.5,879.5C 2895.5,874.167 2895.5,868.833 2895.5,863.5 Z"/></g>
<g><path style="opacity:1" fill="#d09468" d="M 3263.5,863.5 C 3268.83,863.5 3274.17,863.5 3279.5,863.5C 3279.5,868.833 3279.5,874.167 3279.5,879.5C 3274.17,879.5 3268.83,879.5 3263.5,879.5C 3263.5,874.167 3263.5,868.833 3263.5,863.5 Z"/></g>
<g><path style="opacity:1" fill="#114695" d="M 4479.5,863.5 C 4484.83,863.5 4490.17,863.5 4495.5,863.5C 4495.5,868.833 4495.5,874.167 4495.5,879.5C 4490.17,879.5 4484.83,879.5 4479.5,879.5C 4479.5,874.167 4479.5,868.833 4479.5,863.5 Z"/></g>
<g><path style="opacity:1" fill="#c4825b" d="M 4703.5,863.5 C 4708.83,863.5 4714.17,863.5 4719.5,863.5C 4719.5,868.833 4719.5,874.167 4719.5,879.5C 4714.17,879.5 4708.83,879.5 4703.5,879.5C 4703.5,874.167 4703.5,868.833 4703.5,863.5 Z"/></g>
<g><path style="opacity:1" fill="#1856a7" d="M 5919.5,863.5 C 5924.83,863.5 5930.17,863.5 5935.5,863.5C 5935.5,868.833 5935.5,874.167 5935.5,879.5C 5930.17,879.5 5924.83,879.5 5919.5,879.5C 5919.5,874.167 5919.5,868.833 5919.5,863.5 Z"/></g>
<g><path style="opacity:1" fill="#fffef8" d="M 1983.5,863.5 C 1983.5,868.833 1983.5,874.167 1983.5,879.5C 1983.5,884.833 1983.5,890.167 1983.5,895.5C 1983.5,927.5 1983.5,959.5 1983.5,991.5C 1978.17,991.5 1972.83,991.5 1967.5,991.5C 1967.5,948.833 1967.5,906.167 1967.5,863.5C 1972.83,863.5 1978.17,863.5 1983.5,863.5 Z"/></g>
<g><path style="opacity:1" fill="#cb8157" d="M 1983.5,879.5 C 1988.83,879.5 1994.17,879.5 1999.5,879.5C 1999.5,884.833 1999.5,890.167 1999.5,895.5C 1994.17,895.5 1988.83,895.5 1983.5,895.5C 1983.5,890.167 1983.5,884.833 1983.5,879.5 Z"/></g>
<g><path style="opacity:1" fill="#4f99de" d="M 2895.5,879.5 C 2900.83,879.5 2906.17,879.5 2911.5,879.5C 2911.5,884.833 2911.5,890.167 2911.5,895.5C 2906.17,895.5 2900.83,895.5 2895.5,895.5C 2895.5,890.167 2895.5,884.833 2895.5,879.5 Z"/></g>
<g><path style="opacity:1" fill="#fffbea" d="M 3263.5,863.5 C 3263.5,868.833 3263.5,874.167 3263.5,879.5C 3263.5,1274.17 3263.5,1668.83 3263.5,2063.5C 3263.5,2068.83 3263.5,2074.17 3263.5,2079.5C 3258.17,2079.5 3252.83,2079.5 3247.5,2079.5C 3247.5,1674.17 3247.5,1268.83 3247.5,863.5C 3252.83,863.5 3258.17,863.5 3263.5,863.5 Z"/></g>
<g><path style="opacity:1" fill="#cc8b55" d="M 3263.5,879.5 C 3268.83,879.5 3274.17,879.5 3279.5,879.5C 3279.5,1274.17 3279.5,1668.83 3279.5,2063.5C 3274.17,2063.5 3268.83,2063.5 3263.5,2063.5C 3263.5,1668.83 3263.5,1274.17 3263.5,879.5 Z"/></g>
<g><path style="opacity:1" fill="#205da6" d="M 4479.5,879.5 C 4484.83,879.5 4490.17,879.5 4495.5,879.5C 4495.5,964.833 4495.5,1050.17 4495.5,1135.5C 4490.17,1135.5 4484.83,1135.5 4479.5,1135.5C 4479.5,1050.17 4479.5,964.833 4479.5,879.5 Z"/></g>
<g><path style="opacity:1" fill="#dafbff" d="M 4495.5,863.5 C 4500.83,863.5 4506.17,863.5 4511.5,863.5C 4511.5,959.5 4511.5,1055.5 4511.5,1151.5C 4506.17,1151.5 4500.83,1151.5 4495.5,1151.5C 4495.5,1146.17 4495.5,1140.83 4495.5,1135.5C 4495.5,1050.17 4495.5,964.833 4495.5,879.5C 4495.5,874.167 4495.5,868.833 4495.5,863.5 Z"/></g>
<g><path style="opacity:1" fill="#fff8e4" d="M 4703.5,863.5 C 4703.5,868.833 4703.5,874.167 4703.5,879.5C 4703.5,1274.17 4703.5,1668.83 4703.5,2063.5C 4703.5,2068.83 4703.5,2074.17 4703.5,2079.5C 4698.17,2079.5 4692.83,2079.5 4687.5,2079.5C 4687.5,1674.17 4687.5,1268.83 4687.5,863.5C 4692.83,863.5 4698.17,863.5 4703.5,863.5 Z"/></g>
<g><path style="opacity:1" fill="#c27448" d="M 4703.5,879.5 C 4708.83,879.5 4714.17,879.5 4719.5,879.5C 4719.5,1274.17 4719.5,1668.83 4719.5,2063.5C 4714.17,2063.5 4708.83,2063.5 4703.5,2063.5C 4703.5,1668.83 4703.5,1274.17 4703.5,879.5 Z"/></g>
<g><path style="opacity:1" fill="#2e6eb6" d="M 5919.5,879.5 C 5924.83,879.5 5930.17,879.5 5935.5,879.5C 5935.5,1274.17 5935.5,1668.83 5935.5,2063.5C 5930.17,2063.5 5924.83,2063.5 5919.5,2063.5C 5919.5,1668.83 5919.5,1274.17 5919.5,879.5 Z"/></g>
<g><path style="opacity:1" fill="#e8fffe" d="M 5935.5,863.5 C 5940.83,863.5 5946.17,863.5 5951.5,863.5C 5951.5,1268.83 5951.5,1674.17 5951.5,2079.5C 5946.17,2079.5 5940.83,2079.5 5935.5,2079.5C 5935.5,2074.17 5935.5,2068.83 5935.5,2063.5C 5935.5,1668.83 5935.5,1274.17 5935.5,879.5C 5935.5,874.167 5935.5,868.833 5935.5,863.5 Z"/></g>
<g><path style="opacity:1" fill="#d18f66" d="M 1983.5,895.5 C 1988.83,895.5 1994.17,895.5 1999.5,895.5C 1999.5,927.5 1999.5,959.5 1999.5,991.5C 1994.17,991.5 1988.83,991.5 1983.5,991.5C 1983.5,959.5 1983.5,927.5 1983.5,895.5 Z"/></g>
<g><path style="opacity:1" fill="#17253d" d="M 1999.5,895.5 C 2004.83,895.5 2010.17,895.5 2015.5,895.5C 2015.5,927.5 2015.5,959.5 2015.5,991.5C 2010.17,991.5 2004.83,991.5 1999.5,991.5C 1999.5,959.5 1999.5,927.5 1999.5,895.5 Z"/></g>
<g><path style="opacity:1" fill="#0c254d" d="M 2895.5,895.5 C 2895.5,927.5 2895.5,959.5 2895.5,991.5C 2890.17,991.5 2884.83,991.5 2879.5,991.5C 2879.5,959.5 2879.5,927.5 2879.5,895.5C 2884.83,895.5 2890.17,895.5 2895.5,895.5 Z"/></g>
<g><path style="opacity:1" fill="#62a4e1" d="M 2895.5,895.5 C 2900.83,895.5 2906.17,895.5 2911.5,895.5C 2911.5,927.5 2911.5,959.5 2911.5,991.5C 2906.17,991.5 2900.83,991.5 2895.5,991.5C 2895.5,959.5 2895.5,927.5 2895.5,895.5 Z"/></g>
<g><path style="opacity:1" fill="#354157" d="M 831.5,991.5 C 831.5,996.833 831.5,1002.17 831.5,1007.5C 740.833,1007.5 650.167,1007.5 559.5,1007.5C 559.5,1002.17 559.5,996.833 559.5,991.5C 650.167,991.5 740.833,991.5 831.5,991.5 Z"/></g>
<g><path style="opacity:1" fill="#262e42" d="M 831.5,991.5 C 836.833,991.5 842.167,991.5 847.5,991.5C 847.5,996.833 847.5,1002.17 847.5,1007.5C 842.167,1007.5 836.833,1007.5 831.5,1007.5C 831.5,1002.17 831.5,996.833 831.5,991.5 Z"/></g>
<g><path style="opacity:1" fill="#19314e" d="M 1183.5,991.5 C 1183.5,996.833 1183.5,1002.17 1183.5,1007.5C 1178.17,1007.5 1172.83,1007.5 1167.5,1007.5C 1167.5,1002.17 1167.5,996.833 1167.5,991.5C 1172.83,991.5 1178.17,991.5 1183.5,991.5 Z"/></g>
<g><path style="opacity:1" fill="#364257" d="M 1183.5,991.5 C 1268.83,991.5 1354.17,991.5 1439.5,991.5C 1439.5,996.833 1439.5,1002.17 1439.5,1007.5C 1354.17,1007.5 1268.83,1007.5 1183.5,1007.5C 1183.5,1002.17 1183.5,996.833 1183.5,991.5 Z"/></g>
<g><path style="opacity:1" fill="#2b3347" d="M 1439.5,991.5 C 1444.83,991.5 1450.17,991.5 1455.5,991.5C 1455.5,996.833 1455.5,1002.17 1455.5,1007.5C 1450.17,1007.5 1444.83,1007.5 1439.5,1007.5C 1439.5,1002.17 1439.5,996.833 1439.5,991.5 Z"/></g>
<g><path style="opacity:1" fill="#fefefd" d="M 1935.5,1007.5 C 1914.17,1007.5 1892.83,1007.5 1871.5,1007.5C 1871.5,1002.17 1871.5,996.833 1871.5,991.5C 1892.83,991.5 1914.17,991.5 1935.5,991.5C 1935.5,996.833 1935.5,1002.17 1935.5,1007.5 Z"/></g>
<g><path style="opacity:1" fill="#fdeede" d="M 1967.5,991.5 C 1972.83,991.5 1978.17,991.5 1983.5,991.5C 1983.5,996.833 1983.5,1002.17 1983.5,1007.5C 1978.17,1007.5 1972.83,1007.5 1967.5,1007.5C 1967.5,1002.17 1967.5,996.833 1967.5,991.5 Z"/></g>
<g><path style="opacity:1" fill="#a9664b" d="M 1983.5,991.5 C 1988.83,991.5 1994.17,991.5 1999.5,991.5C 1999.5,996.833 1999.5,1002.17 1999.5,1007.5C 1994.17,1007.5 1988.83,1007.5 1983.5,1007.5C 1983.5,1002.17 1983.5,996.833 1983.5,991.5 Z"/></g>
<g><path style="opacity:1" fill="#1a324f" d="M 2319.5,991.5 C 2319.5,996.833 2319.5,1002.17 2319.5,1007.5C 2314.17,1007.5 2308.83,1007.5 2303.5,1007.5C 2303.5,1002.17 2303.5,996.833 2303.5,991.5C 2308.83,991.5 2314.17,991.5 2319.5,991.5 Z"/></g>
<g><path style="opacity:1" fill="#364257" d="M 2319.5,991.5 C 2404.83,991.5 2490.17,991.5 2575.5,991.5C 2575.5,996.833 2575.5,1002.17 2575.5,1007.5C 2490.17,1007.5 2404.83,1007.5 2319.5,1007.5C 2319.5,1002.17 2319.5,996.833 2319.5,991.5 Z"/></g>
<g><path style="opacity:1" fill="#283043" d="M 2575.5,991.5 C 2580.83,991.5 2586.17,991.5 2591.5,991.5C 2591.5,996.833 2591.5,1002.17 2591.5,1007.5C 2586.17,1007.5 2580.83,1007.5 2575.5,1007.5C 2575.5,1002.17 2575.5,996.833 2575.5,991.5 Z"/></g>
<g><path style="opacity:1" fill="#377bc3" d="M 2895.5,991.5 C 2900.83,991.5 2906.17,991.5 2911.5,991.5C 2911.5,996.833 2911.5,1002.17 2911.5,1007.5C 2906.17,1007.5 2900.83,1007.5 2895.5,1007.5C 2895.5,1002.17 2895.5,996.833 2895.5,991.5 Z"/></g>
<g><path style="opacity:1" fill="#e7f3fc" d="M 2911.5,991.5 C 2916.83,991.5 2922.17,991.5 2927.5,991.5C 2927.5,996.833 2927.5,1002.17 2927.5,1007.5C 2922.17,1007.5 2916.83,1007.5 2911.5,1007.5C 2911.5,1002.17 2911.5,996.833 2911.5,991.5 Z"/></g>
<g><path style="opacity:1" fill="#fefefd" d="M 3023.5,1007.5 C 2996.83,1007.5 2970.17,1007.5 2943.5,1007.5C 2943.5,1002.17 2943.5,996.833 2943.5,991.5C 2970.17,991.5 2996.83,991.5 3023.5,991.5C 3023.5,996.833 3023.5,1002.17 3023.5,1007.5 Z"/></g>
<g><path style="opacity:1" fill="#364158" d="M 4159.5,991.5 C 4159.5,996.833 4159.5,1002.17 4159.5,1007.5C 3972.83,1007.5 3786.17,1007.5 3599.5,1007.5C 3599.5,1002.17 3599.5,996.833 3599.5,991.5C 3786.17,991.5 3972.83,991.5 4159.5,991.5 Z"/></g>
<g><path style="opacity:1" fill="#323749" d="M 4159.5,991.5 C 4164.83,991.5 4170.17,991.5 4175.5,991.5C 4175.5,996.833 4175.5,1002.17 4175.5,1007.5C 4170.17,1007.5 4164.83,1007.5 4159.5,1007.5C 4159.5,1002.17 4159.5,996.833 4159.5,991.5 Z"/></g>
<g><path style="opacity:1" fill="#192f4c" d="M 5039.5,991.5 C 5039.5,996.833 5039.5,1002.17 5039.5,1007.5C 5034.17,1007.5 5028.83,1007.5 5023.5,1007.5C 5023.5,1002.17 5023.5,996.833 5023.5,991.5C 5028.83,991.5 5034.17,991.5 5039.5,991.5 Z"/></g>
<g><path style="opacity:1" fill="#364158" d="M 5039.5,991.5 C 5226.17,991.5 5412.83,991.5 5599.5,991.5C 5599.5,996.833 5599.5,1002.17 5599.5,1007.5C 5412.83,1007.5 5226.17,1007.5 5039.5,1007.5C 5039.5,1002.17 5039.5,996.833 5039.5,991.5 Z"/></g>
<g><path style="opacity:1" fill="#303849" d="M 5599.5,991.5 C 5604.83,991.5 5610.17,991.5 5615.5,991.5C 5615.5,996.833 5615.5,1002.17 5615.5,1007.5C 5610.17,1007.5 5604.83,1007.5 5599.5,1007.5C 5599.5,1002.17 5599.5,996.833 5599.5,991.5 Z"/></g>
<g><path style="opacity:1" fill="#0c2e7b" d="M 543.5,1007.5 C 543.5,1012.83 543.5,1018.17 543.5,1023.5C 538.167,1023.5 532.833,1023.5 527.5,1023.5C 527.5,1018.17 527.5,1012.83 527.5,1007.5C 532.833,1007.5 538.167,1007.5 543.5,1007.5 Z"/></g>
<g><path style="opacity:1" fill="#a2bbd7" d="M 543.5,1007.5 C 548.833,1007.5 554.167,1007.5 559.5,1007.5C 559.5,1012.83 559.5,1018.17 559.5,1023.5C 554.167,1023.5 548.833,1023.5 543.5,1023.5C 543.5,1018.17 543.5,1012.83 543.5,1007.5 Z"/></g>
<g><path style="opacity:1" fill="#eee9eb" d="M 559.5,1007.5 C 650.167,1007.5 740.833,1007.5 831.5,1007.5C 831.5,1012.83 831.5,1018.17 831.5,1023.5C 740.833,1023.5 650.167,1023.5 559.5,1023.5C 559.5,1018.17 559.5,1012.83 559.5,1007.5 Z"/></g>
<g><path style="opacity:1" fill="#dfccc2" d="M 831.5,1007.5 C 836.833,1007.5 842.167,1007.5 847.5,1007.5C 847.5,1012.83 847.5,1018.17 847.5,1023.5C 842.167,1023.5 836.833,1023.5 831.5,1023.5C 831.5,1018.17 831.5,1012.83 831.5,1007.5 Z"/></g>
<g><path style="opacity:1" fill="#945e4b" d="M 847.5,1007.5 C 852.833,1007.5 858.167,1007.5 863.5,1007.5C 863.5,1012.83 863.5,1018.17 863.5,1023.5C 858.167,1023.5 852.833,1023.5 847.5,1023.5C 847.5,1018.17 847.5,1012.83 847.5,1007.5 Z"/></g>
<g><path style="opacity:1" fill="#2669b9" d="M 1167.5,1007.5 C 1167.5,1012.83 1167.5,1018.17 1167.5,1023.5C 1162.17,1023.5 1156.83,1023.5 1151.5,1023.5C 1151.5,1018.17 1151.5,1012.83 1151.5,1007.5C 1156.83,1007.5 1162.17,1007.5 1167.5,1007.5 Z"/></g>
<g><path style="opacity:1" fill="#eee9eb" d="M 1167.5,1007.5 C 1172.83,1007.5 1178.17,1007.5 1183.5,1007.5C 1268.83,1007.5 1354.17,1007.5 1439.5,1007.5C 1444.83,1007.5 1450.17,1007.5 1455.5,1007.5C 1455.5,1012.83 1455.5,1018.17 1455.5,1023.5C 1359.5,1023.5 1263.5,1023.5 1167.5,1023.5C 1167.5,1018.17 1167.5,1012.83 1167.5,1007.5 Z"/></g>
<g><path style="opacity:1" fill="#cca188" d="M 1455.5,1007.5 C 1460.83,1007.5 1466.17,1007.5 1471.5,1007.5C 1471.5,1012.83 1471.5,1018.17 1471.5,1023.5C 1466.17,1023.5 1460.83,1023.5 1455.5,1023.5C 1455.5,1018.17 1455.5,1012.83 1455.5,1007.5 Z"/></g>
<g><path style="opacity:1" fill="#41253d" d="M 1471.5,1007.5 C 1476.83,1007.5 1482.17,1007.5 1487.5,1007.5C 1487.5,1012.83 1487.5,1018.17 1487.5,1023.5C 1482.17,1023.5 1476.83,1023.5 1471.5,1023.5C 1471.5,1018.17 1471.5,1012.83 1471.5,1007.5 Z"/></g>
<g><path style="opacity:1" fill="#e5b38c" d="M 1823.5,1007.5 C 1828.83,1007.5 1834.17,1007.5 1839.5,1007.5C 1839.5,1012.83 1839.5,1018.17 1839.5,1023.5C 1834.17,1023.5 1828.83,1023.5 1823.5,1023.5C 1823.5,1018.17 1823.5,1012.83 1823.5,1007.5 Z"/></g>
<g><path style="opacity:1" fill="#452e42" d="M 1839.5,1007.5 C 1844.83,1007.5 1850.17,1007.5 1855.5,1007.5C 1855.5,1012.83 1855.5,1018.17 1855.5,1023.5C 1850.17,1023.5 1844.83,1023.5 1839.5,1023.5C 1839.5,1018.17 1839.5,1012.83 1839.5,1007.5 Z"/></g>
<g><path style="opacity:1" fill="#1d3452" d="M 1855.5,1007.5 C 1860.83,1007.5 1866.17,1007.5 1871.5,1007.5C 1871.5,1012.83 1871.5,1018.17 1871.5,1023.5C 1866.17,1023.5 1860.83,1023.5 1855.5,1023.5C 1855.5,1018.17 1855.5,1012.83 1855.5,1007.5 Z"/></g>
<g><path style="opacity:1" fill="#2d3a50" d="M 1871.5,1007.5 C 1892.83,1007.5 1914.17,1007.5 1935.5,1007.5C 1946.17,1007.5 1956.83,1007.5 1967.5,1007.5C 1967.5,1012.83 1967.5,1018.17 1967.5,1023.5C 1935.5,1023.5 1903.5,1023.5 1871.5,1023.5C 1871.5,1018.17 1871.5,1012.83 1871.5,1007.5 Z"/></g>
<g><path style="opacity:1" fill="#2e76c2" d="M 2303.5,1007.5 C 2303.5,1012.83 2303.5,1018.17 2303.5,1023.5C 2298.17,1023.5 2292.83,1023.5 2287.5,1023.5C 2287.5,1018.17 2287.5,1012.83 2287.5,1007.5C 2292.83,1007.5 2298.17,1007.5 2303.5,1007.5 Z"/></g>
<g><path style="opacity:1" fill="#eee9eb" d="M 2303.5,1007.5 C 2308.83,1007.5 2314.17,1007.5 2319.5,1007.5C 2404.83,1007.5 2490.17,1007.5 2575.5,1007.5C 2580.83,1007.5 2586.17,1007.5 2591.5,1007.5C 2591.5,1012.83 2591.5,1018.17 2591.5,1023.5C 2495.5,1023.5 2399.5,1023.5 2303.5,1023.5C 2303.5,1018.17 2303.5,1012.83 2303.5,1007.5 Z"/></g>
<g><path style="opacity:1" fill="#a66045" d="M 2591.5,1007.5 C 2596.83,1007.5 2602.17,1007.5 2607.5,1007.5C 2607.5,1012.83 2607.5,1018.17 2607.5,1023.5C 2602.17,1023.5 2596.83,1023.5 2591.5,1023.5C 2591.5,1018.17 2591.5,1012.83 2591.5,1007.5 Z"/></g>
<g><path style="opacity:1" fill="#2d3a51" d="M 2927.5,1007.5 C 2932.83,1007.5 2938.17,1007.5 2943.5,1007.5C 2970.17,1007.5 2996.83,1007.5 3023.5,1007.5C 3023.5,1012.83 3023.5,1018.17 3023.5,1023.5C 2991.5,1023.5 2959.5,1023.5 2927.5,1023.5C 2927.5,1018.17 2927.5,1012.83 2927.5,1007.5 Z"/></g>
<g><path style="opacity:1" fill="#2a3143" d="M 3023.5,1007.5 C 3028.83,1007.5 3034.17,1007.5 3039.5,1007.5C 3039.5,1012.83 3039.5,1018.17 3039.5,1023.5C 3034.17,1023.5 3028.83,1023.5 3023.5,1023.5C 3023.5,1018.17 3023.5,1012.83 3023.5,1007.5 Z"/></g>
<g><path style="opacity:1" fill="#123984" d="M 3039.5,1007.5 C 3044.83,1007.5 3050.17,1007.5 3055.5,1007.5C 3055.5,1012.83 3055.5,1018.17 3055.5,1023.5C 3050.17,1023.5 3044.83,1023.5 3039.5,1023.5C 3039.5,1018.17 3039.5,1012.83 3039.5,1007.5 Z"/></g>
<g><path style="opacity:1" fill="#3b75a9" d="M 3583.5,1007.5 C 3583.5,1012.83 3583.5,1018.17 3583.5,1023.5C 3578.17,1023.5 3572.83,1023.5 3567.5,1023.5C 3567.5,1018.17 3567.5,1012.83 3567.5,1007.5C 3572.83,1007.5 3578.17,1007.5 3583.5,1007.5 Z"/></g>
<g><path style="opacity:1" fill="#c9e3e6" d="M 3583.5,1007.5 C 3588.83,1007.5 3594.17,1007.5 3599.5,1007.5C 3599.5,1012.83 3599.5,1018.17 3599.5,1023.5C 3594.17,1023.5 3588.83,1023.5 3583.5,1023.5C 3583.5,1018.17 3583.5,1012.83 3583.5,1007.5 Z"/></g>
<g><path style="opacity:1" fill="#eee9eb" d="M 3599.5,1007.5 C 3786.17,1007.5 3972.83,1007.5 4159.5,1007.5C 4164.83,1007.5 4170.17,1007.5 4175.5,1007.5C 4175.5,1012.83 4175.5,1018.17 4175.5,1023.5C 3983.5,1023.5 3791.5,1023.5 3599.5,1023.5C 3599.5,1018.17 3599.5,1012.83 3599.5,1007.5 Z"/></g>
<g><path style="opacity:1" fill="#e7b07a" d="M 4175.5,1007.5 C 4180.83,1007.5 4186.17,1007.5 4191.5,1007.5C 4191.5,1012.83 4191.5,1018.17 4191.5,1023.5C 4186.17,1023.5 4180.83,1023.5 4175.5,1023.5C 4175.5,1018.17 4175.5,1012.83 4175.5,1007.5 Z"/></g>
<g><path style="opacity:1" fill="#25253e" d="M 4191.5,1007.5 C 4196.83,1007.5 4202.17,1007.5 4207.5,1007.5C 4207.5,1012.83 4207.5,1018.17 4207.5,1023.5C 4202.17,1023.5 4196.83,1023.5 4191.5,1023.5C 4191.5,1018.17 4191.5,1012.83 4191.5,1007.5 Z"/></g>
<g><path style="opacity:1" fill="#0c2542" d="M 5007.5,1007.5 C 5007.5,1012.83 5007.5,1018.17 5007.5,1023.5C 5007.5,1322.17 5007.5,1620.83 5007.5,1919.5C 5007.5,1924.83 5007.5,1930.17 5007.5,1935.5C 5002.17,1935.5 4996.83,1935.5 4991.5,1935.5C 4991.5,1663.5 4991.5,1391.5 4991.5,1119.5C 4986.17,1119.5 4980.83,1119.5 4975.5,1119.5C 4975.5,1114.17 4975.5,1108.83 4975.5,1103.5C 4980.83,1103.5 4986.17,1103.5 4991.5,1103.5C 4991.5,1071.5 4991.5,1039.5 4991.5,1007.5C 4996.83,1007.5 5002.17,1007.5 5007.5,1007.5 Z"/></g>
<g><path style="opacity:1" fill="#5180b3" d="M 5007.5,1007.5 C 5012.83,1007.5 5018.17,1007.5 5023.5,1007.5C 5023.5,1012.83 5023.5,1018.17 5023.5,1023.5C 5018.17,1023.5 5012.83,1023.5 5007.5,1023.5C 5007.5,1018.17 5007.5,1012.83 5007.5,1007.5 Z"/></g>
<g><path style="opacity:1" fill="#d3e3e7" d="M 5023.5,1007.5 C 5028.83,1007.5 5034.17,1007.5 5039.5,1007.5C 5039.5,1012.83 5039.5,1018.17 5039.5,1023.5C 5034.17,1023.5 5028.83,1023.5 5023.5,1023.5C 5023.5,1018.17 5023.5,1012.83 5023.5,1007.5 Z"/></g>
<g><path style="opacity:1" fill="#eee9eb" d="M 5039.5,1007.5 C 5226.17,1007.5 5412.83,1007.5 5599.5,1007.5C 5604.83,1007.5 5610.17,1007.5 5615.5,1007.5C 5615.5,1012.83 5615.5,1018.17 5615.5,1023.5C 5423.5,1023.5 5231.5,1023.5 5039.5,1023.5C 5039.5,1018.17 5039.5,1012.83 5039.5,1007.5 Z"/></g>
<g><path style="opacity:1" fill="#e3bda1" d="M 5615.5,1007.5 C 5620.83,1007.5 5626.17,1007.5 5631.5,1007.5C 5631.5,1012.83 5631.5,1018.17 5631.5,1023.5C 5626.17,1023.5 5620.83,1023.5 5615.5,1023.5C 5615.5,1018.17 5615.5,1012.83 5615.5,1007.5 Z"/></g>
<g><path style="opacity:1" fill="#6a3a3d" d="M 5631.5,1007.5 C 5636.83,1007.5 5642.17,1007.5 5647.5,1007.5C 5647.5,1012.83 5647.5,1018.17 5647.5,1023.5C 5642.17,1023.5 5636.83,1023.5 5631.5,1023.5C 5631.5,1018.17 5631.5,1012.83 5631.5,1007.5 Z"/></g>
<g><path style="opacity:1" fill="#0c2541" d="M 1151.5,1023.5 C 1151.5,1423.5 1151.5,1823.5 1151.5,2223.5C 1146.17,2223.5 1140.83,2223.5 1135.5,2223.5C 1135.5,1823.5 1135.5,1423.5 1135.5,1023.5C 1140.83,1023.5 1146.17,1023.5 1151.5,1023.5 Z"/></g>
<g><path style="opacity:1" fill="#4f273e" d="M 1471.5,1023.5 C 1476.83,1023.5 1482.17,1023.5 1487.5,1023.5C 1487.5,1060.83 1487.5,1098.17 1487.5,1135.5C 1482.17,1135.5 1476.83,1135.5 1471.5,1135.5C 1471.5,1098.17 1471.5,1060.83 1471.5,1023.5 Z"/></g>
<g><path style="opacity:1" fill="#fcfffe" d="M 3583.5,1023.5 C 3588.83,1023.5 3594.17,1023.5 3599.5,1023.5C 3599.5,1028.83 3599.5,1034.17 3599.5,1039.5C 3594.17,1039.5 3588.83,1039.5 3583.5,1039.5C 3583.5,1034.17 3583.5,1028.83 3583.5,1023.5 Z"/></g>
<g><path style="opacity:1" fill="#4c263d" d="M 4191.5,1023.5 C 4196.83,1023.5 4202.17,1023.5 4207.5,1023.5C 4207.5,1028.83 4207.5,1034.17 4207.5,1039.5C 4202.17,1039.5 4196.83,1039.5 4191.5,1039.5C 4191.5,1034.17 4191.5,1028.83 4191.5,1023.5 Z"/></g>
<g><path style="opacity:1" fill="#87433e" d="M 5631.5,1023.5 C 5636.83,1023.5 5642.17,1023.5 5647.5,1023.5C 5647.5,1322.17 5647.5,1620.83 5647.5,1919.5C 5642.17,1919.5 5636.83,1919.5 5631.5,1919.5C 5631.5,1620.83 5631.5,1322.17 5631.5,1023.5 Z"/></g>
<g><path style="opacity:1" fill="#0c4098" d="M 527.5,1023.5 C 532.833,1023.5 538.167,1023.5 543.5,1023.5C 543.5,1060.83 543.5,1098.17 543.5,1135.5C 538.167,1135.5 532.833,1135.5 527.5,1135.5C 527.5,1098.17 527.5,1060.83 527.5,1023.5 Z"/></g>
<g><path style="opacity:1" fill="#fffffc" d="M 831.5,1023.5 C 836.833,1023.5 842.167,1023.5 847.5,1023.5C 847.5,1418.17 847.5,1812.83 847.5,2207.5C 847.5,2218.17 847.5,2228.83 847.5,2239.5C 842.167,2239.5 836.833,2239.5 831.5,2239.5C 831.5,1834.17 831.5,1428.83 831.5,1023.5 Z"/></g>
<g><path style="opacity:1" fill="#59b0f4" d="M 1151.5,1023.5 C 1156.83,1023.5 1162.17,1023.5 1167.5,1023.5C 1167.5,1428.83 1167.5,1834.17 1167.5,2239.5C 1162.17,2239.5 1156.83,2239.5 1151.5,2239.5C 1151.5,2234.17 1151.5,2228.83 1151.5,2223.5C 1151.5,1823.5 1151.5,1423.5 1151.5,1023.5 Z"/></g>
<g><path style="opacity:1" fill="#fffef1" d="M 1823.5,1007.5 C 1823.5,1012.83 1823.5,1018.17 1823.5,1023.5C 1823.5,1423.5 1823.5,1823.5 1823.5,2223.5C 1818.17,2223.5 1812.83,2223.5 1807.5,2223.5C 1807.5,1818.17 1807.5,1412.83 1807.5,1007.5C 1812.83,1007.5 1818.17,1007.5 1823.5,1007.5 Z"/></g>
<g><path style="opacity:1" fill="#10253d" d="M 1839.5,1023.5 C 1844.83,1023.5 1850.17,1023.5 1855.5,1023.5C 1855.5,1423.5 1855.5,1823.5 1855.5,2223.5C 1850.17,2223.5 1844.83,2223.5 1839.5,2223.5C 1839.5,1823.5 1839.5,1423.5 1839.5,1023.5 Z"/></g>
<g><path style="opacity:1" fill="#0c2545" d="M 2287.5,1039.5 C 2287.5,1071.5 2287.5,1103.5 2287.5,1135.5C 2282.17,1135.5 2276.83,1135.5 2271.5,1135.5C 2271.5,1103.5 2271.5,1071.5 2271.5,1039.5C 2276.83,1039.5 2282.17,1039.5 2287.5,1039.5 Z"/></g>
<g><path style="opacity:1" fill="#134e95" d="M 3039.5,1023.5 C 3044.83,1023.5 3050.17,1023.5 3055.5,1023.5C 3055.5,1418.17 3055.5,1812.83 3055.5,2207.5C 3050.17,2207.5 3044.83,2207.5 3039.5,2207.5C 3039.5,1812.83 3039.5,1418.17 3039.5,1023.5 Z"/></g>
<g><path style="opacity:1" fill="#cbf3ff" d="M 3055.5,1007.5 C 3060.83,1007.5 3066.17,1007.5 3071.5,1007.5C 3071.5,1418.17 3071.5,1828.83 3071.5,2239.5C 3066.17,2239.5 3060.83,2239.5 3055.5,2239.5C 3055.5,2228.83 3055.5,2218.17 3055.5,2207.5C 3055.5,1812.83 3055.5,1418.17 3055.5,1023.5C 3055.5,1018.17 3055.5,1012.83 3055.5,1007.5 Z"/></g>
<g><path style="opacity:1" fill="#0c253f" d="M 3567.5,1039.5 C 3567.5,1327.5 3567.5,1615.5 3567.5,1903.5C 3562.17,1903.5 3556.83,1903.5 3551.5,1903.5C 3551.5,1615.5 3551.5,1327.5 3551.5,1039.5C 3556.83,1039.5 3562.17,1039.5 3567.5,1039.5 Z"/></g>
<g><path style="opacity:1" fill="#59283e" d="M 4191.5,1039.5 C 4196.83,1039.5 4202.17,1039.5 4207.5,1039.5C 4207.5,1071.5 4207.5,1103.5 4207.5,1135.5C 4202.17,1135.5 4196.83,1135.5 4191.5,1135.5C 4191.5,1103.5 4191.5,1071.5 4191.5,1039.5 Z"/></g>
<g><path style="opacity:1" fill="#ceeafc" d="M 543.5,1023.5 C 548.833,1023.5 554.167,1023.5 559.5,1023.5C 559.5,1066.17 559.5,1108.83 559.5,1151.5C 554.167,1151.5 548.833,1151.5 543.5,1151.5C 543.5,1146.17 543.5,1140.83 543.5,1135.5C 543.5,1098.17 543.5,1060.83 543.5,1023.5 Z"/></g>
<g><path style="opacity:1" fill="#db9a70" d="M 847.5,1023.5 C 852.833,1023.5 858.167,1023.5 863.5,1023.5C 863.5,1028.83 863.5,1034.17 863.5,1039.5C 863.5,1428.83 863.5,1818.17 863.5,2207.5C 858.167,2207.5 852.833,2207.5 847.5,2207.5C 847.5,1812.83 847.5,1418.17 847.5,1023.5 Z"/></g>
<g><path style="opacity:1" fill="#1f253e" d="M 863.5,1039.5 C 868.833,1039.5 874.167,1039.5 879.5,1039.5C 879.5,1434.17 879.5,1828.83 879.5,2223.5C 874.167,2223.5 868.833,2223.5 863.5,2223.5C 863.5,2218.17 863.5,2212.83 863.5,2207.5C 863.5,1818.17 863.5,1428.83 863.5,1039.5 Z"/></g>
<g><path style="opacity:1" fill="#fdd4a4" d="M 1455.5,1023.5 C 1460.83,1023.5 1466.17,1023.5 1471.5,1023.5C 1471.5,1060.83 1471.5,1098.17 1471.5,1135.5C 1466.17,1135.5 1460.83,1135.5 1455.5,1135.5C 1455.5,1098.17 1455.5,1060.83 1455.5,1023.5 Z"/></g>
<g><path style="opacity:1" fill="#64bdf9" d="M 2287.5,1023.5 C 2292.83,1023.5 2298.17,1023.5 2303.5,1023.5C 2303.5,1066.17 2303.5,1108.83 2303.5,1151.5C 2298.17,1151.5 2292.83,1151.5 2287.5,1151.5C 2287.5,1146.17 2287.5,1140.83 2287.5,1135.5C 2287.5,1103.5 2287.5,1071.5 2287.5,1039.5C 2287.5,1034.17 2287.5,1028.83 2287.5,1023.5 Z"/></g>
<g><path style="opacity:1" fill="#f0a265" d="M 2591.5,1023.5 C 2596.83,1023.5 2602.17,1023.5 2607.5,1023.5C 2607.5,1060.83 2607.5,1098.17 2607.5,1135.5C 2602.17,1135.5 2596.83,1135.5 2591.5,1135.5C 2591.5,1098.17 2591.5,1060.83 2591.5,1023.5 Z"/></g>
<g><path style="opacity:1" fill="#4792d4" d="M 3567.5,1023.5 C 3572.83,1023.5 3578.17,1023.5 3583.5,1023.5C 3583.5,1028.83 3583.5,1034.17 3583.5,1039.5C 3583.5,1044.83 3583.5,1050.17 3583.5,1055.5C 3583.5,1332.83 3583.5,1610.17 3583.5,1887.5C 3583.5,1892.83 3583.5,1898.17 3583.5,1903.5C 3583.5,1908.83 3583.5,1914.17 3583.5,1919.5C 3578.17,1919.5 3572.83,1919.5 3567.5,1919.5C 3567.5,1914.17 3567.5,1908.83 3567.5,1903.5C 3567.5,1615.5 3567.5,1327.5 3567.5,1039.5C 3567.5,1034.17 3567.5,1028.83 3567.5,1023.5 Z"/></g>
<g><path style="opacity:1" fill="#fafffe" d="M 3583.5,1055.5 C 3588.83,1055.5 3594.17,1055.5 3599.5,1055.5C 3599.5,1332.83 3599.5,1610.17 3599.5,1887.5C 3594.17,1887.5 3588.83,1887.5 3583.5,1887.5C 3583.5,1610.17 3583.5,1332.83 3583.5,1055.5 Z"/></g>
<g><path style="opacity:1" fill="#fff2b9" d="M 4175.5,1023.5 C 4180.83,1023.5 4186.17,1023.5 4191.5,1023.5C 4191.5,1028.83 4191.5,1034.17 4191.5,1039.5C 4191.5,1071.5 4191.5,1103.5 4191.5,1135.5C 4186.17,1135.5 4180.83,1135.5 4175.5,1135.5C 4175.5,1098.17 4175.5,1060.83 4175.5,1023.5 Z"/></g>
<g><path style="opacity:1" fill="#5fa3e0" d="M 5007.5,1023.5 C 5012.83,1023.5 5018.17,1023.5 5023.5,1023.5C 5023.5,1322.17 5023.5,1620.83 5023.5,1919.5C 5018.17,1919.5 5012.83,1919.5 5007.5,1919.5C 5007.5,1620.83 5007.5,1322.17 5007.5,1023.5 Z"/></g>
<g><path style="opacity:1" fill="#fff1ca" d="M 5615.5,1023.5 C 5620.83,1023.5 5626.17,1023.5 5631.5,1023.5C 5631.5,1322.17 5631.5,1620.83 5631.5,1919.5C 5626.17,1919.5 5620.83,1919.5 5615.5,1919.5C 5615.5,1620.83 5615.5,1322.17 5615.5,1023.5 Z"/></g>
<g><path style="opacity:1" fill="#e6b886" d="M 383.5,1135.5 C 388.833,1135.5 394.167,1135.5 399.5,1135.5C 399.5,1140.83 399.5,1146.17 399.5,1151.5C 394.167,1151.5 388.833,1151.5 383.5,1151.5C 383.5,1146.17 383.5,1140.83 383.5,1135.5 Z"/></g>
<g><path style="opacity:1" fill="#33253e" d="M 399.5,1135.5 C 404.833,1135.5 410.167,1135.5 415.5,1135.5C 415.5,1140.83 415.5,1146.17 415.5,1151.5C 410.167,1151.5 404.833,1151.5 399.5,1151.5C 399.5,1146.17 399.5,1140.83 399.5,1135.5 Z"/></g>
<g><path style="opacity:1" fill="#1a56a1" d="M 527.5,1135.5 C 532.833,1135.5 538.167,1135.5 543.5,1135.5C 543.5,1140.83 543.5,1146.17 543.5,1151.5C 538.167,1151.5 532.833,1151.5 527.5,1151.5C 527.5,1146.17 527.5,1140.83 527.5,1135.5 Z"/></g>
<g><path style="opacity:1" fill="#fedfad" d="M 1455.5,1135.5 C 1460.83,1135.5 1466.17,1135.5 1471.5,1135.5C 1471.5,1140.83 1471.5,1146.17 1471.5,1151.5C 1466.17,1151.5 1460.83,1151.5 1455.5,1151.5C 1455.5,1146.17 1455.5,1140.83 1455.5,1135.5 Z"/></g>
<g><path style="opacity:1" fill="#603e3f" d="M 1471.5,1135.5 C 1476.83,1135.5 1482.17,1135.5 1487.5,1135.5C 1487.5,1140.83 1487.5,1146.17 1487.5,1151.5C 1482.17,1151.5 1476.83,1151.5 1471.5,1151.5C 1471.5,1146.17 1471.5,1140.83 1471.5,1135.5 Z"/></g>
<g><path style="opacity:1" fill="#0d2a6e" d="M 1599.5,1135.5 C 1604.83,1135.5 1610.17,1135.5 1615.5,1135.5C 1615.5,1140.83 1615.5,1146.17 1615.5,1151.5C 1610.17,1151.5 1604.83,1151.5 1599.5,1151.5C 1599.5,1146.17 1599.5,1140.83 1599.5,1135.5 Z"/></g>
<g><path style="opacity:1" fill="#a6e4fe" d="M 1615.5,1135.5 C 1620.83,1135.5 1626.17,1135.5 1631.5,1135.5C 1631.5,1140.83 1631.5,1146.17 1631.5,1151.5C 1626.17,1151.5 1620.83,1151.5 1615.5,1151.5C 1615.5,1146.17 1615.5,1140.83 1615.5,1135.5 Z"/></g>
<g><path style="opacity:1" fill="#f29852" d="M 2591.5,1135.5 C 2596.83,1135.5 2602.17,1135.5 2607.5,1135.5C 2607.5,1140.83 2607.5,1146.17 2607.5,1151.5C 2602.17,1151.5 2596.83,1151.5 2591.5,1151.5C 2591.5,1146.17 2591.5,1140.83 2591.5,1135.5 Z"/></g>
<g><path style="opacity:1" fill="#fef7b2" d="M 4175.5,1135.5 C 4180.83,1135.5 4186.17,1135.5 4191.5,1135.5C 4191.5,1140.83 4191.5,1146.17 4191.5,1151.5C 4186.17,1151.5 4180.83,1151.5 4175.5,1151.5C 4175.5,1146.17 4175.5,1140.83 4175.5,1135.5 Z"/></g>
<g><path style="opacity:1" fill="#3f253d" d="M 4191.5,1135.5 C 4196.83,1135.5 4202.17,1135.5 4207.5,1135.5C 4207.5,1140.83 4207.5,1146.17 4207.5,1151.5C 4202.17,1151.5 4196.83,1151.5 4191.5,1151.5C 4191.5,1146.17 4191.5,1140.83 4191.5,1135.5 Z"/></g>
<g><path style="opacity:1" fill="#0e4090" d="M 4479.5,1135.5 C 4484.83,1135.5 4490.17,1135.5 4495.5,1135.5C 4495.5,1140.83 4495.5,1146.17 4495.5,1151.5C 4490.17,1151.5 4484.83,1151.5 4479.5,1151.5C 4479.5,1146.17 4479.5,1140.83 4479.5,1135.5 Z"/></g>
<g><path style="opacity:1" fill="#fce5d2" d="M 383.5,1151.5 C 388.833,1151.5 394.167,1151.5 399.5,1151.5C 399.5,1156.83 399.5,1162.17 399.5,1167.5C 394.167,1167.5 388.833,1167.5 383.5,1167.5C 383.5,1162.17 383.5,1156.83 383.5,1151.5 Z"/></g>
<g><path style="opacity:1" fill="#b79492" d="M 399.5,1151.5 C 404.833,1151.5 410.167,1151.5 415.5,1151.5C 415.5,1156.83 415.5,1162.17 415.5,1167.5C 410.167,1167.5 404.833,1167.5 399.5,1167.5C 399.5,1162.17 399.5,1156.83 399.5,1151.5 Z"/></g>
<g><path style="opacity:1" fill="#8c92a5" d="M 415.5,1151.5 C 420.833,1151.5 426.167,1151.5 431.5,1151.5C 431.5,1156.83 431.5,1162.17 431.5,1167.5C 426.167,1167.5 420.833,1167.5 415.5,1167.5C 415.5,1162.17 415.5,1156.83 415.5,1151.5 Z"/></g>
<g><path style="opacity:1" fill="#9e9aa5" d="M 431.5,1151.5 C 458.167,1151.5 484.833,1151.5 511.5,1151.5C 511.5,1156.83 511.5,1162.17 511.5,1167.5C 484.833,1167.5 458.167,1167.5 431.5,1167.5C 431.5,1162.17 431.5,1156.83 431.5,1151.5 Z"/></g>
<g><path style="opacity:1" fill="#8f8891" d="M 511.5,1151.5 C 516.833,1151.5 522.167,1151.5 527.5,1151.5C 527.5,1156.83 527.5,1162.17 527.5,1167.5C 522.167,1167.5 516.833,1167.5 511.5,1167.5C 511.5,1162.17 511.5,1156.83 511.5,1151.5 Z"/></g>
<g><path style="opacity:1" fill="#a3bfdd" d="M 527.5,1151.5 C 532.833,1151.5 538.167,1151.5 543.5,1151.5C 543.5,1156.83 543.5,1162.17 543.5,1167.5C 538.167,1167.5 532.833,1167.5 527.5,1167.5C 527.5,1162.17 527.5,1156.83 527.5,1151.5 Z"/></g>
<g><path style="opacity:1" fill="#f4fefe" d="M 543.5,1151.5 C 548.833,1151.5 554.167,1151.5 559.5,1151.5C 559.5,1156.83 559.5,1162.17 559.5,1167.5C 554.167,1167.5 548.833,1167.5 543.5,1167.5C 543.5,1162.17 543.5,1156.83 543.5,1151.5 Z"/></g>
<g><path style="opacity:1" fill="#fefce4" d="M 1455.5,1151.5 C 1460.83,1151.5 1466.17,1151.5 1471.5,1151.5C 1471.5,1156.83 1471.5,1162.17 1471.5,1167.5C 1466.17,1167.5 1460.83,1167.5 1455.5,1167.5C 1455.5,1162.17 1455.5,1156.83 1455.5,1151.5 Z"/></g>
<g><path style="opacity:1" fill="#c5b0a9" d="M 1471.5,1151.5 C 1476.83,1151.5 1482.17,1151.5 1487.5,1151.5C 1487.5,1156.83 1487.5,1162.17 1487.5,1167.5C 1482.17,1167.5 1476.83,1167.5 1471.5,1167.5C 1471.5,1162.17 1471.5,1156.83 1471.5,1151.5 Z"/></g>
<g><path style="opacity:1" fill="#8f8d9e" d="M 1487.5,1151.5 C 1492.83,1151.5 1498.17,1151.5 1503.5,1151.5C 1503.5,1156.83 1503.5,1162.17 1503.5,1167.5C 1498.17,1167.5 1492.83,1167.5 1487.5,1167.5C 1487.5,1162.17 1487.5,1156.83 1487.5,1151.5 Z"/></g>
<g><path style="opacity:1" fill="#9d9ba5" d="M 1503.5,1151.5 C 1530.17,1151.5 1556.83,1151.5 1583.5,1151.5C 1583.5,1156.83 1583.5,1162.17 1583.5,1167.5C 1556.83,1167.5 1530.17,1167.5 1503.5,1167.5C 1503.5,1162.17 1503.5,1156.83 1503.5,1151.5 Z"/></g>
<g><path style="opacity:1" fill="#9d9295" d="M 1583.5,1151.5 C 1588.83,1151.5 1594.17,1151.5 1599.5,1151.5C 1599.5,1156.83 1599.5,1162.17 1599.5,1167.5C 1594.17,1167.5 1588.83,1167.5 1583.5,1167.5C 1583.5,1162.17 1583.5,1156.83 1583.5,1151.5 Z"/></g>
<g><path style="opacity:1" fill="#7c8bc1" d="M 1599.5,1151.5 C 1604.83,1151.5 1610.17,1151.5 1615.5,1151.5C 1615.5,1156.83 1615.5,1162.17 1615.5,1167.5C 1610.17,1167.5 1604.83,1167.5 1599.5,1167.5C 1599.5,1162.17 1599.5,1156.83 1599.5,1151.5 Z"/></g>
<g><path style="opacity:1" fill="#e6fafe" d="M 1615.5,1151.5 C 1620.83,1151.5 1626.17,1151.5 1631.5,1151.5C 1631.5,1156.83 1631.5,1162.17 1631.5,1167.5C 1626.17,1167.5 1620.83,1167.5 1615.5,1167.5C 1615.5,1162.17 1615.5,1156.83 1615.5,1151.5 Z"/></g>
<g><path style="opacity:1" fill="#0f3e65" d="M 2143.5,1151.5 C 2143.5,1156.83 2143.5,1162.17 2143.5,1167.5C 2138.17,1167.5 2132.83,1167.5 2127.5,1167.5C 2127.5,1162.17 2127.5,1156.83 2127.5,1151.5C 2132.83,1151.5 2138.17,1151.5 2143.5,1151.5 Z"/></g>
<g><path style="opacity:1" fill="#638096" d="M 2143.5,1151.5 C 2148.83,1151.5 2154.17,1151.5 2159.5,1151.5C 2159.5,1156.83 2159.5,1162.17 2159.5,1167.5C 2154.17,1167.5 2148.83,1167.5 2143.5,1167.5C 2143.5,1162.17 2143.5,1156.83 2143.5,1151.5 Z"/></g>
<g><path style="opacity:1" fill="#9c9aa5" d="M 2159.5,1151.5 C 2196.83,1151.5 2234.17,1151.5 2271.5,1151.5C 2271.5,1156.83 2271.5,1162.17 2271.5,1167.5C 2234.17,1167.5 2196.83,1167.5 2159.5,1167.5C 2159.5,1162.17 2159.5,1156.83 2159.5,1151.5 Z"/></g>
<g><path style="opacity:1" fill="#8e858c" d="M 2271.5,1151.5 C 2276.83,1151.5 2282.17,1151.5 2287.5,1151.5C 2287.5,1156.83 2287.5,1162.17 2287.5,1167.5C 2282.17,1167.5 2276.83,1167.5 2271.5,1167.5C 2271.5,1162.17 2271.5,1156.83 2271.5,1151.5 Z"/></g>
<g><path style="opacity:1" fill="#bff1fe" d="M 2287.5,1151.5 C 2292.83,1151.5 2298.17,1151.5 2303.5,1151.5C 2303.5,1156.83 2303.5,1162.17 2303.5,1167.5C 2298.17,1167.5 2292.83,1167.5 2287.5,1167.5C 2287.5,1162.17 2287.5,1156.83 2287.5,1151.5 Z"/></g>
<g><path style="opacity:1" fill="#fee3ad" d="M 2591.5,1151.5 C 2596.83,1151.5 2602.17,1151.5 2607.5,1151.5C 2607.5,1156.83 2607.5,1162.17 2607.5,1167.5C 2602.17,1167.5 2596.83,1167.5 2591.5,1167.5C 2591.5,1162.17 2591.5,1156.83 2591.5,1151.5 Z"/></g>
<g><path style="opacity:1" fill="#7f889d" d="M 2607.5,1151.5 C 2612.83,1151.5 2618.17,1151.5 2623.5,1151.5C 2623.5,1156.83 2623.5,1162.17 2623.5,1167.5C 2618.17,1167.5 2612.83,1167.5 2607.5,1167.5C 2607.5,1162.17 2607.5,1156.83 2607.5,1151.5 Z"/></g>
<g><path style="opacity:1" fill="#9d9aa4" d="M 2623.5,1151.5 C 2660.83,1151.5 2698.17,1151.5 2735.5,1151.5C 2735.5,1156.83 2735.5,1162.17 2735.5,1167.5C 2698.17,1167.5 2660.83,1167.5 2623.5,1167.5C 2623.5,1162.17 2623.5,1156.83 2623.5,1151.5 Z"/></g>
<g><path style="opacity:1" fill="#877770" d="M 2735.5,1151.5 C 2740.83,1151.5 2746.17,1151.5 2751.5,1151.5C 2751.5,1156.83 2751.5,1162.17 2751.5,1167.5C 2746.17,1167.5 2740.83,1167.5 2735.5,1167.5C 2735.5,1162.17 2735.5,1156.83 2735.5,1151.5 Z"/></g>
<g><path style="opacity:1" fill="#3f393d" d="M 2751.5,1151.5 C 2756.83,1151.5 2762.17,1151.5 2767.5,1151.5C 2767.5,1156.83 2767.5,1162.17 2767.5,1167.5C 2762.17,1167.5 2756.83,1167.5 2751.5,1167.5C 2751.5,1162.17 2751.5,1156.83 2751.5,1151.5 Z"/></g>
<g><path style="opacity:1" fill="#feffec" d="M 4175.5,1151.5 C 4180.83,1151.5 4186.17,1151.5 4191.5,1151.5C 4191.5,1156.83 4191.5,1162.17 4191.5,1167.5C 4186.17,1167.5 4180.83,1167.5 4175.5,1167.5C 4175.5,1162.17 4175.5,1156.83 4175.5,1151.5 Z"/></g>
<g><path style="opacity:1" fill="#b47f94" d="M 4191.5,1151.5 C 4196.83,1151.5 4202.17,1151.5 4207.5,1151.5C 4207.5,1156.83 4207.5,1162.17 4207.5,1167.5C 4202.17,1167.5 4196.83,1167.5 4191.5,1167.5C 4191.5,1162.17 4191.5,1156.83 4191.5,1151.5 Z"/></g>
<g><path style="opacity:1" fill="#9d9aa6" d="M 4207.5,1151.5 C 4292.83,1151.5 4378.17,1151.5 4463.5,1151.5C 4463.5,1156.83 4463.5,1162.17 4463.5,1167.5C 4378.17,1167.5 4292.83,1167.5 4207.5,1167.5C 4207.5,1162.17 4207.5,1156.83 4207.5,1151.5 Z"/></g>
<g><path style="opacity:1" fill="#978c8f" d="M 4463.5,1151.5 C 4468.83,1151.5 4474.17,1151.5 4479.5,1151.5C 4479.5,1156.83 4479.5,1162.17 4479.5,1167.5C 4474.17,1167.5 4468.83,1167.5 4463.5,1167.5C 4463.5,1162.17 4463.5,1156.83 4463.5,1151.5 Z"/></g>
<g><path style="opacity:1" fill="#78a4d5" d="M 4479.5,1151.5 C 4484.83,1151.5 4490.17,1151.5 4495.5,1151.5C 4495.5,1156.83 4495.5,1162.17 4495.5,1167.5C 4490.17,1167.5 4484.83,1167.5 4479.5,1167.5C 4479.5,1162.17 4479.5,1156.83 4479.5,1151.5 Z"/></g>
<g><path style="opacity:1" fill="#f5fffe" d="M 4495.5,1151.5 C 4500.83,1151.5 4506.17,1151.5 4511.5,1151.5C 4511.5,1156.83 4511.5,1162.17 4511.5,1167.5C 4506.17,1167.5 4500.83,1167.5 4495.5,1167.5C 4495.5,1162.17 4495.5,1156.83 4495.5,1151.5 Z"/></g>
<g><path style="opacity:1" fill="#2e78b7" d="M 2127.5,1167.5 C 2132.83,1167.5 2138.17,1167.5 2143.5,1167.5C 2143.5,1172.83 2143.5,1178.17 2143.5,1183.5C 2138.17,1183.5 2132.83,1183.5 2127.5,1183.5C 2127.5,1178.17 2127.5,1172.83 2127.5,1167.5 Z"/></g>
<g><path style="opacity:1" fill="#e2fbfe" d="M 2143.5,1167.5 C 2148.83,1167.5 2154.17,1167.5 2159.5,1167.5C 2159.5,1172.83 2159.5,1178.17 2159.5,1183.5C 2154.17,1183.5 2148.83,1183.5 2143.5,1183.5C 2143.5,1178.17 2143.5,1172.83 2143.5,1167.5 Z"/></g>
<g><path style="opacity:1" fill="#fef4d3" d="M 2735.5,1167.5 C 2740.83,1167.5 2746.17,1167.5 2751.5,1167.5C 2751.5,1172.83 2751.5,1178.17 2751.5,1183.5C 2746.17,1183.5 2740.83,1183.5 2735.5,1183.5C 2735.5,1178.17 2735.5,1172.83 2735.5,1167.5 Z"/></g>
<g><path style="opacity:1" fill="#9e6744" d="M 2751.5,1167.5 C 2756.83,1167.5 2762.17,1167.5 2767.5,1167.5C 2767.5,1172.83 2767.5,1178.17 2767.5,1183.5C 2762.17,1183.5 2756.83,1183.5 2751.5,1183.5C 2751.5,1178.17 2751.5,1172.83 2751.5,1167.5 Z"/></g>
<g><path style="opacity:1" fill="#d9a367" d="M 1823.5,1023.5 C 1828.83,1023.5 1834.17,1023.5 1839.5,1023.5C 1839.5,1423.5 1839.5,1823.5 1839.5,2223.5C 1834.17,2223.5 1828.83,2223.5 1823.5,2223.5C 1823.5,1823.5 1823.5,1423.5 1823.5,1023.5 Z"/></g>
<g><path style="opacity:1" fill="#317fc5" d="M 2127.5,1183.5 C 2132.83,1183.5 2138.17,1183.5 2143.5,1183.5C 2143.5,1279.5 2143.5,1375.5 2143.5,1471.5C 2138.17,1471.5 2132.83,1471.5 2127.5,1471.5C 2127.5,1375.5 2127.5,1279.5 2127.5,1183.5 Z"/></g>
<g><path style="opacity:1" fill="#f3feff" d="M 2143.5,1183.5 C 2148.83,1183.5 2154.17,1183.5 2159.5,1183.5C 2159.5,1279.5 2159.5,1375.5 2159.5,1471.5C 2154.17,1471.5 2148.83,1471.5 2143.5,1471.5C 2143.5,1375.5 2143.5,1279.5 2143.5,1183.5 Z"/></g>
<g><path style="opacity:1" fill="#fffee5" d="M 2735.5,1183.5 C 2740.83,1183.5 2746.17,1183.5 2751.5,1183.5C 2751.5,1274.17 2751.5,1364.83 2751.5,1455.5C 2746.17,1455.5 2740.83,1455.5 2735.5,1455.5C 2735.5,1364.83 2735.5,1274.17 2735.5,1183.5 Z"/></g>
<g><path style="opacity:1" fill="#ae6c46" d="M 2751.5,1183.5 C 2756.83,1183.5 2762.17,1183.5 2767.5,1183.5C 2767.5,1274.17 2767.5,1364.83 2767.5,1455.5C 2762.17,1455.5 2756.83,1455.5 2751.5,1455.5C 2751.5,1364.83 2751.5,1274.17 2751.5,1183.5 Z"/></g>
<g><path style="opacity:1" fill="#fef5d5" d="M 2735.5,1455.5 C 2740.83,1455.5 2746.17,1455.5 2751.5,1455.5C 2751.5,1460.83 2751.5,1466.17 2751.5,1471.5C 2746.17,1471.5 2740.83,1471.5 2735.5,1471.5C 2735.5,1466.17 2735.5,1460.83 2735.5,1455.5 Z"/></g>
<g><path style="opacity:1" fill="#9f6744" d="M 2751.5,1455.5 C 2756.83,1455.5 2762.17,1455.5 2767.5,1455.5C 2767.5,1460.83 2767.5,1466.17 2767.5,1471.5C 2762.17,1471.5 2756.83,1471.5 2751.5,1471.5C 2751.5,1466.17 2751.5,1460.83 2751.5,1455.5 Z"/></g>
<g><path style="opacity:1" fill="#114168" d="M 2127.5,1471.5 C 2132.83,1471.5 2138.17,1471.5 2143.5,1471.5C 2143.5,1476.83 2143.5,1482.17 2143.5,1487.5C 2138.17,1487.5 2132.83,1487.5 2127.5,1487.5C 2127.5,1482.17 2127.5,1476.83 2127.5,1471.5 Z"/></g>
<g><path style="opacity:1" fill="#6a879d" d="M 2143.5,1471.5 C 2148.83,1471.5 2154.17,1471.5 2159.5,1471.5C 2159.5,1476.83 2159.5,1482.17 2159.5,1487.5C 2154.17,1487.5 2148.83,1487.5 2143.5,1487.5C 2143.5,1482.17 2143.5,1476.83 2143.5,1471.5 Z"/></g>
<g><path style="opacity:1" fill="#a4a1ab" d="M 2159.5,1471.5 C 2351.5,1471.5 2543.5,1471.5 2735.5,1471.5C 2735.5,1476.83 2735.5,1482.17 2735.5,1487.5C 2543.5,1487.5 2351.5,1487.5 2159.5,1487.5C 2159.5,1482.17 2159.5,1476.83 2159.5,1471.5 Z"/></g>
<g><path style="opacity:1" fill="#8f7e76" d="M 2735.5,1471.5 C 2740.83,1471.5 2746.17,1471.5 2751.5,1471.5C 2751.5,1476.83 2751.5,1482.17 2751.5,1487.5C 2746.17,1487.5 2740.83,1487.5 2735.5,1487.5C 2735.5,1482.17 2735.5,1476.83 2735.5,1471.5 Z"/></g>
<g><path style="opacity:1" fill="#453b3d" d="M 2751.5,1471.5 C 2756.83,1471.5 2762.17,1471.5 2767.5,1471.5C 2767.5,1476.83 2767.5,1482.17 2767.5,1487.5C 2762.17,1487.5 2756.83,1487.5 2751.5,1487.5C 2751.5,1482.17 2751.5,1476.83 2751.5,1471.5 Z"/></g>
<g><path style="opacity:1" fill="#0f3e6f" d="M 2143.5,1775.5 C 2143.5,1780.83 2143.5,1786.17 2143.5,1791.5C 2138.17,1791.5 2132.83,1791.5 2127.5,1791.5C 2127.5,1786.17 2127.5,1780.83 2127.5,1775.5C 2132.83,1775.5 2138.17,1775.5 2143.5,1775.5 Z"/></g>
<g><path style="opacity:1" fill="#7da4b4" d="M 2143.5,1775.5 C 2148.83,1775.5 2154.17,1775.5 2159.5,1775.5C 2159.5,1780.83 2159.5,1786.17 2159.5,1791.5C 2154.17,1791.5 2148.83,1791.5 2143.5,1791.5C 2143.5,1786.17 2143.5,1780.83 2143.5,1775.5 Z"/></g>
<g><path style="opacity:1" fill="#aba8b2" d="M 2159.5,1775.5 C 2351.5,1775.5 2543.5,1775.5 2735.5,1775.5C 2735.5,1780.83 2735.5,1786.17 2735.5,1791.5C 2543.5,1791.5 2351.5,1791.5 2159.5,1791.5C 2159.5,1786.17 2159.5,1780.83 2159.5,1775.5 Z"/></g>
<g><path style="opacity:1" fill="#af9882" d="M 2735.5,1775.5 C 2740.83,1775.5 2746.17,1775.5 2751.5,1775.5C 2751.5,1780.83 2751.5,1786.17 2751.5,1791.5C 2746.17,1791.5 2740.83,1791.5 2735.5,1791.5C 2735.5,1786.17 2735.5,1780.83 2735.5,1775.5 Z"/></g>
<g><path style="opacity:1" fill="#49373d" d="M 2751.5,1775.5 C 2756.83,1775.5 2762.17,1775.5 2767.5,1775.5C 2767.5,1780.83 2767.5,1786.17 2767.5,1791.5C 2762.17,1791.5 2756.83,1791.5 2751.5,1791.5C 2751.5,1786.17 2751.5,1780.83 2751.5,1775.5 Z"/></g>
<g><path style="opacity:1" fill="#feffec" d="M 4191.5,1775.5 C 4191.5,1780.83 4191.5,1786.17 4191.5,1791.5C 4186.17,1791.5 4180.83,1791.5 4175.5,1791.5C 4175.5,1786.17 4175.5,1780.83 4175.5,1775.5C 4180.83,1775.5 4186.17,1775.5 4191.5,1775.5 Z"/></g>
<g><path style="opacity:1" fill="#b47f94" d="M 4191.5,1775.5 C 4196.83,1775.5 4202.17,1775.5 4207.5,1775.5C 4207.5,1780.83 4207.5,1786.17 4207.5,1791.5C 4202.17,1791.5 4196.83,1791.5 4191.5,1791.5C 4191.5,1786.17 4191.5,1780.83 4191.5,1775.5 Z"/></g>
<g><path style="opacity:1" fill="#9d9aa6" d="M 4207.5,1775.5 C 4292.83,1775.5 4378.17,1775.5 4463.5,1775.5C 4463.5,1780.83 4463.5,1786.17 4463.5,1791.5C 4378.17,1791.5 4292.83,1791.5 4207.5,1791.5C 4207.5,1786.17 4207.5,1780.83 4207.5,1775.5 Z"/></g>
<g><path style="opacity:1" fill="#978c8f" d="M 4463.5,1775.5 C 4468.83,1775.5 4474.17,1775.5 4479.5,1775.5C 4479.5,1780.83 4479.5,1786.17 4479.5,1791.5C 4474.17,1791.5 4468.83,1791.5 4463.5,1791.5C 4463.5,1786.17 4463.5,1780.83 4463.5,1775.5 Z"/></g>
<g><path style="opacity:1" fill="#78a4d5" d="M 4479.5,1775.5 C 4484.83,1775.5 4490.17,1775.5 4495.5,1775.5C 4495.5,1780.83 4495.5,1786.17 4495.5,1791.5C 4490.17,1791.5 4484.83,1791.5 4479.5,1791.5C 4479.5,1786.17 4479.5,1780.83 4479.5,1775.5 Z"/></g>
<g><path style="opacity:1" fill="#f5fffe" d="M 4495.5,1775.5 C 4500.83,1775.5 4506.17,1775.5 4511.5,1775.5C 4511.5,1780.83 4511.5,1786.17 4511.5,1791.5C 4506.17,1791.5 4500.83,1791.5 4495.5,1791.5C 4495.5,1786.17 4495.5,1780.83 4495.5,1775.5 Z"/></g>
<g><path style="opacity:1" fill="#fefff1" d="M 2735.5,1791.5 C 2740.83,1791.5 2746.17,1791.5 2751.5,1791.5C 2751.5,1796.83 2751.5,1802.17 2751.5,1807.5C 2746.17,1807.5 2740.83,1807.5 2735.5,1807.5C 2735.5,1802.17 2735.5,1796.83 2735.5,1791.5 Z"/></g>
<g><path style="opacity:1" fill="#bd7249" d="M 2751.5,1791.5 C 2756.83,1791.5 2762.17,1791.5 2767.5,1791.5C 2767.5,1796.83 2767.5,1802.17 2767.5,1807.5C 2762.17,1807.5 2756.83,1807.5 2751.5,1807.5C 2751.5,1802.17 2751.5,1796.83 2751.5,1791.5 Z"/></g>
<g><path style="opacity:1" fill="#fef7b2" d="M 4175.5,1791.5 C 4180.83,1791.5 4186.17,1791.5 4191.5,1791.5C 4191.5,1796.83 4191.5,1802.17 4191.5,1807.5C 4186.17,1807.5 4180.83,1807.5 4175.5,1807.5C 4175.5,1802.17 4175.5,1796.83 4175.5,1791.5 Z"/></g>
<g><path style="opacity:1" fill="#3f253d" d="M 4191.5,1791.5 C 4196.83,1791.5 4202.17,1791.5 4207.5,1791.5C 4207.5,1796.83 4207.5,1802.17 4207.5,1807.5C 4202.17,1807.5 4196.83,1807.5 4191.5,1807.5C 4191.5,1802.17 4191.5,1796.83 4191.5,1791.5 Z"/></g>
<g><path style="opacity:1" fill="#0e4090" d="M 4479.5,1791.5 C 4484.83,1791.5 4490.17,1791.5 4495.5,1791.5C 4495.5,1796.83 4495.5,1802.17 4495.5,1807.5C 4490.17,1807.5 4484.83,1807.5 4479.5,1807.5C 4479.5,1802.17 4479.5,1796.83 4479.5,1791.5 Z"/></g>
<g><path style="opacity:1" fill="#3280c5" d="M 2127.5,1791.5 C 2132.83,1791.5 2138.17,1791.5 2143.5,1791.5C 2143.5,1796.83 2143.5,1802.17 2143.5,1807.5C 2143.5,1946.17 2143.5,2084.83 2143.5,2223.5C 2138.17,2223.5 2132.83,2223.5 2127.5,2223.5C 2127.5,2079.5 2127.5,1935.5 2127.5,1791.5 Z"/></g>
<g><path style="opacity:1" fill="#f4fffe" d="M 2143.5,1807.5 C 2148.83,1807.5 2154.17,1807.5 2159.5,1807.5C 2159.5,1946.17 2159.5,2084.83 2159.5,2223.5C 2154.17,2223.5 2148.83,2223.5 2143.5,2223.5C 2143.5,2084.83 2143.5,1946.17 2143.5,1807.5 Z"/></g>
<g><path style="opacity:1" fill="#fffee5" d="M 2735.5,1807.5 C 2740.83,1807.5 2746.17,1807.5 2751.5,1807.5C 2751.5,1946.17 2751.5,2084.83 2751.5,2223.5C 2746.17,2223.5 2740.83,2223.5 2735.5,2223.5C 2735.5,2084.83 2735.5,1946.17 2735.5,1807.5 Z"/></g>
<g><path style="opacity:1" fill="#ae6c46" d="M 2751.5,1807.5 C 2756.83,1807.5 2762.17,1807.5 2767.5,1807.5C 2767.5,1946.17 2767.5,2084.83 2767.5,2223.5C 2762.17,2223.5 2756.83,2223.5 2751.5,2223.5C 2751.5,2084.83 2751.5,1946.17 2751.5,1807.5 Z"/></g>
<g><path style="opacity:1" fill="#fff2b8" d="M 4175.5,1807.5 C 4180.83,1807.5 4186.17,1807.5 4191.5,1807.5C 4191.5,1839.5 4191.5,1871.5 4191.5,1903.5C 4191.5,1908.83 4191.5,1914.17 4191.5,1919.5C 4186.17,1919.5 4180.83,1919.5 4175.5,1919.5C 4175.5,1882.17 4175.5,1844.83 4175.5,1807.5 Z"/></g>
<g><path style="opacity:1" fill="#59283e" d="M 4191.5,1807.5 C 4196.83,1807.5 4202.17,1807.5 4207.5,1807.5C 4207.5,1839.5 4207.5,1871.5 4207.5,1903.5C 4202.17,1903.5 4196.83,1903.5 4191.5,1903.5C 4191.5,1871.5 4191.5,1839.5 4191.5,1807.5 Z"/></g>
<g><path style="opacity:1" fill="#205da6" d="M 4479.5,1807.5 C 4484.83,1807.5 4490.17,1807.5 4495.5,1807.5C 4495.5,1892.83 4495.5,1978.17 4495.5,2063.5C 4490.17,2063.5 4484.83,2063.5 4479.5,2063.5C 4479.5,1978.17 4479.5,1892.83 4479.5,1807.5 Z"/></g>
<g><path style="opacity:1" fill="#dafbff" d="M 4495.5,1791.5 C 4500.83,1791.5 4506.17,1791.5 4511.5,1791.5C 4511.5,1887.5 4511.5,1983.5 4511.5,2079.5C 4506.17,2079.5 4500.83,2079.5 4495.5,2079.5C 4495.5,2074.17 4495.5,2068.83 4495.5,2063.5C 4495.5,1978.17 4495.5,1892.83 4495.5,1807.5C 4495.5,1802.17 4495.5,1796.83 4495.5,1791.5 Z"/></g>
<g><path style="opacity:1" fill="#fcfffe" d="M 3583.5,1903.5 C 3588.83,1903.5 3594.17,1903.5 3599.5,1903.5C 3599.5,1908.83 3599.5,1914.17 3599.5,1919.5C 3594.17,1919.5 3588.83,1919.5 3583.5,1919.5C 3583.5,1914.17 3583.5,1908.83 3583.5,1903.5 Z"/></g>
<g><path style="opacity:1" fill="#4c263d" d="M 4191.5,1903.5 C 4196.83,1903.5 4202.17,1903.5 4207.5,1903.5C 4207.5,1908.83 4207.5,1914.17 4207.5,1919.5C 4202.17,1919.5 4196.83,1919.5 4191.5,1919.5C 4191.5,1914.17 4191.5,1908.83 4191.5,1903.5 Z"/></g>
<g><path style="opacity:1" fill="#3b75a9" d="M 3567.5,1919.5 C 3572.83,1919.5 3578.17,1919.5 3583.5,1919.5C 3583.5,1924.83 3583.5,1930.17 3583.5,1935.5C 3578.17,1935.5 3572.83,1935.5 3567.5,1935.5C 3567.5,1930.17 3567.5,1924.83 3567.5,1919.5 Z"/></g>
<g><path style="opacity:1" fill="#c9e3e6" d="M 3583.5,1919.5 C 3588.83,1919.5 3594.17,1919.5 3599.5,1919.5C 3599.5,1924.83 3599.5,1930.17 3599.5,1935.5C 3594.17,1935.5 3588.83,1935.5 3583.5,1935.5C 3583.5,1930.17 3583.5,1924.83 3583.5,1919.5 Z"/></g>
<g><path style="opacity:1" fill="#eee9eb" d="M 3599.5,1919.5 C 3791.5,1919.5 3983.5,1919.5 4175.5,1919.5C 4175.5,1924.83 4175.5,1930.17 4175.5,1935.5C 4170.17,1935.5 4164.83,1935.5 4159.5,1935.5C 3972.83,1935.5 3786.17,1935.5 3599.5,1935.5C 3599.5,1930.17 3599.5,1924.83 3599.5,1919.5 Z"/></g>
<g><path style="opacity:1" fill="#e7b07a" d="M 4175.5,1919.5 C 4180.83,1919.5 4186.17,1919.5 4191.5,1919.5C 4191.5,1924.83 4191.5,1930.17 4191.5,1935.5C 4186.17,1935.5 4180.83,1935.5 4175.5,1935.5C 4175.5,1930.17 4175.5,1924.83 4175.5,1919.5 Z"/></g>
<g><path style="opacity:1" fill="#25253e" d="M 4191.5,1919.5 C 4196.83,1919.5 4202.17,1919.5 4207.5,1919.5C 4207.5,1924.83 4207.5,1930.17 4207.5,1935.5C 4202.17,1935.5 4196.83,1935.5 4191.5,1935.5C 4191.5,1930.17 4191.5,1924.83 4191.5,1919.5 Z"/></g>
<g><path style="opacity:1" fill="#5180b3" d="M 5007.5,1919.5 C 5012.83,1919.5 5018.17,1919.5 5023.5,1919.5C 5023.5,1924.83 5023.5,1930.17 5023.5,1935.5C 5018.17,1935.5 5012.83,1935.5 5007.5,1935.5C 5007.5,1930.17 5007.5,1924.83 5007.5,1919.5 Z"/></g>
<g><path style="opacity:1" fill="#d3e3e7" d="M 5023.5,1919.5 C 5028.83,1919.5 5034.17,1919.5 5039.5,1919.5C 5039.5,1924.83 5039.5,1930.17 5039.5,1935.5C 5034.17,1935.5 5028.83,1935.5 5023.5,1935.5C 5023.5,1930.17 5023.5,1924.83 5023.5,1919.5 Z"/></g>
<g><path style="opacity:1" fill="#eee9eb" d="M 5039.5,1919.5 C 5231.5,1919.5 5423.5,1919.5 5615.5,1919.5C 5615.5,1924.83 5615.5,1930.17 5615.5,1935.5C 5610.17,1935.5 5604.83,1935.5 5599.5,1935.5C 5412.83,1935.5 5226.17,1935.5 5039.5,1935.5C 5039.5,1930.17 5039.5,1924.83 5039.5,1919.5 Z"/></g>
<g><path style="opacity:1" fill="#e3bda1" d="M 5615.5,1919.5 C 5620.83,1919.5 5626.17,1919.5 5631.5,1919.5C 5631.5,1924.83 5631.5,1930.17 5631.5,1935.5C 5626.17,1935.5 5620.83,1935.5 5615.5,1935.5C 5615.5,1930.17 5615.5,1924.83 5615.5,1919.5 Z"/></g>
<g><path style="opacity:1" fill="#6a3a3d" d="M 5631.5,1919.5 C 5636.83,1919.5 5642.17,1919.5 5647.5,1919.5C 5647.5,1924.83 5647.5,1930.17 5647.5,1935.5C 5642.17,1935.5 5636.83,1935.5 5631.5,1935.5C 5631.5,1930.17 5631.5,1924.83 5631.5,1919.5 Z"/></g>
<g><path style="opacity:1" fill="#364158" d="M 3599.5,1935.5 C 3786.17,1935.5 3972.83,1935.5 4159.5,1935.5C 4159.5,1940.83 4159.5,1946.17 4159.5,1951.5C 3972.83,1951.5 3786.17,1951.5 3599.5,1951.5C 3599.5,1946.17 3599.5,1940.83 3599.5,1935.5 Z"/></g>
<g><path style="opacity:1" fill="#323749" d="M 4159.5,1935.5 C 4164.83,1935.5 4170.17,1935.5 4175.5,1935.5C 4175.5,1940.83 4175.5,1946.17 4175.5,1951.5C 4170.17,1951.5 4164.83,1951.5 4159.5,1951.5C 4159.5,1946.17 4159.5,1940.83 4159.5,1935.5 Z"/></g>
<g><path style="opacity:1" fill="#192f4c" d="M 5023.5,1935.5 C 5028.83,1935.5 5034.17,1935.5 5039.5,1935.5C 5039.5,1940.83 5039.5,1946.17 5039.5,1951.5C 5034.17,1951.5 5028.83,1951.5 5023.5,1951.5C 5023.5,1946.17 5023.5,1940.83 5023.5,1935.5 Z"/></g>
<g><path style="opacity:1" fill="#364158" d="M 5039.5,1935.5 C 5226.17,1935.5 5412.83,1935.5 5599.5,1935.5C 5599.5,1940.83 5599.5,1946.17 5599.5,1951.5C 5412.83,1951.5 5226.17,1951.5 5039.5,1951.5C 5039.5,1946.17 5039.5,1940.83 5039.5,1935.5 Z"/></g>
<g><path style="opacity:1" fill="#303849" d="M 5599.5,1935.5 C 5604.83,1935.5 5610.17,1935.5 5615.5,1935.5C 5615.5,1940.83 5615.5,1946.17 5615.5,1951.5C 5610.17,1951.5 5604.83,1951.5 5599.5,1951.5C 5599.5,1946.17 5599.5,1940.83 5599.5,1935.5 Z"/></g>
<g><path style="opacity:1" fill="#d09468" d="M 3263.5,2063.5 C 3268.83,2063.5 3274.17,2063.5 3279.5,2063.5C 3279.5,2068.83 3279.5,2074.17 3279.5,2079.5C 3274.17,2079.5 3268.83,2079.5 3263.5,2079.5C 3263.5,2074.17 3263.5,2068.83 3263.5,2063.5 Z"/></g>
<g><path style="opacity:1" fill="#114695" d="M 4479.5,2063.5 C 4484.83,2063.5 4490.17,2063.5 4495.5,2063.5C 4495.5,2068.83 4495.5,2074.17 4495.5,2079.5C 4490.17,2079.5 4484.83,2079.5 4479.5,2079.5C 4479.5,2074.17 4479.5,2068.83 4479.5,2063.5 Z"/></g>
<g><path style="opacity:1" fill="#c4825b" d="M 4703.5,2063.5 C 4708.83,2063.5 4714.17,2063.5 4719.5,2063.5C 4719.5,2068.83 4719.5,2074.17 4719.5,2079.5C 4714.17,2079.5 4708.83,2079.5 4703.5,2079.5C 4703.5,2074.17 4703.5,2068.83 4703.5,2063.5 Z"/></g>
<g><path style="opacity:1" fill="#1856a7" d="M 5919.5,2063.5 C 5924.83,2063.5 5930.17,2063.5 5935.5,2063.5C 5935.5,2068.83 5935.5,2074.17 5935.5,2079.5C 5930.17,2079.5 5924.83,2079.5 5919.5,2079.5C 5919.5,2074.17 5919.5,2068.83 5919.5,2063.5 Z"/></g>
<g><path style="opacity:1" fill="#fef3e2" d="M 3263.5,2079.5 C 3268.83,2079.5 3274.17,2079.5 3279.5,2079.5C 3279.5,2084.83 3279.5,2090.17 3279.5,2095.5C 3274.17,2095.5 3268.83,2095.5 3263.5,2095.5C 3263.5,2090.17 3263.5,2084.83 3263.5,2079.5 Z"/></g>
<g><path style="opacity:1" fill="#c8a4af" d="M 3279.5,2079.5 C 3284.83,2079.5 3290.17,2079.5 3295.5,2079.5C 3295.5,2084.83 3295.5,2090.17 3295.5,2095.5C 3290.17,2095.5 3284.83,2095.5 3279.5,2095.5C 3279.5,2090.17 3279.5,2084.83 3279.5,2079.5 Z"/></g>
<g><path style="opacity:1" fill="#b4b0b9" d="M 3295.5,2079.5 C 3327.5,2079.5 3359.5,2079.5 3391.5,2079.5C 3391.5,2084.83 3391.5,2090.17 3391.5,2095.5C 3359.5,2095.5 3327.5,2095.5 3295.5,2095.5C 3295.5,2090.17 3295.5,2084.83 3295.5,2079.5 Z"/></g>
<g><path style="opacity:1" fill="#b9b8b5" d="M 3391.5,2079.5 C 3396.83,2079.5 3402.17,2079.5 3407.5,2079.5C 3407.5,2084.83 3407.5,2090.17 3407.5,2095.5C 3402.17,2095.5 3396.83,2095.5 3391.5,2095.5C 3391.5,2090.17 3391.5,2084.83 3391.5,2079.5 Z"/></g>
<g><path style="opacity:1" fill="#9a847e" d="M 3407.5,2079.5 C 3412.83,2079.5 3418.17,2079.5 3423.5,2079.5C 3423.5,2084.83 3423.5,2090.17 3423.5,2095.5C 3418.17,2095.5 3412.83,2095.5 3407.5,2095.5C 3407.5,2090.17 3407.5,2084.83 3407.5,2079.5 Z"/></g>
<g><path style="opacity:1" fill="#43343e" d="M 3423.5,2079.5 C 3428.83,2079.5 3434.17,2079.5 3439.5,2079.5C 3439.5,2084.83 3439.5,2090.17 3439.5,2095.5C 3434.17,2095.5 3428.83,2095.5 3423.5,2095.5C 3423.5,2090.17 3423.5,2084.83 3423.5,2079.5 Z"/></g>
<g><path style="opacity:1" fill="#214a7b" d="M 4351.5,2079.5 C 4351.5,2084.83 4351.5,2090.17 4351.5,2095.5C 4346.17,2095.5 4340.83,2095.5 4335.5,2095.5C 4335.5,2090.17 4335.5,2084.83 4335.5,2079.5C 4340.83,2079.5 4346.17,2079.5 4351.5,2079.5 Z"/></g>
<g><path style="opacity:1" fill="#8096b3" d="M 4351.5,2079.5 C 4356.83,2079.5 4362.17,2079.5 4367.5,2079.5C 4367.5,2084.83 4367.5,2090.17 4367.5,2095.5C 4362.17,2095.5 4356.83,2095.5 4351.5,2095.5C 4351.5,2090.17 4351.5,2084.83 4351.5,2079.5 Z"/></g>
<g><path style="opacity:1" fill="#b5afb8" d="M 4367.5,2079.5 C 4404.83,2079.5 4442.17,2079.5 4479.5,2079.5C 4479.5,2084.83 4479.5,2090.17 4479.5,2095.5C 4442.17,2095.5 4404.83,2095.5 4367.5,2095.5C 4367.5,2090.17 4367.5,2084.83 4367.5,2079.5 Z"/></g>
<g><path style="opacity:1" fill="#a9cbec" d="M 4479.5,2079.5 C 4484.83,2079.5 4490.17,2079.5 4495.5,2079.5C 4495.5,2084.83 4495.5,2090.17 4495.5,2095.5C 4490.17,2095.5 4484.83,2095.5 4479.5,2095.5C 4479.5,2090.17 4479.5,2084.83 4479.5,2079.5 Z"/></g>
<g><path style="opacity:1" fill="#fdefdb" d="M 4703.5,2079.5 C 4708.83,2079.5 4714.17,2079.5 4719.5,2079.5C 4719.5,2084.83 4719.5,2090.17 4719.5,2095.5C 4714.17,2095.5 4708.83,2095.5 4703.5,2095.5C 4703.5,2090.17 4703.5,2084.83 4703.5,2079.5 Z"/></g>
<g><path style="opacity:1" fill="#bfa3b0" d="M 4719.5,2079.5 C 4724.83,2079.5 4730.17,2079.5 4735.5,2079.5C 4735.5,2084.83 4735.5,2090.17 4735.5,2095.5C 4730.17,2095.5 4724.83,2095.5 4719.5,2095.5C 4719.5,2090.17 4719.5,2084.83 4719.5,2079.5 Z"/></g>
<g><path style="opacity:1" fill="#b3b0b9" d="M 4735.5,2079.5 C 4767.5,2079.5 4799.5,2079.5 4831.5,2079.5C 4831.5,2084.83 4831.5,2090.17 4831.5,2095.5C 4799.5,2095.5 4767.5,2095.5 4735.5,2095.5C 4735.5,2090.17 4735.5,2084.83 4735.5,2079.5 Z"/></g>
<g><path style="opacity:1" fill="#bab9b0" d="M 4831.5,2079.5 C 4836.83,2079.5 4842.17,2079.5 4847.5,2079.5C 4847.5,2084.83 4847.5,2090.17 4847.5,2095.5C 4842.17,2095.5 4836.83,2095.5 4831.5,2095.5C 4831.5,2090.17 4831.5,2084.83 4831.5,2079.5 Z"/></g>
<g><path style="opacity:1" fill="#937e75" d="M 4847.5,2079.5 C 4852.83,2079.5 4858.17,2079.5 4863.5,2079.5C 4863.5,2084.83 4863.5,2090.17 4863.5,2095.5C 4858.17,2095.5 4852.83,2095.5 4847.5,2095.5C 4847.5,2090.17 4847.5,2084.83 4847.5,2079.5 Z"/></g>
<g><path style="opacity:1" fill="#392e3d" d="M 4863.5,2079.5 C 4868.83,2079.5 4874.17,2079.5 4879.5,2079.5C 4879.5,2084.83 4879.5,2090.17 4879.5,2095.5C 4874.17,2095.5 4868.83,2095.5 4863.5,2095.5C 4863.5,2090.17 4863.5,2084.83 4863.5,2079.5 Z"/></g>
<g><path style="opacity:1" fill="#2a5284" d="M 5791.5,2079.5 C 5791.5,2084.83 5791.5,2090.17 5791.5,2095.5C 5786.17,2095.5 5780.83,2095.5 5775.5,2095.5C 5775.5,2090.17 5775.5,2084.83 5775.5,2079.5C 5780.83,2079.5 5786.17,2079.5 5791.5,2079.5 Z"/></g>
<g><path style="opacity:1" fill="#879cb8" d="M 5791.5,2079.5 C 5796.83,2079.5 5802.17,2079.5 5807.5,2079.5C 5807.5,2084.83 5807.5,2090.17 5807.5,2095.5C 5802.17,2095.5 5796.83,2095.5 5791.5,2095.5C 5791.5,2090.17 5791.5,2084.83 5791.5,2079.5 Z"/></g>
<g><path style="opacity:1" fill="#b5afb8" d="M 5807.5,2079.5 C 5844.83,2079.5 5882.17,2079.5 5919.5,2079.5C 5919.5,2084.83 5919.5,2090.17 5919.5,2095.5C 5882.17,2095.5 5844.83,2095.5 5807.5,2095.5C 5807.5,2090.17 5807.5,2084.83 5807.5,2079.5 Z"/></g>
<g><path style="opacity:1" fill="#b4d5f2" d="M 5919.5,2079.5 C 5924.83,2079.5 5930.17,2079.5 5935.5,2079.5C 5935.5,2084.83 5935.5,2090.17 5935.5,2095.5C 5930.17,2095.5 5924.83,2095.5 5919.5,2095.5C 5919.5,2090.17 5919.5,2084.83 5919.5,2079.5 Z"/></g>
<g><path style="opacity:1" fill="#b26a4b" d="M 3423.5,2095.5 C 3428.83,2095.5 3434.17,2095.5 3439.5,2095.5C 3439.5,2100.83 3439.5,2106.17 3439.5,2111.5C 3434.17,2111.5 3428.83,2111.5 3423.5,2111.5C 3423.5,2106.17 3423.5,2100.83 3423.5,2095.5 Z"/></g>
<g><path style="opacity:1" fill="#0c2549" d="M 4335.5,2095.5 C 4335.5,2100.83 4335.5,2106.17 4335.5,2111.5C 4330.17,2111.5 4324.83,2111.5 4319.5,2111.5C 4319.5,2106.17 4319.5,2100.83 4319.5,2095.5C 4324.83,2095.5 4330.17,2095.5 4335.5,2095.5 Z"/></g>
<g><path style="opacity:1" fill="#5fa9e8" d="M 4335.5,2095.5 C 4340.83,2095.5 4346.17,2095.5 4351.5,2095.5C 4351.5,2100.83 4351.5,2106.17 4351.5,2111.5C 4346.17,2111.5 4340.83,2111.5 4335.5,2111.5C 4335.5,2106.17 4335.5,2100.83 4335.5,2095.5 Z"/></g>
<g><path style="opacity:1" fill="#9e5842" d="M 4863.5,2095.5 C 4868.83,2095.5 4874.17,2095.5 4879.5,2095.5C 4879.5,2100.83 4879.5,2106.17 4879.5,2111.5C 4874.17,2111.5 4868.83,2111.5 4863.5,2111.5C 4863.5,2106.17 4863.5,2100.83 4863.5,2095.5 Z"/></g>
<g><path style="opacity:1" fill="#0c2452" d="M 5775.5,2095.5 C 5775.5,2100.83 5775.5,2106.17 5775.5,2111.5C 5770.17,2111.5 5764.83,2111.5 5759.5,2111.5C 5759.5,2106.17 5759.5,2100.83 5759.5,2095.5C 5764.83,2095.5 5770.17,2095.5 5775.5,2095.5 Z"/></g>
<g><path style="opacity:1" fill="#76bbf1" d="M 5775.5,2095.5 C 5780.83,2095.5 5786.17,2095.5 5791.5,2095.5C 5791.5,2100.83 5791.5,2106.17 5791.5,2111.5C 5786.17,2111.5 5780.83,2111.5 5775.5,2111.5C 5775.5,2106.17 5775.5,2100.83 5775.5,2095.5 Z"/></g>
<g><path style="opacity:1" fill="#fffeee" d="M 3407.5,2095.5 C 3412.83,2095.5 3418.17,2095.5 3423.5,2095.5C 3423.5,2100.83 3423.5,2106.17 3423.5,2111.5C 3423.5,2143.5 3423.5,2175.5 3423.5,2207.5C 3423.5,2218.17 3423.5,2228.83 3423.5,2239.5C 3418.17,2239.5 3412.83,2239.5 3407.5,2239.5C 3407.5,2191.5 3407.5,2143.5 3407.5,2095.5 Z"/></g>
<g><path style="opacity:1" fill="#c07e5a" d="M 3423.5,2111.5 C 3428.83,2111.5 3434.17,2111.5 3439.5,2111.5C 3439.5,2143.5 3439.5,2175.5 3439.5,2207.5C 3434.17,2207.5 3428.83,2207.5 3423.5,2207.5C 3423.5,2175.5 3423.5,2143.5 3423.5,2111.5 Z"/></g>
<g><path style="opacity:1" fill="#0c2557" d="M 4319.5,2111.5 C 4324.83,2111.5 4330.17,2111.5 4335.5,2111.5C 4335.5,2143.5 4335.5,2175.5 4335.5,2207.5C 4335.5,2212.83 4335.5,2218.17 4335.5,2223.5C 4330.17,2223.5 4324.83,2223.5 4319.5,2223.5C 4319.5,2186.17 4319.5,2148.83 4319.5,2111.5 Z"/></g>
<g><path style="opacity:1" fill="#77b6ec" d="M 4335.5,2111.5 C 4340.83,2111.5 4346.17,2111.5 4351.5,2111.5C 4351.5,2143.5 4351.5,2175.5 4351.5,2207.5C 4346.17,2207.5 4340.83,2207.5 4335.5,2207.5C 4335.5,2175.5 4335.5,2143.5 4335.5,2111.5 Z"/></g>
<g><path style="opacity:1" fill="#fffee4" d="M 4847.5,2095.5 C 4852.83,2095.5 4858.17,2095.5 4863.5,2095.5C 4863.5,2100.83 4863.5,2106.17 4863.5,2111.5C 4863.5,2143.5 4863.5,2175.5 4863.5,2207.5C 4863.5,2218.17 4863.5,2228.83 4863.5,2239.5C 4858.17,2239.5 4852.83,2239.5 4847.5,2239.5C 4847.5,2191.5 4847.5,2143.5 4847.5,2095.5 Z"/></g>
<g><path style="opacity:1" fill="#ae6e50" d="M 4863.5,2111.5 C 4868.83,2111.5 4874.17,2111.5 4879.5,2111.5C 4879.5,2143.5 4879.5,2175.5 4879.5,2207.5C 4874.17,2207.5 4868.83,2207.5 4863.5,2207.5C 4863.5,2175.5 4863.5,2143.5 4863.5,2111.5 Z"/></g>
<g><path style="opacity:1" fill="#0c2762" d="M 5759.5,2111.5 C 5764.83,2111.5 5770.17,2111.5 5775.5,2111.5C 5775.5,2148.83 5775.5,2186.17 5775.5,2223.5C 5770.17,2223.5 5764.83,2223.5 5759.5,2223.5C 5759.5,2186.17 5759.5,2148.83 5759.5,2111.5 Z"/></g>
<g><path style="opacity:1" fill="#88c6f6" d="M 5775.5,2111.5 C 5780.83,2111.5 5786.17,2111.5 5791.5,2111.5C 5791.5,2154.17 5791.5,2196.83 5791.5,2239.5C 5786.17,2239.5 5780.83,2239.5 5775.5,2239.5C 5775.5,2234.17 5775.5,2228.83 5775.5,2223.5C 5775.5,2186.17 5775.5,2148.83 5775.5,2111.5 Z"/></g>
<g><path style="opacity:1" fill="#d89164" d="M 847.5,2207.5 C 852.833,2207.5 858.167,2207.5 863.5,2207.5C 863.5,2212.83 863.5,2218.17 863.5,2223.5C 863.5,2228.83 863.5,2234.17 863.5,2239.5C 858.167,2239.5 852.833,2239.5 847.5,2239.5C 847.5,2228.83 847.5,2218.17 847.5,2207.5 Z"/></g>
<g><path style="opacity:1" fill="#162d4c" d="M 863.5,2223.5 C 868.833,2223.5 874.167,2223.5 879.5,2223.5C 879.5,2228.83 879.5,2234.17 879.5,2239.5C 874.167,2239.5 868.833,2239.5 863.5,2239.5C 863.5,2234.17 863.5,2228.83 863.5,2223.5 Z"/></g>
<g><path style="opacity:1" fill="#354156" d="M 879.5,2223.5 C 964.833,2223.5 1050.17,2223.5 1135.5,2223.5C 1135.5,2228.83 1135.5,2234.17 1135.5,2239.5C 1050.17,2239.5 964.833,2239.5 879.5,2239.5C 879.5,2234.17 879.5,2228.83 879.5,2223.5 Z"/></g>
<g><path style="opacity:1" fill="#262d40" d="M 1135.5,2223.5 C 1140.83,2223.5 1146.17,2223.5 1151.5,2223.5C 1151.5,2228.83 1151.5,2234.17 1151.5,2239.5C 1146.17,2239.5 1140.83,2239.5 1135.5,2239.5C 1135.5,2234.17 1135.5,2228.83 1135.5,2223.5 Z"/></g>
<g><path style="opacity:1" fill="#fefffc" d="M 1807.5,2223.5 C 1812.83,2223.5 1818.17,2223.5 1823.5,2223.5C 1823.5,2228.83 1823.5,2234.17 1823.5,2239.5C 1818.17,2239.5 1812.83,2239.5 1807.5,2239.5C 1807.5,2234.17 1807.5,2228.83 1807.5,2223.5 Z"/></g>
<g><path style="opacity:1" fill="#e9b993" d="M 1823.5,2223.5 C 1828.83,2223.5 1834.17,2223.5 1839.5,2223.5C 1839.5,2228.83 1839.5,2234.17 1839.5,2239.5C 1834.17,2239.5 1828.83,2239.5 1823.5,2239.5C 1823.5,2234.17 1823.5,2228.83 1823.5,2223.5 Z"/></g>
<g><path style="opacity:1" fill="#4f3344" d="M 1839.5,2223.5 C 1844.83,2223.5 1850.17,2223.5 1855.5,2223.5C 1855.5,2228.83 1855.5,2234.17 1855.5,2239.5C 1850.17,2239.5 1844.83,2239.5 1839.5,2239.5C 1839.5,2234.17 1839.5,2228.83 1839.5,2223.5 Z"/></g>
<g><path style="opacity:1" fill="#253a57" d="M 1855.5,2223.5 C 1860.83,2223.5 1866.17,2223.5 1871.5,2223.5C 1871.5,2228.83 1871.5,2234.17 1871.5,2239.5C 1866.17,2239.5 1860.83,2239.5 1855.5,2239.5C 1855.5,2234.17 1855.5,2228.83 1855.5,2223.5 Z"/></g>
<g><path style="opacity:1" fill="#354056" d="M 1871.5,2223.5 C 1951.5,2223.5 2031.5,2223.5 2111.5,2223.5C 2111.5,2228.83 2111.5,2234.17 2111.5,2239.5C 2031.5,2239.5 1951.5,2239.5 1871.5,2239.5C 1871.5,2234.17 1871.5,2228.83 1871.5,2223.5 Z"/></g>
<g><path style="opacity:1" fill="#23426d" d="M 2111.5,2223.5 C 2116.83,2223.5 2122.17,2223.5 2127.5,2223.5C 2127.5,2228.83 2127.5,2234.17 2127.5,2239.5C 2122.17,2239.5 2116.83,2239.5 2111.5,2239.5C 2111.5,2234.17 2111.5,2228.83 2111.5,2223.5 Z"/></g>
<g><path style="opacity:1" fill="#749fe1" d="M 2127.5,2223.5 C 2132.83,2223.5 2138.17,2223.5 2143.5,2223.5C 2143.5,2228.83 2143.5,2234.17 2143.5,2239.5C 2138.17,2239.5 2132.83,2239.5 2127.5,2239.5C 2127.5,2234.17 2127.5,2228.83 2127.5,2223.5 Z"/></g>
<g><path style="opacity:1" fill="#fefff7" d="M 2735.5,2223.5 C 2740.83,2223.5 2746.17,2223.5 2751.5,2223.5C 2751.5,2228.83 2751.5,2234.17 2751.5,2239.5C 2746.17,2239.5 2740.83,2239.5 2735.5,2239.5C 2735.5,2234.17 2735.5,2228.83 2735.5,2223.5 Z"/></g>
<g><path style="opacity:1" fill="#cf897c" d="M 2751.5,2223.5 C 2756.83,2223.5 2762.17,2223.5 2767.5,2223.5C 2767.5,2228.83 2767.5,2234.17 2767.5,2239.5C 2762.17,2239.5 2756.83,2239.5 2751.5,2239.5C 2751.5,2234.17 2751.5,2228.83 2751.5,2223.5 Z"/></g>
<g><path style="opacity:1" fill="#483b4a" d="M 2767.5,2223.5 C 2772.83,2223.5 2778.17,2223.5 2783.5,2223.5C 2783.5,2228.83 2783.5,2234.17 2783.5,2239.5C 2778.17,2239.5 2772.83,2239.5 2767.5,2239.5C 2767.5,2234.17 2767.5,2228.83 2767.5,2223.5 Z"/></g>
<g><path style="opacity:1" fill="#354056" d="M 2783.5,2223.5 C 2863.5,2223.5 2943.5,2223.5 3023.5,2223.5C 3023.5,2228.83 3023.5,2234.17 3023.5,2239.5C 2943.5,2239.5 2863.5,2239.5 2783.5,2239.5C 2783.5,2234.17 2783.5,2228.83 2783.5,2223.5 Z"/></g>
<g><path style="opacity:1" fill="#323646" d="M 3023.5,2223.5 C 3028.83,2223.5 3034.17,2223.5 3039.5,2223.5C 3039.5,2228.83 3039.5,2234.17 3039.5,2239.5C 3034.17,2239.5 3028.83,2239.5 3023.5,2239.5C 3023.5,2234.17 3023.5,2228.83 3023.5,2223.5 Z"/></g>
<g><path style="opacity:1" fill="#15418d" d="M 3039.5,2207.5 C 3044.83,2207.5 3050.17,2207.5 3055.5,2207.5C 3055.5,2218.17 3055.5,2228.83 3055.5,2239.5C 3050.17,2239.5 3044.83,2239.5 3039.5,2239.5C 3039.5,2234.17 3039.5,2228.83 3039.5,2223.5C 3039.5,2218.17 3039.5,2212.83 3039.5,2207.5 Z"/></g>
<g><path style="opacity:1" fill="#ba7250" d="M 3423.5,2207.5 C 3428.83,2207.5 3434.17,2207.5 3439.5,2207.5C 3439.5,2212.83 3439.5,2218.17 3439.5,2223.5C 3439.5,2228.83 3439.5,2234.17 3439.5,2239.5C 3434.17,2239.5 3428.83,2239.5 3423.5,2239.5C 3423.5,2228.83 3423.5,2218.17 3423.5,2207.5 Z"/></g>
<g><path style="opacity:1" fill="#18304f" d="M 3439.5,2223.5 C 3444.83,2223.5 3450.17,2223.5 3455.5,2223.5C 3455.5,2228.83 3455.5,2234.17 3455.5,2239.5C 3450.17,2239.5 3444.83,2239.5 3439.5,2239.5C 3439.5,2234.17 3439.5,2228.83 3439.5,2223.5 Z"/></g>
<g><path style="opacity:1" fill="#354156" d="M 3455.5,2223.5 C 3743.5,2223.5 4031.5,2223.5 4319.5,2223.5C 4319.5,2228.83 4319.5,2234.17 4319.5,2239.5C 4031.5,2239.5 3743.5,2239.5 3455.5,2239.5C 3455.5,2234.17 3455.5,2228.83 3455.5,2223.5 Z"/></g>
<g><path style="opacity:1" fill="#212b4c" d="M 4319.5,2223.5 C 4324.83,2223.5 4330.17,2223.5 4335.5,2223.5C 4335.5,2228.83 4335.5,2234.17 4335.5,2239.5C 4330.17,2239.5 4324.83,2239.5 4319.5,2239.5C 4319.5,2234.17 4319.5,2228.83 4319.5,2223.5 Z"/></g>
<g><path style="opacity:1" fill="#69afeb" d="M 4335.5,2207.5 C 4340.83,2207.5 4346.17,2207.5 4351.5,2207.5C 4351.5,2218.17 4351.5,2228.83 4351.5,2239.5C 4346.17,2239.5 4340.83,2239.5 4335.5,2239.5C 4335.5,2234.17 4335.5,2228.83 4335.5,2223.5C 4335.5,2218.17 4335.5,2212.83 4335.5,2207.5 Z"/></g>
<g><path style="opacity:1" fill="#a66046" d="M 4863.5,2207.5 C 4868.83,2207.5 4874.17,2207.5 4879.5,2207.5C 4879.5,2212.83 4879.5,2218.17 4879.5,2223.5C 4879.5,2228.83 4879.5,2234.17 4879.5,2239.5C 4874.17,2239.5 4868.83,2239.5 4863.5,2239.5C 4863.5,2228.83 4863.5,2218.17 4863.5,2207.5 Z"/></g>
<g><path style="opacity:1" fill="#1a3351" d="M 4879.5,2223.5 C 4884.83,2223.5 4890.17,2223.5 4895.5,2223.5C 4895.5,2228.83 4895.5,2234.17 4895.5,2239.5C 4890.17,2239.5 4884.83,2239.5 4879.5,2239.5C 4879.5,2234.17 4879.5,2228.83 4879.5,2223.5 Z"/></g>
<g><path style="opacity:1" fill="#364056" d="M 4895.5,2223.5 C 5183.5,2223.5 5471.5,2223.5 5759.5,2223.5C 5759.5,2228.83 5759.5,2234.17 5759.5,2239.5C 5471.5,2239.5 5183.5,2239.5 4895.5,2239.5C 4895.5,2234.17 4895.5,2228.83 4895.5,2223.5 Z"/></g>
<g><path style="opacity:1" fill="#1f2a56" d="M 5759.5,2223.5 C 5764.83,2223.5 5770.17,2223.5 5775.5,2223.5C 5775.5,2228.83 5775.5,2234.17 5775.5,2239.5C 5770.17,2239.5 5764.83,2239.5 5759.5,2239.5C 5759.5,2234.17 5759.5,2228.83 5759.5,2223.5 Z"/></g>
</svg>
