<?xml version="1.0" encoding="UTF-8"?>
<svg version="1.1" xmlns="http://www.w3.org/2000/svg" width="160" height="148">
<path d="M0 0 C1.32 0 2.64 0 4 0 C4 0.99 4 1.98 4 3 C4.99 3 5.98 3 7 3 C7 3.99 7 4.98 7 6 C7.99 6 8.98 6 10 6 C10 6.99 10 7.98 10 9 C10.99 9 11.98 9 13 9 C13 9.99 13 10.98 13 12 C13.99 12 14.98 12 16 12 C16 11.01 16 10.02 16 9 C16.99 9 17.98 9 19 9 C19 9.99 19 10.98 19 12 C19.66 12 20.32 12 21 12 C21 13.98 21 15.96 21 18 C22.32 18 23.64 18 25 18 C25 19.98 25 21.96 25 24 C26.98 24 28.96 24 31 24 C31 24.99 31 25.98 31 27 C31.99 27 32.98 27 34 27 C34.12375 27.969375 34.2475 28.93875 34.375 29.9375 C34.684375 31.4534375 34.684375 31.4534375 35 33 C35.66 33.33 36.32 33.66 37 34 C37 35.98 37 37.96 37 40 C36.01 40 35.02 40 34 40 C34 41.98 34 43.96 34 46 C35.32 46 36.64 46 38 46 C38 50.95 38 55.9 38 61 C36.515 61.495 36.515 61.495 35 62 C34.45599548 62.83391769 33.91199097 63.66783539 33.35150146 64.52702332 C31 67 31 67 27.14019775 67.60127258 C25.55215034 67.61574205 23.96370639 67.60252598 22.37597656 67.56762695 C21.07299873 67.56872215 21.07299873 67.56872215 19.74369812 67.56983948 C16.87536963 67.56635878 14.00866942 67.52747539 11.140625 67.48828125 C9.15094897 67.47895483 7.16126145 67.47183791 5.17156982 67.46684265 C-0.06316882 67.44775947 -5.29721288 67.39864693 -10.53167725 67.34332275 C-15.87388716 67.29215895 -21.2162094 67.26933472 -26.55859375 67.24414062 C-37.03936754 67.19052978 -47.51962599 67.10520069 -58 67 C-58 66.01 -58 65.02 -58 64 C-58.99 64 -59.98 64 -61 64 C-61 63.01 -61 62.02 -61 61 C-61.99 61 -62.98 61 -64 61 C-64 57.04 -64 53.08 -64 49 C-63.01 49 -62.02 49 -61 49 C-61 47.02 -61 45.04 -61 43 C-60.01 43 -59.02 43 -58 43 C-58 41.02 -58 39.04 -58 37 C-57.01 37 -56.02 37 -55 37 C-55 34.69 -55 32.38 -55 30 C-54.01 30 -53.02 30 -52 30 C-52 28.02 -52 26.04 -52 24 C-51.01 24 -50.02 24 -49 24 C-49 23.01 -49 22.02 -49 21 C-48.01 21 -47.02 21 -46 21 C-46 20.34 -46 19.68 -46 19 C-43.69 19 -41.38 19 -39 19 C-39 16.69 -39 14.38 -39 12 C-38.34 12 -37.68 12 -37 12 C-37 11.01 -37 10.02 -37 9 C-35.02 9 -33.04 9 -31 9 C-31 8.01 -31 7.02 -31 6 C-29.02 6 -27.04 6 -25 6 C-25 5.01 -25 4.02 -25 3 C-22.69 3 -20.38 3 -18 3 C-18 3.99 -18 4.98 -18 6 C-17.01 6 -16.02 6 -15 6 C-15 5.01 -15 4.02 -15 3 C-12.03 3 -9.06 3 -6 3 C-6 3.99 -6 4.98 -6 6 C-4.68 6 -3.36 6 -2 6 C-2 5.01 -2 4.02 -2 3 C-1.34 3 -0.68 3 0 3 C0 2.01 0 1.02 0 0 Z " fill="#DC7A1A" transform="translate(95,52)"/>
<path d="M0 0 C1.32 0 2.64 0 4 0 C4 0.99 4 1.98 4 3 C4.99 3 5.98 3 7 3 C7 3.99 7 4.98 7 6 C7.99 6 8.98 6 10 6 C10 6.99 10 7.98 10 9 C10.99 9 11.98 9 13 9 C13 9.99 13 10.98 13 12 C13.99 12 14.98 12 16 12 C16 11.01 16 10.02 16 9 C16.99 9 17.98 9 19 9 C19 9.99 19 10.98 19 12 C19.66 12 20.32 12 21 12 C21 13.98 21 15.96 21 18 C22.32 18 23.64 18 25 18 C25 19.98 25 21.96 25 24 C26.98 24 28.96 24 31 24 C31 24.99 31 25.98 31 27 C31.99 27 32.98 27 34 27 C34.12375 27.969375 34.2475 28.93875 34.375 29.9375 C34.684375 31.4534375 34.684375 31.4534375 35 33 C35.66 33.33 36.32 33.66 37 34 C37 35.98 37 37.96 37 40 C36.01 40 35.02 40 34 40 C34 41.98 34 43.96 34 46 C33.34 46 32.68 46 32 46 C32 44.02 32 42.04 32 40 C31.01 40 30.02 40 29 40 C28.938125 39.0925 28.87625 38.185 28.8125 37.25 C27.79252752 33.1701101 26.34951383 32.41476578 23 30 C22.29875 29.113125 21.5975 28.22625 20.875 27.3125 C19.13879023 24.74752211 19.13879023 24.74752211 16 24 C16 23.01 16 22.02 16 21 C14.02 21 12.04 21 10 21 C9.505 20.01 9.505 20.01 9 19 C1.08 18.67 -6.84 18.34 -15 18 C-15 18.99 -15 19.98 -15 21 C-16.98 21 -18.96 21 -21 21 C-21 21.99 -21 22.98 -21 24 C-21.99 24.33 -22.98 24.66 -24 25 C-25.34423339 26.65788785 -26.67618483 28.32576317 -28 30 C-28.886875 30.680625 -29.77375 31.36125 -30.6875 32.0625 C-33.10394436 34.08708852 -33.67140682 34.93313028 -34 38 C-34.66 38 -35.32 38 -36 38 C-36.33 40.64 -36.66 43.28 -37 46 C-37.99 46 -38.98 46 -40 46 C-40 49.96 -40 53.92 -40 58 C-40.99 58 -41.98 58 -43 58 C-43 58.99 -43 59.98 -43 61 C-43.99 61 -44.98 61 -46 61 C-46 62.32 -46 63.64 -46 65 C-20.59 65 4.82 65 31 65 C31 65.66 31 66.32 31 67 C1.63 67 -27.74 67 -58 67 C-58 66.01 -58 65.02 -58 64 C-58.99 64 -59.98 64 -61 64 C-61 63.01 -61 62.02 -61 61 C-61.99 61 -62.98 61 -64 61 C-64 57.04 -64 53.08 -64 49 C-63.01 49 -62.02 49 -61 49 C-61 47.02 -61 45.04 -61 43 C-60.01 43 -59.02 43 -58 43 C-58 41.02 -58 39.04 -58 37 C-57.01 37 -56.02 37 -55 37 C-55 34.69 -55 32.38 -55 30 C-54.01 30 -53.02 30 -52 30 C-52 28.02 -52 26.04 -52 24 C-51.01 24 -50.02 24 -49 24 C-49 23.01 -49 22.02 -49 21 C-48.01 21 -47.02 21 -46 21 C-46 20.34 -46 19.68 -46 19 C-43.69 19 -41.38 19 -39 19 C-39 16.69 -39 14.38 -39 12 C-38.34 12 -37.68 12 -37 12 C-37 11.01 -37 10.02 -37 9 C-35.02 9 -33.04 9 -31 9 C-31 8.01 -31 7.02 -31 6 C-29.02 6 -27.04 6 -25 6 C-25 5.01 -25 4.02 -25 3 C-22.69 3 -20.38 3 -18 3 C-18 3.99 -18 4.98 -18 6 C-17.01 6 -16.02 6 -15 6 C-15 5.01 -15 4.02 -15 3 C-12.03 3 -9.06 3 -6 3 C-6 3.99 -6 4.98 -6 6 C-4.68 6 -3.36 6 -2 6 C-2 5.01 -2 4.02 -2 3 C-1.34 3 -0.68 3 0 3 C0 2.01 0 1.02 0 0 Z " fill="#2E6620" transform="translate(95,52)"/>
<path d="M0 0 C2.31 0 4.62 0 7 0 C7 1.98 7 3.96 7 6 C6.01 6 5.02 6 4 6 C4 7.98 4 9.96 4 12 C3.01 12 2.02 12 1 12 C1 11.01 1 10.02 1 9 C0.01 9 -0.98 9 -2 9 C-2 9.99 -2 10.98 -2 12 C-2.99 12 -3.98 12 -5 12 C-5 12.99 -5 13.98 -5 15 C-5.99 15 -6.98 15 -8 15 C-8 16.98 -8 18.96 -8 21 C-10.31 21 -12.62 21 -15 21 C-15 21.99 -15 22.98 -15 24 C-15.99 24 -16.98 24 -18 24 C-18 26.31 -18 28.62 -18 31 C-18.99 31 -19.98 31 -21 31 C-21 33.97 -21 36.94 -21 40 C-20.01 40 -19.02 40 -18 40 C-18 40.99 -18 41.98 -18 43 C-17.01 43 -16.02 43 -15 43 C-15 46.96 -15 50.92 -15 55 C-15.99 55 -16.98 55 -18 55 C-18 55.99 -18 56.98 -18 58 C-18.99 58 -19.98 58 -21 58 C-21 59.32 -21 60.64 -21 62 C4.41 62 29.82 62 56 62 C56 62.66 56 63.32 56 64 C26.63 64 -2.74 64 -33 64 C-33 63.01 -33 62.02 -33 61 C-33.99 61 -34.98 61 -36 61 C-36 60.01 -36 59.02 -36 58 C-36.99 58 -37.98 58 -39 58 C-39 54.04 -39 50.08 -39 46 C-38.01 46 -37.02 46 -36 46 C-36 44.02 -36 42.04 -36 40 C-35.01 40 -34.02 40 -33 40 C-33 38.02 -33 36.04 -33 34 C-32.01 34 -31.02 34 -30 34 C-30 31.69 -30 29.38 -30 27 C-29.01 27 -28.02 27 -27 27 C-27 25.02 -27 23.04 -27 21 C-26.01 21 -25.02 21 -24 21 C-24 20.01 -24 19.02 -24 18 C-23.01 18 -22.02 18 -21 18 C-21 17.34 -21 16.68 -21 16 C-18.69 16 -16.38 16 -14 16 C-14 13.69 -14 11.38 -14 9 C-13.34 9 -12.68 9 -12 9 C-12 8.01 -12 7.02 -12 6 C-10.02 6 -8.04 6 -6 6 C-6 5.01 -6 4.02 -6 3 C-4.02 3 -2.04 3 0 3 C0 2.01 0 1.02 0 0 Z " fill="#C6241F" transform="translate(70,55)"/>
<path d="M0 0 C0.66 0 1.32 0 2 0 C2 0.99 2 1.98 2 3 C22.46 3 42.92 3 64 3 C64 2.01 64 1.02 64 0 C64.99 0 65.98 0 67 0 C67 2.97 67 5.94 67 9 C66.01 9 65.02 9 64 9 C64 9.99 64 10.98 64 12 C41.56 12 19.12 12 -4 12 C-4 11.34 -4 10.68 -4 10 C-2.68 10 -1.36 10 0 10 C0 6.7 0 3.4 0 0 Z " fill="#B26016" transform="translate(59,101)"/>
<path d="M0 0 C0.99 0 1.98 0 3 0 C3 6.27 3 12.54 3 19 C2.01 19 1.02 19 0 19 C0 22.96 0 26.92 0 31 C0.99 31 1.98 31 3 31 C3 32.32 3 33.64 3 35 C30.39 35 57.78 35 86 35 C86 35.66 86 36.32 86 37 C56.63 37 27.26 37 -3 37 C-3 36.01 -3 35.02 -3 34 C-3.99 34 -4.98 34 -6 34 C-6 33.01 -6 32.02 -6 31 C-6.99 31 -7.98 31 -9 31 C-9 27.04 -9 23.08 -9 19 C-8.01 19 -7.02 19 -6 19 C-6 17.02 -6 15.04 -6 13 C-5.01 13 -4.02 13 -3 13 C-3 11.02 -3 9.04 -3 7 C-2.01 7 -1.02 7 0 7 C0 4.69 0 2.38 0 0 Z " fill="#200303" transform="translate(40,82)"/>
<path d="M0 0 C7.92 0 15.84 0 24 0 C24.33 0.99 24.66 1.98 25 3 C26.98 3 28.96 3 31 3 C31 3.99 31 4.98 31 6 C28.69 6 26.38 6 24 6 C24 6.99 24 7.98 24 9 C22.35 9 20.7 9 19 9 C18.67 9.99 18.34 10.98 18 12 C14.37 12 10.74 12 7 12 C6.67 11.34 6.34 10.68 6 10 C5.175 9.835 4.35 9.67 3.5 9.5 C2.675 9.335 1.85 9.17 1 9 C0.67 8.34 0.34 7.68 0 7 C-3.02934491 6.34227572 -3.02934491 6.34227572 -6 6 C-6 5.01 -6 4.02 -6 3 C-4.02 3 -2.04 3 0 3 C0 2.01 0 1.02 0 0 Z " fill="#F09850" transform="translate(80,70)"/>
<path d="M0 0 C2.31 0 4.62 0 7 0 C7 1.98 7 3.96 7 6 C6.01 6 5.02 6 4 6 C4 7.98 4 9.96 4 12 C3.01 12 2.02 12 1 12 C1 11.01 1 10.02 1 9 C0.01 9 -0.98 9 -2 9 C-2 9.99 -2 10.98 -2 12 C-2.99 12 -3.98 12 -5 12 C-5 12.99 -5 13.98 -5 15 C-7.31 15 -9.62 15 -12 15 C-12 12.03 -12 9.06 -12 6 C-10.02 6 -8.04 6 -6 6 C-6 5.01 -6 4.02 -6 3 C-4.02 3 -2.04 3 0 3 C0 2.01 0 1.02 0 0 Z " fill="#B56440" transform="translate(70,55)"/>
<path d="M0 0 C0.66 0 1.32 0 2 0 C2 1.98 2 3.96 2 6 C3.32 6 4.64 6 6 6 C6 7.98 6 9.96 6 12 C1.71 12 -2.58 12 -7 12 C-7 13.98 -7 15.96 -7 18 C-8.98 18 -10.96 18 -13 18 C-13 16.02 -13 14.04 -13 12 C-12.01 12 -11.02 12 -10 12 C-10 11.01 -10 10.02 -10 9 C-9.01 9 -8.02 9 -7 9 C-7 8.34 -7 7.68 -7 7 C-4.69 7 -2.38 7 0 7 C0 4.69 0 2.38 0 0 Z " fill="#F46262" transform="translate(56,64)"/>
<path d="M0 0 C1.98 0 3.96 0 6 0 C6 0.99 6 1.98 6 3 C5.01 3 4.02 3 3 3 C3 5.31 3 7.62 3 10 C2.01 10 1.02 10 0 10 C0 12.97 0 15.94 0 19 C-1.98 19 -3.96 19 -6 19 C-6 14.71 -6 10.42 -6 6 C-4.02 6 -2.04 6 0 6 C0 4.02 0 2.04 0 0 Z " fill="#CD191A" transform="translate(49,76)"/>
<path d="M0 0 C0.99 0 1.98 0 3 0 C3 5.94 3 11.88 3 18 C3.99 18.33 4.98 18.66 6 19 C6 19.99 6 20.98 6 22 C4.02 21.67 2.04 21.34 0 21 C0 20.01 0 19.02 0 18 C-0.99 18 -1.98 18 -3 18 C-3 14.04 -3 10.08 -3 6 C-2.01 6 -1.02 6 0 6 C0 4.02 0 2.04 0 0 Z " fill="#6D3A0C" transform="translate(34,95)"/>
<path d="M0 0 C1.98 0 3.96 0 6 0 C6 1.98 6 3.96 6 6 C5.01 6 4.02 6 3 6 C3 6.99 3 7.98 3 9 C2.01 9 1.02 9 0 9 C0 10.32 0 11.64 0 13 C-2.31 13 -4.62 13 -7 13 C-7 11.02 -7 9.04 -7 7 C-5.68 7 -4.36 7 -3 7 C-3 6.01 -3 5.02 -3 4 C-2.01 4 -1.02 4 0 4 C0 2.68 0 1.36 0 0 Z " fill="#F09850" transform="translate(74,82)"/>
<path d="M0 0 C2.97 0 5.94 0 9 0 C9 2.97 9 5.94 9 9 C7.02 9 5.04 9 3 9 C3 8.01 3 7.02 3 6 C2.01 6 1.02 6 0 6 C0 4.02 0 2.04 0 0 Z " fill="#ED5919" transform="translate(43,95)"/>
<path d="M0 0 C7.92 0 15.84 0 24 0 C24 0.99 24 1.98 24 3 C16.08 3 8.16 3 0 3 C0 2.01 0 1.02 0 0 Z " fill="#814417" transform="translate(80,67)"/>
<path d="M0 0 C2.97 0 5.94 0 9 0 C9.33 1.98 9.66 3.96 10 6 C8.68 6 7.36 6 6 6 C6 6.99 6 7.98 6 9 C5.01 9 4.02 9 3 9 C3 8.01 3 7.02 3 6 C2.01 6 1.02 6 0 6 C0 4.02 0 2.04 0 0 Z " fill="#A32C2D" transform="translate(80,55)"/>
<path d="M0 0 C0.99 0 1.98 0 3 0 C3 4.29 3 8.58 3 13 C1.02 13 -0.96 13 -3 13 C-3 11.02 -3 9.04 -3 7 C-2.01 7 -1.02 7 0 7 C0 4.69 0 2.38 0 0 Z " fill="#B35E10" transform="translate(40,82)"/>
<path d="M0 0 C3.3 0 6.6 0 10 0 C10 0.99 10 1.98 10 3 C9.01 3 8.02 3 7 3 C7 3.99 7 4.98 7 6 C4.69 6 2.38 6 0 6 C0 4.02 0 2.04 0 0 Z " fill="#F7E66A" transform="translate(58,64)"/>
<path d="M0 0 C0.99 0 1.98 0 3 0 C3 4.95 3 9.9 3 15 C2.01 15 1.02 15 0 15 C0 10.05 0 5.1 0 0 Z " fill="#000000" transform="translate(130,98)"/>
<path d="M0 0 C0.66 0 1.32 0 2 0 C2 2.31 2 4.62 2 7 C1.01 7 0.02 7 -1 7 C-1 8.98 -1 10.96 -1 13 C-1.99 13 -2.98 13 -4 13 C-4.125 7.25 -4.125 7.25 -3 5 C-2.34 5 -1.68 5 -1 5 C-0.67 3.35 -0.34 1.7 0 0 Z " fill="#F09850" transform="translate(62,85)"/>
<path d="M0 0 C0.99 0 1.98 0 3 0 C3 0.99 3 1.98 3 3 C3.66 3 4.32 3 5 3 C5 4.98 5 6.96 5 9 C4.34 9 3.68 9 3 9 C3 8.01 3 7.02 3 6 C1.02 6 -0.96 6 -3 6 C-3 5.01 -3 4.02 -3 3 C-2.01 3 -1.02 3 0 3 C0 2.01 0 1.02 0 0 Z " fill="#361405" transform="translate(111,61)"/>
<path d="M0 0 C0.99 0 1.98 0 3 0 C3 3.96 3 7.92 3 12 C2.01 12 1.02 12 0 12 C0 8.04 0 4.08 0 0 Z " fill="#F46262" transform="translate(40,101)"/>
<path d="M0 0 C1.98 0 3.96 0 6 0 C6 1.98 6 3.96 6 6 C4.02 6 2.04 6 0 6 C0 4.02 0 2.04 0 0 Z " fill="#9C4015" transform="translate(37,95)"/>
<path d="M0 0 C0.99 0.33 1.98 0.66 3 1 C3 1.66 3 2.32 3 3 C3.99 3.33 4.98 3.66 6 4 C6 5.98 6 7.96 6 10 C4.68 10 3.36 10 2 10 C2 7.69 2 5.38 2 3 C1.34 3 0.68 3 0 3 C0 2.01 0 1.02 0 0 Z " fill="#F09850" transform="translate(118,82)"/>
<path d="M0 0 C1.32 0 2.64 0 4 0 C4 1.98 4 3.96 4 6 C1.69 6 -0.62 6 -3 6 C-3 5.01 -3 4.02 -3 3 C-2.01 3 -1.02 3 0 3 C0 2.01 0 1.02 0 0 Z " fill="#CD191A" transform="translate(58,70)"/>
<path d="M0 0 C0.66 0 1.32 0 2 0 C2 2.97 2 5.94 2 9 C-0.97 9 -3.94 9 -7 9 C-7 8.34 -7 7.68 -7 7 C-4.69 7 -2.38 7 0 7 C0 4.69 0 2.38 0 0 Z " fill="#000000" transform="translate(56,64)"/>
<path d="M0 0 C0.99 0 1.98 0 3 0 C3 3.96 3 7.92 3 12 C2.34 12 1.68 12 1 12 C0.67 8.04 0.34 4.08 0 0 Z " fill="#864516" transform="translate(52,98)"/>
<path d="M0 0 C0.99 0 1.98 0 3 0 C3 0.99 3 1.98 3 3 C3.99 3 4.98 3 6 3 C6 3.99 6 4.98 6 6 C4.02 6 2.04 6 0 6 C0 4.02 0 2.04 0 0 Z " fill="#980F12" transform="translate(43,89)"/>
<path d="M0 0 C2.97 0 5.94 0 9 0 C9 0.99 9 1.98 9 3 C6.03 3 3.06 3 0 3 C0 2.01 0 1.02 0 0 Z " fill="#A24141" transform="translate(46,73)"/>
<path d="M0 0 C1.32 0.33 2.64 0.66 4 1 C4 1.66 4 2.32 4 3 C4.99 3.33 5.98 3.66 7 4 C7 4.66 7 5.32 7 6 C5.68 6 4.36 6 3 6 C3 5.01 3 4.02 3 3 C2.01 3 1.02 3 0 3 C0 2.01 0 1.02 0 0 Z " fill="#F09850" transform="translate(111,76)"/>
<path d="M0 0 C0.99 0 1.98 0 3 0 C3 0.99 3 1.98 3 3 C2.01 3 1.02 3 0 3 C0 3.99 0 4.98 0 6 C-1.32 6 -2.64 6 -4 6 C-3.67 5.01 -3.34 4.02 -3 3 C-2.34 3 -1.68 3 -1 3 C-0.67 2.01 -0.34 1.02 0 0 Z " fill="#F09850" transform="translate(71,76)"/>
<path d="M0 0 C0.99 0 1.98 0 3 0 C3 2.31 3 4.62 3 7 C2.01 7 1.02 7 0 7 C0 4.69 0 2.38 0 0 Z " fill="#F46262" transform="translate(43,82)"/>
<path d="M0 0 C0.99 0 1.98 0 3 0 C3 2.31 3 4.62 3 7 C2.01 7 1.02 7 0 7 C0 4.69 0 2.38 0 0 Z " fill="#000000" transform="translate(40,82)"/>
<path d="M0 0 C1.32 0 2.64 0 4 0 C4 0.99 4 1.98 4 3 C3.01 3 2.02 3 1 3 C0.67 3.99 0.34 4.98 0 6 C-0.66 6 -1.32 6 -2 6 C-2 5.01 -2 4.02 -2 3 C-1.34 3 -0.68 3 0 3 C0 2.01 0 1.02 0 0 Z " fill="#000000" transform="translate(95,52)"/>
<path d="M0 0 C0.99 0 1.98 0 3 0 C3 1.98 3 3.96 3 6 C2.01 6 1.02 6 0 6 C0 4.02 0 2.04 0 0 Z " fill="#E8825E" transform="translate(43,95)"/>
<path d="M0 0 C0.99 0 1.98 0 3 0 C3 1.98 3 3.96 3 6 C2.01 6 1.02 6 0 6 C0 4.02 0 2.04 0 0 Z " fill="#B35E10" transform="translate(37,95)"/>
<path d="M0 0 C0.99 0 1.98 0 3 0 C3 1.98 3 3.96 3 6 C2.01 6 1.02 6 0 6 C0 4.02 0 2.04 0 0 Z " fill="#000000" transform="translate(34,95)"/>
<path d="M0 0 C0.99 0 1.98 0 3 0 C3 1.98 3 3.96 3 6 C2.01 6 1.02 6 0 6 C0 4.02 0 2.04 0 0 Z " fill="#000000" transform="translate(37,89)"/>
<path d="M0 0 C0.99 0 1.98 0 3 0 C3 1.98 3 3.96 3 6 C2.01 6 1.02 6 0 6 C0 4.02 0 2.04 0 0 Z " fill="#000000" transform="translate(43,76)"/>
<path d="M0 0 C0.99 0 1.98 0 3 0 C3 1.98 3 3.96 3 6 C2.01 6 1.02 6 0 6 C0 4.02 0 2.04 0 0 Z " fill="#ED5919" transform="translate(71,61)"/>
<path d="M0 0 C1.98 0 3.96 0 6 0 C6 0.99 6 1.98 6 3 C4.02 3 2.04 3 0 3 C0 2.01 0 1.02 0 0 Z " fill="#000000" transform="translate(58,61)"/>
<path d="M0 0 C1.98 0 3.96 0 6 0 C6 0.99 6 1.98 6 3 C4.02 3 2.04 3 0 3 C0 2.01 0 1.02 0 0 Z " fill="#000000" transform="translate(64,58)"/>
</svg>
